<ttFont>
<head>
    <!-- Most of this table will be recalculated by the compiler -->
    <tableVersion value="1.0"/>
    <fontRevision value="5.0"/>
    <checkSumAdjustment value="0x9a055ede"/>
    <magicNumber value="0x5f0f3cf5"/>
    <flags value="00000000 00001011"/>
    <unitsPerEm value="2048"/>
    <created value="Sun May 15 08:57:39 2005"/>
    <modified value="Thu Apr 14 12:54:52 2011"/>
    <xMin value="-65"/>
    <yMin value="-969"/>
    <xMax value="7408"/>
    <yMax value="2290"/>
    <macStyle value="00000000 00000000"/>
    <lowestRecPPEM value="8"/>
    <fontDirectionHint value="2"/>
    <indexToLocFormat value="1"/>
    <glyphDataFormat value="0"/>
  </head>
    <TTGlyph name=".notdef" xMin="142" yMin="226" xMax="842" yMax="1588">
      <contour>
        <pt x="142" y="226" on="1"/>
        <pt x="142" y="1588" on="1"/>
        <pt x="842" y="1588" on="1"/>
        <pt x="842" y="226" on="1"/>
      </contour>
      <contour>
        <pt x="284" y="368" on="1"/>
        <pt x="700" y="368" on="1"/>
        <pt x="700" y="1447" on="1"/>
        <pt x="284" y="1447" on="1"/>
      </contour>
    </TTGlyph>
    <TTGlyph name=".null" xMin="142" yMin="226" xMax="842" yMax="1588">
      <contour>
        <pt x="142" y="226" on="1"/>
        <pt x="142" y="1588" on="1"/>
        <pt x="842" y="1588" on="1"/>
        <pt x="842" y="226" on="1"/>
      </contour>
      <contour>
        <pt x="284" y="368" on="1"/>
        <pt x="700" y="368" on="1"/>
        <pt x="700" y="1447" on="1"/>
        <pt x="284" y="1447" on="1"/>
      </contour>
    </TTGlyph>
    <TTGlyph name="afii57381" xMin="142" yMin="226" xMax="842" yMax="1588">
      <contour>
        <pt x="142" y="226" on="1"/>
        <pt x="142" y="1588" on="1"/>
        <pt x="842" y="1588" on="1"/>
        <pt x="842" y="226" on="1"/>
      </contour>
      <contour>
        <pt x="284" y="368" on="1"/>
        <pt x="700" y="368" on="1"/>
        <pt x="700" y="1447" on="1"/>
        <pt x="284" y="1447" on="1"/>
      </contour>
    </TTGlyph>
    <TTGlyph name="afii57388" xMin="142" yMin="226" xMax="842" yMax="1588">
      <contour>
        <pt x="142" y="226" on="1"/>
        <pt x="142" y="1588" on="1"/>
        <pt x="842" y="1588" on="1"/>
        <pt x="842" y="226" on="1"/>
      </contour>
      <contour>
        <pt x="284" y="368" on="1"/>
        <pt x="700" y="368" on="1"/>
        <pt x="700" y="1447" on="1"/>
        <pt x="284" y="1447" on="1"/>
      </contour>
    </TTGlyph>
    <TTGlyph name="afii57396" xMin="142" yMin="226" xMax="842" yMax="1588">
      <contour>
        <pt x="142" y="226" on="1"/>
        <pt x="142" y="1588" on="1"/>
        <pt x="842" y="1588" on="1"/>
        <pt x="842" y="226" on="1"/>
      </contour>
      <contour>
        <pt x="284" y="368" on="1"/>
        <pt x="700" y="368" on="1"/>
        <pt x="700" y="1447" on="1"/>
        <pt x="284" y="1447" on="1"/>
      </contour>
    </TTGlyph>
    <TTGlyph name="afii57397" xMin="142" yMin="226" xMax="842" yMax="1588">
      <contour>
        <pt x="142" y="226" on="1"/>
        <pt x="142" y="1588" on="1"/>
        <pt x="842" y="1588" on="1"/>
        <pt x="842" y="226" on="1"/>
      </contour>
      <contour>
        <pt x="284" y="368" on="1"/>
        <pt x="700" y="368" on="1"/>
        <pt x="700" y="1447" on="1"/>
        <pt x="284" y="1447" on="1"/>
      </contour>
    </TTGlyph>
    <TTGlyph name="afii57398" xMin="142" yMin="226" xMax="842" yMax="1588">
      <contour>
        <pt x="142" y="226" on="1"/>
        <pt x="142" y="1588" on="1"/>
        <pt x="842" y="1588" on="1"/>
        <pt x="842" y="226" on="1"/>
      </contour>
      <contour>
        <pt x="284" y="368" on="1"/>
        <pt x="700" y="368" on="1"/>
        <pt x="700" y="1447" on="1"/>
        <pt x="284" y="1447" on="1"/>
      </contour>
    </TTGlyph>
    <TTGlyph name="afii57403" xMin="142" yMin="226" xMax="842" yMax="1588">
      <contour>
        <pt x="142" y="226" on="1"/>
        <pt x="142" y="1588" on="1"/>
        <pt x="842" y="1588" on="1"/>
        <pt x="842" y="226" on="1"/>
      </contour>
      <contour>
        <pt x="284" y="368" on="1"/>
        <pt x="700" y="368" on="1"/>
        <pt x="700" y="1447" on="1"/>
        <pt x="284" y="1447" on="1"/>
      </contour>
    </TTGlyph>
    <TTGlyph name="afii57407" xMin="142" yMin="226" xMax="842" yMax="1588">
      <contour>
        <pt x="142" y="226" on="1"/>
        <pt x="142" y="1588" on="1"/>
        <pt x="842" y="1588" on="1"/>
        <pt x="842" y="226" on="1"/>
      </contour>
      <contour>
        <pt x="284" y="368" on="1"/>
        <pt x="700" y="368" on="1"/>
        <pt x="700" y="1447" on="1"/>
        <pt x="284" y="1447" on="1"/>
      </contour>
    </TTGlyph>
    <TTGlyph name="afii57440" xMin="142" yMin="226" xMax="842" yMax="1588">
      <contour>
        <pt x="142" y="226" on="1"/>
        <pt x="142" y="1588" on="1"/>
        <pt x="842" y="1588" on="1"/>
        <pt x="842" y="226" on="1"/>
      </contour>
      <contour>
        <pt x="284" y="368" on="1"/>
        <pt x="700" y="368" on="1"/>
        <pt x="700" y="1447" on="1"/>
        <pt x="284" y="1447" on="1"/>
      </contour>
    </TTGlyph>
    <TTGlyph name="afii57451" xMin="142" yMin="226" xMax="842" yMax="1588">
      <contour>
        <pt x="142" y="226" on="1"/>
        <pt x="142" y="1588" on="1"/>
        <pt x="842" y="1588" on="1"/>
        <pt x="842" y="226" on="1"/>
      </contour>
      <contour>
        <pt x="284" y="368" on="1"/>
        <pt x="700" y="368" on="1"/>
        <pt x="700" y="1447" on="1"/>
        <pt x="284" y="1447" on="1"/>
      </contour>
    </TTGlyph>
    <TTGlyph name="afii57452" xMin="142" yMin="226" xMax="842" yMax="1588">
      <contour>
        <pt x="142" y="226" on="1"/>
        <pt x="142" y="1588" on="1"/>
        <pt x="842" y="1588" on="1"/>
        <pt x="842" y="226" on="1"/>
      </contour>
      <contour>
        <pt x="284" y="368" on="1"/>
        <pt x="700" y="368" on="1"/>
        <pt x="700" y="1447" on="1"/>
        <pt x="284" y="1447" on="1"/>
      </contour>
    </TTGlyph>
    <TTGlyph name="afii57453" xMin="142" yMin="226" xMax="842" yMax="1588">
      <contour>
        <pt x="142" y="226" on="1"/>
        <pt x="142" y="1588" on="1"/>
        <pt x="842" y="1588" on="1"/>
        <pt x="842" y="226" on="1"/>
      </contour>
      <contour>
        <pt x="284" y="368" on="1"/>
        <pt x="700" y="368" on="1"/>
        <pt x="700" y="1447" on="1"/>
        <pt x="284" y="1447" on="1"/>
      </contour>
    </TTGlyph>
    <TTGlyph name="afii57454" xMin="142" yMin="226" xMax="842" yMax="1588">
      <contour>
        <pt x="142" y="226" on="1"/>
        <pt x="142" y="1588" on="1"/>
        <pt x="842" y="1588" on="1"/>
        <pt x="842" y="226" on="1"/>
      </contour>
      <contour>
        <pt x="284" y="368" on="1"/>
        <pt x="700" y="368" on="1"/>
        <pt x="700" y="1447" on="1"/>
        <pt x="284" y="1447" on="1"/>
      </contour>
    </TTGlyph>
    <TTGlyph name="afii57455" xMin="142" yMin="226" xMax="842" yMax="1588">
      <contour>
        <pt x="142" y="226" on="1"/>
        <pt x="142" y="1588" on="1"/>
        <pt x="842" y="1588" on="1"/>
        <pt x="842" y="226" on="1"/>
      </contour>
      <contour>
        <pt x="284" y="368" on="1"/>
        <pt x="700" y="368" on="1"/>
        <pt x="700" y="1447" on="1"/>
        <pt x="284" y="1447" on="1"/>
      </contour>
    </TTGlyph>
    <TTGlyph name="afii57456" xMin="142" yMin="226" xMax="842" yMax="1588">
      <contour>
        <pt x="142" y="226" on="1"/>
        <pt x="142" y="1588" on="1"/>
        <pt x="842" y="1588" on="1"/>
        <pt x="842" y="226" on="1"/>
      </contour>
      <contour>
        <pt x="284" y="368" on="1"/>
        <pt x="700" y="368" on="1"/>
        <pt x="700" y="1447" on="1"/>
        <pt x="284" y="1447" on="1"/>
      </contour>
    </TTGlyph>
    <TTGlyph name="afii57457" xMin="142" yMin="226" xMax="842" yMax="1588">
      <contour>
        <pt x="142" y="226" on="1"/>
        <pt x="142" y="1588" on="1"/>
        <pt x="842" y="1588" on="1"/>
        <pt x="842" y="226" on="1"/>
      </contour>
      <contour>
        <pt x="284" y="368" on="1"/>
        <pt x="700" y="368" on="1"/>
        <pt x="700" y="1447" on="1"/>
        <pt x="284" y="1447" on="1"/>
      </contour>
    </TTGlyph>
    <TTGlyph name="afii57458" xMin="142" yMin="226" xMax="842" yMax="1588">
      <contour>
        <pt x="142" y="226" on="1"/>
        <pt x="142" y="1588" on="1"/>
        <pt x="842" y="1588" on="1"/>
        <pt x="842" y="226" on="1"/>
      </contour>
      <contour>
        <pt x="284" y="368" on="1"/>
        <pt x="700" y="368" on="1"/>
        <pt x="700" y="1447" on="1"/>
        <pt x="284" y="1447" on="1"/>
      </contour>
    </TTGlyph>
    <TTGlyph name="afii57505" xMin="142" yMin="226" xMax="842" yMax="1588">
      <contour>
        <pt x="142" y="226" on="1"/>
        <pt x="142" y="1588" on="1"/>
        <pt x="842" y="1588" on="1"/>
        <pt x="842" y="226" on="1"/>
      </contour>
      <contour>
        <pt x="284" y="368" on="1"/>
        <pt x="700" y="368" on="1"/>
        <pt x="700" y="1447" on="1"/>
        <pt x="284" y="1447" on="1"/>
      </contour>
    </TTGlyph>
    <TTGlyph name="afii57506" xMin="142" yMin="226" xMax="842" yMax="1588">
      <contour>
        <pt x="142" y="226" on="1"/>
        <pt x="142" y="1588" on="1"/>
        <pt x="842" y="1588" on="1"/>
        <pt x="842" y="226" on="1"/>
      </contour>
      <contour>
        <pt x="284" y="368" on="1"/>
        <pt x="700" y="368" on="1"/>
        <pt x="700" y="1447" on="1"/>
        <pt x="284" y="1447" on="1"/>
      </contour>
    </TTGlyph>
    <TTGlyph name="afii57507" xMin="142" yMin="226" xMax="842" yMax="1588">
      <contour>
        <pt x="142" y="226" on="1"/>
        <pt x="142" y="1588" on="1"/>
        <pt x="842" y="1588" on="1"/>
        <pt x="842" y="226" on="1"/>
      </contour>
      <contour>
        <pt x="284" y="368" on="1"/>
        <pt x="700" y="368" on="1"/>
        <pt x="700" y="1447" on="1"/>
        <pt x="284" y="1447" on="1"/>
      </contour>
    </TTGlyph>
    <TTGlyph name="afii57508" xMin="142" yMin="226" xMax="842" yMax="1588">
      <contour>
        <pt x="142" y="226" on="1"/>
        <pt x="142" y="1588" on="1"/>
        <pt x="842" y="1588" on="1"/>
        <pt x="842" y="226" on="1"/>
      </contour>
      <contour>
        <pt x="284" y="368" on="1"/>
        <pt x="700" y="368" on="1"/>
        <pt x="700" y="1447" on="1"/>
        <pt x="284" y="1447" on="1"/>
      </contour>
    </TTGlyph>
    <TTGlyph name="afii57509" xMin="142" yMin="226" xMax="842" yMax="1588">
      <contour>
        <pt x="142" y="226" on="1"/>
        <pt x="142" y="1588" on="1"/>
        <pt x="842" y="1588" on="1"/>
        <pt x="842" y="226" on="1"/>
      </contour>
      <contour>
        <pt x="284" y="368" on="1"/>
        <pt x="700" y="368" on="1"/>
        <pt x="700" y="1447" on="1"/>
        <pt x="284" y="1447" on="1"/>
      </contour>
    </TTGlyph>
    <TTGlyph name="afii57511" xMin="142" yMin="226" xMax="842" yMax="1588">
      <contour>
        <pt x="142" y="226" on="1"/>
        <pt x="142" y="1588" on="1"/>
        <pt x="842" y="1588" on="1"/>
        <pt x="842" y="226" on="1"/>
      </contour>
      <contour>
        <pt x="284" y="368" on="1"/>
        <pt x="700" y="368" on="1"/>
        <pt x="700" y="1447" on="1"/>
        <pt x="284" y="1447" on="1"/>
      </contour>
    </TTGlyph>
    <TTGlyph name="afii57512" xMin="142" yMin="226" xMax="842" yMax="1588">
      <contour>
        <pt x="142" y="226" on="1"/>
        <pt x="142" y="1588" on="1"/>
        <pt x="842" y="1588" on="1"/>
        <pt x="842" y="226" on="1"/>
      </contour>
      <contour>
        <pt x="284" y="368" on="1"/>
        <pt x="700" y="368" on="1"/>
        <pt x="700" y="1447" on="1"/>
        <pt x="284" y="1447" on="1"/>
      </contour>
    </TTGlyph>
    <TTGlyph name="afii57513" xMin="142" yMin="226" xMax="842" yMax="1588">
      <contour>
        <pt x="142" y="226" on="1"/>
        <pt x="142" y="1588" on="1"/>
        <pt x="842" y="1588" on="1"/>
        <pt x="842" y="226" on="1"/>
      </contour>
      <contour>
        <pt x="284" y="368" on="1"/>
        <pt x="700" y="368" on="1"/>
        <pt x="700" y="1447" on="1"/>
        <pt x="284" y="1447" on="1"/>
      </contour>
    </TTGlyph>
    <TTGlyph name="afii57514" xMin="142" yMin="226" xMax="842" yMax="1588">
      <contour>
        <pt x="142" y="226" on="1"/>
        <pt x="142" y="1588" on="1"/>
        <pt x="842" y="1588" on="1"/>
        <pt x="842" y="226" on="1"/>
      </contour>
      <contour>
        <pt x="284" y="368" on="1"/>
        <pt x="700" y="368" on="1"/>
        <pt x="700" y="1447" on="1"/>
        <pt x="284" y="1447" on="1"/>
      </contour>
    </TTGlyph>
    <TTGlyph name="afii57519" xMin="142" yMin="226" xMax="842" yMax="1588">
      <contour>
        <pt x="142" y="226" on="1"/>
        <pt x="142" y="1588" on="1"/>
        <pt x="842" y="1588" on="1"/>
        <pt x="842" y="226" on="1"/>
      </contour>
      <contour>
        <pt x="284" y="368" on="1"/>
        <pt x="700" y="368" on="1"/>
        <pt x="700" y="1447" on="1"/>
        <pt x="284" y="1447" on="1"/>
      </contour>
    </TTGlyph>
    <TTGlyph name="afii57534" xMin="142" yMin="226" xMax="842" yMax="1588">
      <contour>
        <pt x="142" y="226" on="1"/>
        <pt x="142" y="1588" on="1"/>
        <pt x="842" y="1588" on="1"/>
        <pt x="842" y="226" on="1"/>
      </contour>
      <contour>
        <pt x="284" y="368" on="1"/>
        <pt x="700" y="368" on="1"/>
        <pt x="700" y="1447" on="1"/>
        <pt x="284" y="1447" on="1"/>
      </contour>
    </TTGlyph>
    <TTGlyph name="afii63167" xMin="142" yMin="226" xMax="842" yMax="1588">
      <contour>
        <pt x="142" y="226" on="1"/>
        <pt x="142" y="1588" on="1"/>
        <pt x="842" y="1588" on="1"/>
        <pt x="842" y="226" on="1"/>
      </contour>
      <contour>
        <pt x="284" y="368" on="1"/>
        <pt x="700" y="368" on="1"/>
        <pt x="700" y="1447" on="1"/>
        <pt x="284" y="1447" on="1"/>
      </contour>
    </TTGlyph>
    <TTGlyph name="alefmaksurainitial" xMin="142" yMin="226" xMax="842" yMax="1588">
      <contour>
        <pt x="142" y="226" on="1"/>
        <pt x="142" y="1588" on="1"/>
        <pt x="842" y="1588" on="1"/>
        <pt x="842" y="226" on="1"/>
      </contour>
      <contour>
        <pt x="284" y="368" on="1"/>
        <pt x="700" y="368" on="1"/>
        <pt x="700" y="1447" on="1"/>
        <pt x="284" y="1447" on="1"/>
      </contour>
    </TTGlyph>
    <TTGlyph name="alefwaslafinalarabic" xMin="142" yMin="226" xMax="842" yMax="1588">
      <contour>
        <pt x="142" y="226" on="1"/>
        <pt x="142" y="1588" on="1"/>
        <pt x="842" y="1588" on="1"/>
        <pt x="842" y="226" on="1"/>
      </contour>
      <contour>
        <pt x="284" y="368" on="1"/>
        <pt x="700" y="368" on="1"/>
        <pt x="700" y="1447" on="1"/>
        <pt x="284" y="1447" on="1"/>
      </contour>
    </TTGlyph>
    <TTGlyph name="ampersand" xMin="142" yMin="226" xMax="842" yMax="1588">
      <contour>
        <pt x="142" y="226" on="1"/>
        <pt x="142" y="1588" on="1"/>
        <pt x="842" y="1588" on="1"/>
        <pt x="842" y="226" on="1"/>
      </contour>
      <contour>
        <pt x="284" y="368" on="1"/>
        <pt x="700" y="368" on="1"/>
        <pt x="700" y="1447" on="1"/>
        <pt x="284" y="1447" on="1"/>
      </contour>
    </TTGlyph>
    <TTGlyph name="asterisk" xMin="142" yMin="226" xMax="842" yMax="1588">
      <contour>
        <pt x="142" y="226" on="1"/>
        <pt x="142" y="1588" on="1"/>
        <pt x="842" y="1588" on="1"/>
        <pt x="842" y="226" on="1"/>
      </contour>
      <contour>
        <pt x="284" y="368" on="1"/>
        <pt x="700" y="368" on="1"/>
        <pt x="700" y="1447" on="1"/>
        <pt x="284" y="1447" on="1"/>
      </contour>
    </TTGlyph>
    <TTGlyph name="behmeemisolatedarabic" xMin="142" yMin="226" xMax="842" yMax="1588">
      <contour>
        <pt x="142" y="226" on="1"/>
        <pt x="142" y="1588" on="1"/>
        <pt x="842" y="1588" on="1"/>
        <pt x="842" y="226" on="1"/>
      </contour>
      <contour>
        <pt x="284" y="368" on="1"/>
        <pt x="700" y="368" on="1"/>
        <pt x="700" y="1447" on="1"/>
        <pt x="284" y="1447" on="1"/>
      </contour>
    </TTGlyph>
    <TTGlyph name="behnoonfinalarabic" xMin="142" yMin="226" xMax="842" yMax="1588">
      <contour>
        <pt x="142" y="226" on="1"/>
        <pt x="142" y="1588" on="1"/>
        <pt x="842" y="1588" on="1"/>
        <pt x="842" y="226" on="1"/>
      </contour>
      <contour>
        <pt x="284" y="368" on="1"/>
        <pt x="700" y="368" on="1"/>
        <pt x="700" y="1447" on="1"/>
        <pt x="284" y="1447" on="1"/>
      </contour>
    </TTGlyph>
    <TTGlyph name="colon" xMin="142" yMin="226" xMax="842" yMax="1588">
      <contour>
        <pt x="142" y="226" on="1"/>
        <pt x="142" y="1588" on="1"/>
        <pt x="842" y="1588" on="1"/>
        <pt x="842" y="226" on="1"/>
      </contour>
      <contour>
        <pt x="284" y="368" on="1"/>
        <pt x="700" y="368" on="1"/>
        <pt x="700" y="1447" on="1"/>
        <pt x="284" y="1447" on="1"/>
      </contour>
    </TTGlyph>
    <TTGlyph name="dagger" xMin="142" yMin="226" xMax="842" yMax="1588">
      <contour>
        <pt x="142" y="226" on="1"/>
        <pt x="142" y="1588" on="1"/>
        <pt x="842" y="1588" on="1"/>
        <pt x="842" y="226" on="1"/>
      </contour>
      <contour>
        <pt x="284" y="368" on="1"/>
        <pt x="700" y="368" on="1"/>
        <pt x="700" y="1447" on="1"/>
        <pt x="284" y="1447" on="1"/>
      </contour>
    </TTGlyph>
    <TTGlyph name="dalringfinal" xMin="142" yMin="226" xMax="842" yMax="1588">
      <contour>
        <pt x="142" y="226" on="1"/>
        <pt x="142" y="1588" on="1"/>
        <pt x="842" y="1588" on="1"/>
        <pt x="842" y="226" on="1"/>
      </contour>
      <contour>
        <pt x="284" y="368" on="1"/>
        <pt x="700" y="368" on="1"/>
        <pt x="700" y="1447" on="1"/>
        <pt x="284" y="1447" on="1"/>
      </contour>
    </TTGlyph>
    <TTGlyph name="ddalfinalarabic" xMin="142" yMin="226" xMax="842" yMax="1588">
      <contour>
        <pt x="142" y="226" on="1"/>
        <pt x="142" y="1588" on="1"/>
        <pt x="842" y="1588" on="1"/>
        <pt x="842" y="226" on="1"/>
      </contour>
      <contour>
        <pt x="284" y="368" on="1"/>
        <pt x="700" y="368" on="1"/>
        <pt x="700" y="1447" on="1"/>
        <pt x="284" y="1447" on="1"/>
      </contour>
    </TTGlyph>
    <TTGlyph name="divide" xMin="142" yMin="226" xMax="842" yMax="1588">
      <contour>
        <pt x="142" y="226" on="1"/>
        <pt x="142" y="1588" on="1"/>
        <pt x="842" y="1588" on="1"/>
        <pt x="842" y="226" on="1"/>
      </contour>
      <contour>
        <pt x="284" y="368" on="1"/>
        <pt x="700" y="368" on="1"/>
        <pt x="700" y="1447" on="1"/>
        <pt x="284" y="1447" on="1"/>
      </contour>
    </TTGlyph>
    <TTGlyph name="dollar" xMin="142" yMin="226" xMax="842" yMax="1588">
      <contour>
        <pt x="142" y="226" on="1"/>
        <pt x="142" y="1588" on="1"/>
        <pt x="842" y="1588" on="1"/>
        <pt x="842" y="226" on="1"/>
      </contour>
      <contour>
        <pt x="284" y="368" on="1"/>
        <pt x="700" y="368" on="1"/>
        <pt x="700" y="1447" on="1"/>
        <pt x="284" y="1447" on="1"/>
      </contour>
    </TTGlyph>
    <TTGlyph name="dotlessyehfinalarabic" xMin="142" yMin="226" xMax="842" yMax="1588">
      <contour>
        <pt x="142" y="226" on="1"/>
        <pt x="142" y="1588" on="1"/>
        <pt x="842" y="1588" on="1"/>
        <pt x="842" y="226" on="1"/>
      </contour>
      <contour>
        <pt x="284" y="368" on="1"/>
        <pt x="700" y="368" on="1"/>
        <pt x="700" y="1447" on="1"/>
        <pt x="284" y="1447" on="1"/>
      </contour>
    </TTGlyph>
    <TTGlyph name="dotlessyehinitialarabic" xMin="142" yMin="226" xMax="842" yMax="1588">
      <contour>
        <pt x="142" y="226" on="1"/>
        <pt x="142" y="1588" on="1"/>
        <pt x="842" y="1588" on="1"/>
        <pt x="842" y="226" on="1"/>
      </contour>
      <contour>
        <pt x="284" y="368" on="1"/>
        <pt x="700" y="368" on="1"/>
        <pt x="700" y="1447" on="1"/>
        <pt x="284" y="1447" on="1"/>
      </contour>
    </TTGlyph>
    <TTGlyph name="dotlessyehmedialarabic" xMin="142" yMin="226" xMax="842" yMax="1588">
      <contour>
        <pt x="142" y="226" on="1"/>
        <pt x="142" y="1588" on="1"/>
        <pt x="842" y="1588" on="1"/>
        <pt x="842" y="226" on="1"/>
      </contour>
      <contour>
        <pt x="284" y="368" on="1"/>
        <pt x="700" y="368" on="1"/>
        <pt x="700" y="1447" on="1"/>
        <pt x="284" y="1447" on="1"/>
      </contour>
    </TTGlyph>
    <TTGlyph name="elefmaksuramedial" xMin="142" yMin="226" xMax="842" yMax="1588">
      <contour>
        <pt x="142" y="226" on="1"/>
        <pt x="142" y="1588" on="1"/>
        <pt x="842" y="1588" on="1"/>
        <pt x="842" y="226" on="1"/>
      </contour>
      <contour>
        <pt x="284" y="368" on="1"/>
        <pt x="700" y="368" on="1"/>
        <pt x="700" y="1447" on="1"/>
        <pt x="284" y="1447" on="1"/>
      </contour>
    </TTGlyph>
    <TTGlyph name="ellipsis" xMin="142" yMin="226" xMax="842" yMax="1588">
      <contour>
        <pt x="142" y="226" on="1"/>
        <pt x="142" y="1588" on="1"/>
        <pt x="842" y="1588" on="1"/>
        <pt x="842" y="226" on="1"/>
      </contour>
      <contour>
        <pt x="284" y="368" on="1"/>
        <pt x="700" y="368" on="1"/>
        <pt x="700" y="1447" on="1"/>
        <pt x="284" y="1447" on="1"/>
      </contour>
    </TTGlyph>
    <TTGlyph name="emdash" xMin="137" yMin="1556" xMax="2185" yMax="2108">
      <contour>
        <pt x="2185" y="1667" on="1"/>
        <pt x="2185" y="1639" on="0"/>
        <pt x="2136" y="1631" on="1"/>
        <pt x="2074" y="1625" on="0"/>
        <pt x="1685" y="1585" on="1"/>
        <pt x="1407" y="1556" on="0"/>
        <pt x="1333" y="1556" on="1"/>
        <pt x="137" y="1556" on="0"/>
        <pt x="137" y="1792" on="1"/>
        <pt x="137" y="1822" on="0"/>
        <pt x="272" y="1897" on="1"/>
        <pt x="407" y="1969" on="0"/>
        <pt x="395" y="1987" on="1"/>
        <pt x="383" y="1987" on="0"/>
        <pt x="239" y="1966" on="0"/>
        <pt x="190" y="1966" on="1"/>
        <pt x="182" y="1968" on="0"/>
        <pt x="182" y="1969" on="1"/>
        <pt x="137" y="1978" on="0"/>
        <pt x="137" y="1996" on="1"/>
        <pt x="137" y="2025" on="0"/>
        <pt x="358" y="2091" on="0"/>
        <pt x="489" y="2095" on="1"/>
        <pt x="854" y="2096" on="0"/>
        <pt x="1808" y="2108" on="1"/>
        <pt x="1808" y="2072" on="1"/>
        <pt x="1812" y="2059" on="0"/>
        <pt x="1616" y="2016" on="0"/>
        <pt x="1546" y="2009" on="1"/>
        <pt x="1390" y="2004" on="0"/>
        <pt x="1087" y="1982" on="1"/>
        <pt x="473" y="1919" on="0"/>
        <pt x="473" y="1802" on="1"/>
        <pt x="473" y="1659" on="0"/>
        <pt x="1308" y="1659" on="1"/>
        <pt x="1337" y="1659" on="0"/>
        <pt x="2013" y="1667" on="0"/>
      </contour>
      <contour>
        <pt x="1390" y="1823" on="1"/>
        <pt x="1390" y="1797" on="0"/>
        <pt x="1255" y="1761" on="1"/>
        <pt x="977" y="1774" on="0"/>
        <pt x="891" y="1828" on="1"/>
        <pt x="940" y="1840" on="0"/>
        <pt x="940" y="1872" on="1"/>
        <pt x="952" y="1872" on="0"/>
        <pt x="1059" y="1883" on="0"/>
        <pt x="1120" y="1883" on="1"/>
        <pt x="1390" y="1883" on="0"/>
      </contour>
    </TTGlyph>
    <TTGlyph name="endash" xMin="137" yMin="1556" xMax="1161" yMax="2108">
      <contour>
        <pt x="1161" y="1667" on="1"/>
        <pt x="1161" y="1639" on="0"/>
        <pt x="1136" y="1631" on="1"/>
        <pt x="1106" y="1625" on="0"/>
        <pt x="911" y="1585" on="1"/>
        <pt x="772" y="1556" on="0"/>
        <pt x="735" y="1556" on="1"/>
        <pt x="137" y="1556" on="0"/>
        <pt x="137" y="1792" on="1"/>
        <pt x="137" y="1822" on="0"/>
        <pt x="205" y="1897" on="1"/>
        <pt x="272" y="1969" on="0"/>
        <pt x="266" y="1987" on="1"/>
        <pt x="260" y="1987" on="0"/>
        <pt x="188" y="1966" on="0"/>
        <pt x="164" y="1966" on="1"/>
        <pt x="160" y="1968" on="0"/>
        <pt x="160" y="1969" on="1"/>
        <pt x="137" y="1978" on="0"/>
        <pt x="137" y="1996" on="1"/>
        <pt x="137" y="2025" on="0"/>
        <pt x="248" y="2091" on="0"/>
        <pt x="313" y="2095" on="1"/>
        <pt x="495" y="2096" on="0"/>
        <pt x="973" y="2108" on="1"/>
        <pt x="973" y="2072" on="1"/>
        <pt x="975" y="2059" on="0"/>
        <pt x="876" y="2016" on="0"/>
        <pt x="842" y="2009" on="1"/>
        <pt x="764" y="2004" on="0"/>
        <pt x="612" y="1982" on="1"/>
        <pt x="305" y="1919" on="0"/>
        <pt x="305" y="1802" on="1"/>
        <pt x="305" y="1659" on="0"/>
        <pt x="723" y="1659" on="1"/>
        <pt x="737" y="1659" on="0"/>
        <pt x="1075" y="1667" on="0"/>
      </contour>
      <contour>
        <pt x="764" y="1823" on="1"/>
        <pt x="764" y="1797" on="0"/>
        <pt x="696" y="1761" on="1"/>
        <pt x="557" y="1774" on="0"/>
        <pt x="514" y="1828" on="1"/>
        <pt x="538" y="1840" on="0"/>
        <pt x="538" y="1872" on="1"/>
        <pt x="545" y="1872" on="0"/>
        <pt x="598" y="1883" on="0"/>
        <pt x="629" y="1883" on="1"/>
        <pt x="764" y="1883" on="0"/>
      </contour>
    </TTGlyph>
    <TTGlyph name="equal" xMin="142" yMin="226" xMax="842" yMax="1588">
      <contour>
        <pt x="142" y="226" on="1"/>
        <pt x="142" y="1588" on="1"/>
        <pt x="842" y="1588" on="1"/>
        <pt x="842" y="226" on="1"/>
      </contour>
      <contour>
        <pt x="284" y="368" on="1"/>
        <pt x="700" y="368" on="1"/>
        <pt x="700" y="1447" on="1"/>
        <pt x="284" y="1447" on="1"/>
      </contour>
    </TTGlyph>
    <TTGlyph name="exclam" xMin="142" yMin="226" xMax="842" yMax="1588">
      <contour>
        <pt x="142" y="226" on="1"/>
        <pt x="142" y="1588" on="1"/>
        <pt x="842" y="1588" on="1"/>
        <pt x="842" y="226" on="1"/>
      </contour>
      <contour>
        <pt x="284" y="368" on="1"/>
        <pt x="700" y="368" on="1"/>
        <pt x="700" y="1447" on="1"/>
        <pt x="284" y="1447" on="1"/>
      </contour>
    </TTGlyph>
    <TTGlyph name="figuredash" xMin="137" yMin="1556" xMax="637" yMax="2108">
      <contour>
        <pt x="637" y="1667" on="1"/>
        <pt x="637" y="1639" on="0"/>
        <pt x="625" y="1631" on="1"/>
        <pt x="610" y="1625" on="0"/>
        <pt x="515" y="1585" on="1"/>
        <pt x="447" y="1556" on="0"/>
        <pt x="429" y="1556" on="1"/>
        <pt x="137" y="1556" on="0"/>
        <pt x="137" y="1792" on="1"/>
        <pt x="137" y="1822" on="0"/>
        <pt x="170" y="1897" on="1"/>
        <pt x="203" y="1969" on="0"/>
        <pt x="200" y="1987" on="1"/>
        <pt x="197" y="1987" on="0"/>
        <pt x="162" y="1966" on="0"/>
        <pt x="150" y="1966" on="1"/>
        <pt x="148" y="1968" on="0"/>
        <pt x="148" y="1969" on="1"/>
        <pt x="137" y="1978" on="0"/>
        <pt x="137" y="1996" on="1"/>
        <pt x="137" y="2025" on="0"/>
        <pt x="191" y="2091" on="0"/>
        <pt x="223" y="2095" on="1"/>
        <pt x="312" y="2096" on="0"/>
        <pt x="545" y="2108" on="1"/>
        <pt x="545" y="2072" on="1"/>
        <pt x="546" y="2059" on="0"/>
        <pt x="498" y="2016" on="0"/>
        <pt x="481" y="2009" on="1"/>
        <pt x="443" y="2004" on="0"/>
        <pt x="369" y="1982" on="1"/>
        <pt x="219" y="1919" on="0"/>
        <pt x="219" y="1802" on="1"/>
        <pt x="219" y="1659" on="0"/>
        <pt x="423" y="1659" on="1"/>
        <pt x="430" y="1659" on="0"/>
        <pt x="595" y="1667" on="0"/>
      </contour>
      <contour>
        <pt x="443" y="1823" on="1"/>
        <pt x="443" y="1797" on="0"/>
        <pt x="410" y="1761" on="1"/>
        <pt x="342" y="1774" on="0"/>
        <pt x="321" y="1828" on="1"/>
        <pt x="333" y="1840" on="0"/>
        <pt x="333" y="1872" on="1"/>
        <pt x="336" y="1872" on="0"/>
        <pt x="362" y="1883" on="0"/>
        <pt x="377" y="1883" on="1"/>
        <pt x="443" y="1883" on="0"/>
      </contour>
    </TTGlyph>
    <TTGlyph name="gaffinalarabic" xMin="142" yMin="226" xMax="842" yMax="1588">
      <contour>
        <pt x="142" y="226" on="1"/>
        <pt x="142" y="1588" on="1"/>
        <pt x="842" y="1588" on="1"/>
        <pt x="842" y="226" on="1"/>
      </contour>
      <contour>
        <pt x="284" y="368" on="1"/>
        <pt x="700" y="368" on="1"/>
        <pt x="700" y="1447" on="1"/>
        <pt x="284" y="1447" on="1"/>
      </contour>
    </TTGlyph>
    <TTGlyph name="gafinitialarabic" xMin="142" yMin="226" xMax="842" yMax="1588">
      <contour>
        <pt x="142" y="226" on="1"/>
        <pt x="142" y="1588" on="1"/>
        <pt x="842" y="1588" on="1"/>
        <pt x="842" y="226" on="1"/>
      </contour>
      <contour>
        <pt x="284" y="368" on="1"/>
        <pt x="700" y="368" on="1"/>
        <pt x="700" y="1447" on="1"/>
        <pt x="284" y="1447" on="1"/>
      </contour>
    </TTGlyph>
    <TTGlyph name="gafmedialarabic" xMin="142" yMin="226" xMax="842" yMax="1588">
      <contour>
        <pt x="142" y="226" on="1"/>
        <pt x="142" y="1588" on="1"/>
        <pt x="842" y="1588" on="1"/>
        <pt x="842" y="226" on="1"/>
      </contour>
      <contour>
        <pt x="284" y="368" on="1"/>
        <pt x="700" y="368" on="1"/>
        <pt x="700" y="1447" on="1"/>
        <pt x="284" y="1447" on="1"/>
      </contour>
    </TTGlyph>
    <TTGlyph name="glyph41" xMin="142" yMin="226" xMax="842" yMax="1588">
      <contour>
        <pt x="142" y="226" on="1"/>
        <pt x="142" y="1588" on="1"/>
        <pt x="842" y="1588" on="1"/>
        <pt x="842" y="226" on="1"/>
      </contour>
      <contour>
        <pt x="284" y="368" on="1"/>
        <pt x="700" y="368" on="1"/>
        <pt x="700" y="1447" on="1"/>
        <pt x="284" y="1447" on="1"/>
      </contour>
    </TTGlyph>
    <TTGlyph name="glyph42" xMin="142" yMin="226" xMax="842" yMax="1588">
      <contour>
        <pt x="142" y="226" on="1"/>
        <pt x="142" y="1588" on="1"/>
        <pt x="842" y="1588" on="1"/>
        <pt x="842" y="226" on="1"/>
      </contour>
      <contour>
        <pt x="284" y="368" on="1"/>
        <pt x="700" y="368" on="1"/>
        <pt x="700" y="1447" on="1"/>
        <pt x="284" y="1447" on="1"/>
      </contour>
    </TTGlyph>
    <TTGlyph name="glyph43" xMin="142" yMin="226" xMax="842" yMax="1588">
      <contour>
        <pt x="142" y="226" on="1"/>
        <pt x="142" y="1588" on="1"/>
        <pt x="842" y="1588" on="1"/>
        <pt x="842" y="226" on="1"/>
      </contour>
      <contour>
        <pt x="284" y="368" on="1"/>
        <pt x="700" y="368" on="1"/>
        <pt x="700" y="1447" on="1"/>
        <pt x="284" y="1447" on="1"/>
      </contour>
    </TTGlyph>
    <TTGlyph name="glyph44" xMin="142" yMin="226" xMax="842" yMax="1588">
      <contour>
        <pt x="142" y="226" on="1"/>
        <pt x="142" y="1588" on="1"/>
        <pt x="842" y="1588" on="1"/>
        <pt x="842" y="226" on="1"/>
      </contour>
      <contour>
        <pt x="284" y="368" on="1"/>
        <pt x="700" y="368" on="1"/>
        <pt x="700" y="1447" on="1"/>
        <pt x="284" y="1447" on="1"/>
      </contour>
    </TTGlyph>
    <TTGlyph name="glyph45" xMin="142" yMin="226" xMax="842" yMax="1588">
      <contour>
        <pt x="142" y="226" on="1"/>
        <pt x="142" y="1588" on="1"/>
        <pt x="842" y="1588" on="1"/>
        <pt x="842" y="226" on="1"/>
      </contour>
      <contour>
        <pt x="284" y="368" on="1"/>
        <pt x="700" y="368" on="1"/>
        <pt x="700" y="1447" on="1"/>
        <pt x="284" y="1447" on="1"/>
      </contour>
    </TTGlyph>
    <TTGlyph name="glyph46" xMin="142" yMin="226" xMax="842" yMax="1588">
      <contour>
        <pt x="142" y="226" on="1"/>
        <pt x="142" y="1588" on="1"/>
        <pt x="842" y="1588" on="1"/>
        <pt x="842" y="226" on="1"/>
      </contour>
      <contour>
        <pt x="284" y="368" on="1"/>
        <pt x="700" y="368" on="1"/>
        <pt x="700" y="1447" on="1"/>
        <pt x="284" y="1447" on="1"/>
      </contour>
    </TTGlyph>
    <TTGlyph name="glyph47" xMin="142" yMin="226" xMax="842" yMax="1588">
      <contour>
        <pt x="142" y="226" on="1"/>
        <pt x="142" y="1588" on="1"/>
        <pt x="842" y="1588" on="1"/>
        <pt x="842" y="226" on="1"/>
      </contour>
      <contour>
        <pt x="284" y="368" on="1"/>
        <pt x="700" y="368" on="1"/>
        <pt x="700" y="1447" on="1"/>
        <pt x="284" y="1447" on="1"/>
      </contour>
    </TTGlyph>
    <TTGlyph name="glyph48" xMin="142" yMin="226" xMax="842" yMax="1588">
      <contour>
        <pt x="142" y="226" on="1"/>
        <pt x="142" y="1588" on="1"/>
        <pt x="842" y="1588" on="1"/>
        <pt x="842" y="226" on="1"/>
      </contour>
      <contour>
        <pt x="284" y="368" on="1"/>
        <pt x="700" y="368" on="1"/>
        <pt x="700" y="1447" on="1"/>
        <pt x="284" y="1447" on="1"/>
      </contour>
    </TTGlyph>
    <TTGlyph name="glyph50" xMin="142" yMin="226" xMax="842" yMax="1588">
      <contour>
        <pt x="142" y="226" on="1"/>
        <pt x="142" y="1588" on="1"/>
        <pt x="842" y="1588" on="1"/>
        <pt x="842" y="226" on="1"/>
      </contour>
      <contour>
        <pt x="284" y="368" on="1"/>
        <pt x="700" y="368" on="1"/>
        <pt x="700" y="1447" on="1"/>
        <pt x="284" y="1447" on="1"/>
      </contour>
    </TTGlyph>
    <TTGlyph name="glyph51" xMin="142" yMin="226" xMax="842" yMax="1588">
      <contour>
        <pt x="142" y="226" on="1"/>
        <pt x="142" y="1588" on="1"/>
        <pt x="842" y="1588" on="1"/>
        <pt x="842" y="226" on="1"/>
      </contour>
      <contour>
        <pt x="284" y="368" on="1"/>
        <pt x="700" y="368" on="1"/>
        <pt x="700" y="1447" on="1"/>
        <pt x="284" y="1447" on="1"/>
      </contour>
    </TTGlyph>
    <TTGlyph name="greater" xMin="142" yMin="226" xMax="842" yMax="1588">
      <contour>
        <pt x="142" y="226" on="1"/>
        <pt x="142" y="1588" on="1"/>
        <pt x="842" y="1588" on="1"/>
        <pt x="842" y="226" on="1"/>
      </contour>
      <contour>
        <pt x="284" y="368" on="1"/>
        <pt x="700" y="368" on="1"/>
        <pt x="700" y="1447" on="1"/>
        <pt x="284" y="1447" on="1"/>
      </contour>
    </TTGlyph>
    <TTGlyph name="hahhamzabovefinal" xMin="142" yMin="226" xMax="842" yMax="1588">
      <contour>
        <pt x="142" y="226" on="1"/>
        <pt x="142" y="1588" on="1"/>
        <pt x="842" y="1588" on="1"/>
        <pt x="842" y="226" on="1"/>
      </contour>
      <contour>
        <pt x="284" y="368" on="1"/>
        <pt x="700" y="368" on="1"/>
        <pt x="700" y="1447" on="1"/>
        <pt x="284" y="1447" on="1"/>
      </contour>
    </TTGlyph>
    <TTGlyph name="hahhamzaboveinitial" xMin="142" yMin="226" xMax="842" yMax="1588">
      <contour>
        <pt x="142" y="226" on="1"/>
        <pt x="142" y="1588" on="1"/>
        <pt x="842" y="1588" on="1"/>
        <pt x="842" y="226" on="1"/>
      </contour>
      <contour>
        <pt x="284" y="368" on="1"/>
        <pt x="700" y="368" on="1"/>
        <pt x="700" y="1447" on="1"/>
        <pt x="284" y="1447" on="1"/>
      </contour>
    </TTGlyph>
    <TTGlyph name="hahhamzabovemedial" xMin="142" yMin="226" xMax="842" yMax="1588">
      <contour>
        <pt x="142" y="226" on="1"/>
        <pt x="142" y="1588" on="1"/>
        <pt x="842" y="1588" on="1"/>
        <pt x="842" y="226" on="1"/>
      </contour>
      <contour>
        <pt x="284" y="368" on="1"/>
        <pt x="700" y="368" on="1"/>
        <pt x="700" y="1447" on="1"/>
        <pt x="284" y="1447" on="1"/>
      </contour>
    </TTGlyph>
    <TTGlyph name="hahthreedotsabovefinal" xMin="142" yMin="226" xMax="842" yMax="1588">
      <contour>
        <pt x="142" y="226" on="1"/>
        <pt x="142" y="1588" on="1"/>
        <pt x="842" y="1588" on="1"/>
        <pt x="842" y="226" on="1"/>
      </contour>
      <contour>
        <pt x="284" y="368" on="1"/>
        <pt x="700" y="368" on="1"/>
        <pt x="700" y="1447" on="1"/>
        <pt x="284" y="1447" on="1"/>
      </contour>
    </TTGlyph>
    <TTGlyph name="hahthreedotsaboveinitial" xMin="142" yMin="226" xMax="842" yMax="1588">
      <contour>
        <pt x="142" y="226" on="1"/>
        <pt x="142" y="1588" on="1"/>
        <pt x="842" y="1588" on="1"/>
        <pt x="842" y="226" on="1"/>
      </contour>
      <contour>
        <pt x="284" y="368" on="1"/>
        <pt x="700" y="368" on="1"/>
        <pt x="700" y="1447" on="1"/>
        <pt x="284" y="1447" on="1"/>
      </contour>
    </TTGlyph>
    <TTGlyph name="hahthreedotsabovemedial" xMin="142" yMin="226" xMax="842" yMax="1588">
      <contour>
        <pt x="142" y="226" on="1"/>
        <pt x="142" y="1588" on="1"/>
        <pt x="842" y="1588" on="1"/>
        <pt x="842" y="226" on="1"/>
      </contour>
      <contour>
        <pt x="284" y="368" on="1"/>
        <pt x="700" y="368" on="1"/>
        <pt x="700" y="1447" on="1"/>
        <pt x="284" y="1447" on="1"/>
      </contour>
    </TTGlyph>
    <TTGlyph name="hehdoachashmeefinalarabic" xMin="142" yMin="226" xMax="842" yMax="1588">
      <contour>
        <pt x="142" y="226" on="1"/>
        <pt x="142" y="1588" on="1"/>
        <pt x="842" y="1588" on="1"/>
        <pt x="842" y="226" on="1"/>
      </contour>
      <contour>
        <pt x="284" y="368" on="1"/>
        <pt x="700" y="368" on="1"/>
        <pt x="700" y="1447" on="1"/>
        <pt x="284" y="1447" on="1"/>
      </contour>
    </TTGlyph>
    <TTGlyph name="hehdoachashmeeinitialarabic" xMin="142" yMin="226" xMax="842" yMax="1588">
      <contour>
        <pt x="142" y="226" on="1"/>
        <pt x="142" y="1588" on="1"/>
        <pt x="842" y="1588" on="1"/>
        <pt x="842" y="226" on="1"/>
      </contour>
      <contour>
        <pt x="284" y="368" on="1"/>
        <pt x="700" y="368" on="1"/>
        <pt x="700" y="1447" on="1"/>
        <pt x="284" y="1447" on="1"/>
      </contour>
    </TTGlyph>
    <TTGlyph name="hehdoachashmeemedialarabic" xMin="142" yMin="226" xMax="842" yMax="1588">
      <contour>
        <pt x="142" y="226" on="1"/>
        <pt x="142" y="1588" on="1"/>
        <pt x="842" y="1588" on="1"/>
        <pt x="842" y="226" on="1"/>
      </contour>
      <contour>
        <pt x="284" y="368" on="1"/>
        <pt x="700" y="368" on="1"/>
        <pt x="700" y="1447" on="1"/>
        <pt x="284" y="1447" on="1"/>
      </contour>
    </TTGlyph>
    <TTGlyph name="hehfinalaltonearabic" xMin="142" yMin="226" xMax="842" yMax="1588">
      <contour>
        <pt x="142" y="226" on="1"/>
        <pt x="142" y="1588" on="1"/>
        <pt x="842" y="1588" on="1"/>
        <pt x="842" y="226" on="1"/>
      </contour>
      <contour>
        <pt x="284" y="368" on="1"/>
        <pt x="700" y="368" on="1"/>
        <pt x="700" y="1447" on="1"/>
        <pt x="284" y="1447" on="1"/>
      </contour>
    </TTGlyph>
    <TTGlyph name="hehhamzaabovefinalarabic" xMin="142" yMin="226" xMax="842" yMax="1588">
      <contour>
        <pt x="142" y="226" on="1"/>
        <pt x="142" y="1588" on="1"/>
        <pt x="842" y="1588" on="1"/>
        <pt x="842" y="226" on="1"/>
      </contour>
      <contour>
        <pt x="284" y="368" on="1"/>
        <pt x="700" y="368" on="1"/>
        <pt x="700" y="1447" on="1"/>
        <pt x="284" y="1447" on="1"/>
      </contour>
    </TTGlyph>
    <TTGlyph name="hehinitialaltonearabic" xMin="142" yMin="226" xMax="842" yMax="1588">
      <contour>
        <pt x="142" y="226" on="1"/>
        <pt x="142" y="1588" on="1"/>
        <pt x="842" y="1588" on="1"/>
        <pt x="842" y="226" on="1"/>
      </contour>
      <contour>
        <pt x="284" y="368" on="1"/>
        <pt x="700" y="368" on="1"/>
        <pt x="700" y="1447" on="1"/>
        <pt x="284" y="1447" on="1"/>
      </contour>
    </TTGlyph>
    <TTGlyph name="hehmedialaltonearabic" xMin="142" yMin="226" xMax="842" yMax="1588">
      <contour>
        <pt x="142" y="226" on="1"/>
        <pt x="142" y="1588" on="1"/>
        <pt x="842" y="1588" on="1"/>
        <pt x="842" y="226" on="1"/>
      </contour>
      <contour>
        <pt x="284" y="368" on="1"/>
        <pt x="700" y="368" on="1"/>
        <pt x="700" y="1447" on="1"/>
        <pt x="284" y="1447" on="1"/>
      </contour>
    </TTGlyph>
    <TTGlyph name="hyphen" xMin="137" yMin="1556" xMax="637" yMax="2108">
      <contour>
        <pt x="637" y="1667" on="1"/>
        <pt x="637" y="1639" on="0"/>
        <pt x="625" y="1631" on="1"/>
        <pt x="610" y="1625" on="0"/>
        <pt x="515" y="1585" on="1"/>
        <pt x="447" y="1556" on="0"/>
        <pt x="429" y="1556" on="1"/>
        <pt x="137" y="1556" on="0"/>
        <pt x="137" y="1792" on="1"/>
        <pt x="137" y="1822" on="0"/>
        <pt x="170" y="1897" on="1"/>
        <pt x="203" y="1969" on="0"/>
        <pt x="200" y="1987" on="1"/>
        <pt x="197" y="1987" on="0"/>
        <pt x="162" y="1966" on="0"/>
        <pt x="150" y="1966" on="1"/>
        <pt x="148" y="1968" on="0"/>
        <pt x="148" y="1969" on="1"/>
        <pt x="137" y="1978" on="0"/>
        <pt x="137" y="1996" on="1"/>
        <pt x="137" y="2025" on="0"/>
        <pt x="191" y="2091" on="0"/>
        <pt x="223" y="2095" on="1"/>
        <pt x="312" y="2096" on="0"/>
        <pt x="545" y="2108" on="1"/>
        <pt x="545" y="2072" on="1"/>
        <pt x="546" y="2059" on="0"/>
        <pt x="498" y="2016" on="0"/>
        <pt x="481" y="2009" on="1"/>
        <pt x="443" y="2004" on="0"/>
        <pt x="369" y="1982" on="1"/>
        <pt x="219" y="1919" on="0"/>
        <pt x="219" y="1802" on="1"/>
        <pt x="219" y="1659" on="0"/>
        <pt x="423" y="1659" on="1"/>
        <pt x="430" y="1659" on="0"/>
        <pt x="595" y="1667" on="0"/>
      </contour>
      <contour>
        <pt x="443" y="1823" on="1"/>
        <pt x="443" y="1797" on="0"/>
        <pt x="410" y="1761" on="1"/>
        <pt x="342" y="1774" on="0"/>
        <pt x="321" y="1828" on="1"/>
        <pt x="333" y="1840" on="0"/>
        <pt x="333" y="1872" on="1"/>
        <pt x="336" y="1872" on="0"/>
        <pt x="362" y="1883" on="0"/>
        <pt x="377" y="1883" on="1"/>
        <pt x="443" y="1883" on="0"/>
      </contour>
    </TTGlyph>
    <TTGlyph name="irghizufinal" xMin="142" yMin="226" xMax="842" yMax="1588">
      <contour>
        <pt x="142" y="226" on="1"/>
        <pt x="142" y="1588" on="1"/>
        <pt x="842" y="1588" on="1"/>
        <pt x="842" y="226" on="1"/>
      </contour>
      <contour>
        <pt x="284" y="368" on="1"/>
        <pt x="700" y="368" on="1"/>
        <pt x="700" y="1447" on="1"/>
        <pt x="284" y="1447" on="1"/>
      </contour>
    </TTGlyph>
    <TTGlyph name="jehfinalarabic" xMin="142" yMin="226" xMax="842" yMax="1588">
      <contour>
        <pt x="142" y="226" on="1"/>
        <pt x="142" y="1588" on="1"/>
        <pt x="842" y="1588" on="1"/>
        <pt x="842" y="226" on="1"/>
      </contour>
      <contour>
        <pt x="284" y="368" on="1"/>
        <pt x="700" y="368" on="1"/>
        <pt x="700" y="1447" on="1"/>
        <pt x="284" y="1447" on="1"/>
      </contour>
    </TTGlyph>
    <TTGlyph name="kafringfinal" xMin="142" yMin="226" xMax="842" yMax="1588">
      <contour>
        <pt x="142" y="226" on="1"/>
        <pt x="142" y="1588" on="1"/>
        <pt x="842" y="1588" on="1"/>
        <pt x="842" y="226" on="1"/>
      </contour>
      <contour>
        <pt x="284" y="368" on="1"/>
        <pt x="700" y="368" on="1"/>
        <pt x="700" y="1447" on="1"/>
        <pt x="284" y="1447" on="1"/>
      </contour>
    </TTGlyph>
    <TTGlyph name="kafringinitial" xMin="142" yMin="226" xMax="842" yMax="1588">
      <contour>
        <pt x="142" y="226" on="1"/>
        <pt x="142" y="1588" on="1"/>
        <pt x="842" y="1588" on="1"/>
        <pt x="842" y="226" on="1"/>
      </contour>
      <contour>
        <pt x="284" y="368" on="1"/>
        <pt x="700" y="368" on="1"/>
        <pt x="700" y="1447" on="1"/>
        <pt x="284" y="1447" on="1"/>
      </contour>
    </TTGlyph>
    <TTGlyph name="kafringmedial" xMin="142" yMin="226" xMax="842" yMax="1588">
      <contour>
        <pt x="142" y="226" on="1"/>
        <pt x="142" y="1588" on="1"/>
        <pt x="842" y="1588" on="1"/>
        <pt x="842" y="226" on="1"/>
      </contour>
      <contour>
        <pt x="284" y="368" on="1"/>
        <pt x="700" y="368" on="1"/>
        <pt x="700" y="1447" on="1"/>
        <pt x="284" y="1447" on="1"/>
      </contour>
    </TTGlyph>
    <TTGlyph name="kashidaautoarabic" xMin="142" yMin="226" xMax="842" yMax="1588">
      <contour>
        <pt x="142" y="226" on="1"/>
        <pt x="142" y="1588" on="1"/>
        <pt x="842" y="1588" on="1"/>
        <pt x="842" y="226" on="1"/>
      </contour>
      <contour>
        <pt x="284" y="368" on="1"/>
        <pt x="700" y="368" on="1"/>
        <pt x="700" y="1447" on="1"/>
        <pt x="284" y="1447" on="1"/>
      </contour>
    </TTGlyph>
    <TTGlyph name="kashidaautonosidebearingarabic" xMin="142" yMin="226" xMax="842" yMax="1588">
      <contour>
        <pt x="142" y="226" on="1"/>
        <pt x="142" y="1588" on="1"/>
        <pt x="842" y="1588" on="1"/>
        <pt x="842" y="226" on="1"/>
      </contour>
      <contour>
        <pt x="284" y="368" on="1"/>
        <pt x="700" y="368" on="1"/>
        <pt x="700" y="1447" on="1"/>
        <pt x="284" y="1447" on="1"/>
      </contour>
    </TTGlyph>
    <TTGlyph name="kehehfinalarabic" xMin="142" yMin="226" xMax="842" yMax="1588">
      <contour>
        <pt x="142" y="226" on="1"/>
        <pt x="142" y="1588" on="1"/>
        <pt x="842" y="1588" on="1"/>
        <pt x="842" y="226" on="1"/>
      </contour>
      <contour>
        <pt x="284" y="368" on="1"/>
        <pt x="700" y="368" on="1"/>
        <pt x="700" y="1447" on="1"/>
        <pt x="284" y="1447" on="1"/>
      </contour>
    </TTGlyph>
    <TTGlyph name="kehehinitialarabic" xMin="142" yMin="226" xMax="842" yMax="1588">
      <contour>
        <pt x="142" y="226" on="1"/>
        <pt x="142" y="1588" on="1"/>
        <pt x="842" y="1588" on="1"/>
        <pt x="842" y="226" on="1"/>
      </contour>
      <contour>
        <pt x="284" y="368" on="1"/>
        <pt x="700" y="368" on="1"/>
        <pt x="700" y="1447" on="1"/>
        <pt x="284" y="1447" on="1"/>
      </contour>
    </TTGlyph>
    <TTGlyph name="kehehmedialarabic" xMin="142" yMin="226" xMax="842" yMax="1588">
      <contour>
        <pt x="142" y="226" on="1"/>
        <pt x="142" y="1588" on="1"/>
        <pt x="842" y="1588" on="1"/>
        <pt x="842" y="226" on="1"/>
      </contour>
      <contour>
        <pt x="284" y="368" on="1"/>
        <pt x="700" y="368" on="1"/>
        <pt x="700" y="1447" on="1"/>
        <pt x="284" y="1447" on="1"/>
      </contour>
    </TTGlyph>
    <TTGlyph name="kirghizyifinal" xMin="142" yMin="226" xMax="842" yMax="1588">
      <contour>
        <pt x="142" y="226" on="1"/>
        <pt x="142" y="1588" on="1"/>
        <pt x="842" y="1588" on="1"/>
        <pt x="842" y="226" on="1"/>
      </contour>
      <contour>
        <pt x="284" y="368" on="1"/>
        <pt x="700" y="368" on="1"/>
        <pt x="700" y="1447" on="1"/>
        <pt x="284" y="1447" on="1"/>
      </contour>
    </TTGlyph>
    <TTGlyph name="lammeemjeeminitialarabic" xMin="142" yMin="226" xMax="842" yMax="1588">
      <contour>
        <pt x="142" y="226" on="1"/>
        <pt x="142" y="1588" on="1"/>
        <pt x="842" y="1588" on="1"/>
        <pt x="842" y="226" on="1"/>
      </contour>
      <contour>
        <pt x="284" y="368" on="1"/>
        <pt x="700" y="368" on="1"/>
        <pt x="700" y="1447" on="1"/>
        <pt x="284" y="1447" on="1"/>
      </contour>
    </TTGlyph>
    <TTGlyph name="lammeemkhahinitialarabic" xMin="142" yMin="226" xMax="842" yMax="1588">
      <contour>
        <pt x="142" y="226" on="1"/>
        <pt x="142" y="1588" on="1"/>
        <pt x="842" y="1588" on="1"/>
        <pt x="842" y="226" on="1"/>
      </contour>
      <contour>
        <pt x="284" y="368" on="1"/>
        <pt x="700" y="368" on="1"/>
        <pt x="700" y="1447" on="1"/>
        <pt x="284" y="1447" on="1"/>
      </contour>
    </TTGlyph>
    <TTGlyph name="lamthreedotsabovefinal" xMin="142" yMin="226" xMax="842" yMax="1588">
      <contour>
        <pt x="142" y="226" on="1"/>
        <pt x="142" y="1588" on="1"/>
        <pt x="842" y="1588" on="1"/>
        <pt x="842" y="226" on="1"/>
      </contour>
      <contour>
        <pt x="284" y="368" on="1"/>
        <pt x="700" y="368" on="1"/>
        <pt x="700" y="1447" on="1"/>
        <pt x="284" y="1447" on="1"/>
      </contour>
    </TTGlyph>
    <TTGlyph name="lamthreedotsaboveinitial" xMin="142" yMin="226" xMax="842" yMax="1588">
      <contour>
        <pt x="142" y="226" on="1"/>
        <pt x="142" y="1588" on="1"/>
        <pt x="842" y="1588" on="1"/>
        <pt x="842" y="226" on="1"/>
      </contour>
      <contour>
        <pt x="284" y="368" on="1"/>
        <pt x="700" y="368" on="1"/>
        <pt x="700" y="1447" on="1"/>
        <pt x="284" y="1447" on="1"/>
      </contour>
    </TTGlyph>
    <TTGlyph name="lamthreedotsabovemedial" xMin="142" yMin="226" xMax="842" yMax="1588">
      <contour>
        <pt x="142" y="226" on="1"/>
        <pt x="142" y="1588" on="1"/>
        <pt x="842" y="1588" on="1"/>
        <pt x="842" y="226" on="1"/>
      </contour>
      <contour>
        <pt x="284" y="368" on="1"/>
        <pt x="700" y="368" on="1"/>
        <pt x="700" y="1447" on="1"/>
        <pt x="284" y="1447" on="1"/>
      </contour>
    </TTGlyph>
    <TTGlyph name="less" xMin="142" yMin="226" xMax="842" yMax="1588">
      <contour>
        <pt x="142" y="226" on="1"/>
        <pt x="142" y="1588" on="1"/>
        <pt x="842" y="1588" on="1"/>
        <pt x="842" y="226" on="1"/>
      </contour>
      <contour>
        <pt x="284" y="368" on="1"/>
        <pt x="700" y="368" on="1"/>
        <pt x="700" y="1447" on="1"/>
        <pt x="284" y="1447" on="1"/>
      </contour>
    </TTGlyph>
    <TTGlyph name="meemmeemisolatedarabic" xMin="142" yMin="226" xMax="842" yMax="1588">
      <contour>
        <pt x="142" y="226" on="1"/>
        <pt x="142" y="1588" on="1"/>
        <pt x="842" y="1588" on="1"/>
        <pt x="842" y="226" on="1"/>
      </contour>
      <contour>
        <pt x="284" y="368" on="1"/>
        <pt x="700" y="368" on="1"/>
        <pt x="700" y="1447" on="1"/>
        <pt x="284" y="1447" on="1"/>
      </contour>
    </TTGlyph>
    <TTGlyph name="multiply" xMin="142" yMin="226" xMax="842" yMax="1588">
      <contour>
        <pt x="142" y="226" on="1"/>
        <pt x="142" y="1588" on="1"/>
        <pt x="842" y="1588" on="1"/>
        <pt x="842" y="226" on="1"/>
      </contour>
      <contour>
        <pt x="284" y="368" on="1"/>
        <pt x="700" y="368" on="1"/>
        <pt x="700" y="1447" on="1"/>
        <pt x="284" y="1447" on="1"/>
      </contour>
    </TTGlyph>
    <TTGlyph name="noonghunnafinalarabic" xMin="142" yMin="226" xMax="842" yMax="1588">
      <contour>
        <pt x="142" y="226" on="1"/>
        <pt x="142" y="1588" on="1"/>
        <pt x="842" y="1588" on="1"/>
        <pt x="842" y="226" on="1"/>
      </contour>
      <contour>
        <pt x="284" y="368" on="1"/>
        <pt x="700" y="368" on="1"/>
        <pt x="700" y="1447" on="1"/>
        <pt x="284" y="1447" on="1"/>
      </contour>
    </TTGlyph>
    <TTGlyph name="noonjeemisolatedarabic" xMin="142" yMin="226" xMax="842" yMax="1588">
      <contour>
        <pt x="142" y="226" on="1"/>
        <pt x="142" y="1588" on="1"/>
        <pt x="842" y="1588" on="1"/>
        <pt x="842" y="226" on="1"/>
      </contour>
      <contour>
        <pt x="284" y="368" on="1"/>
        <pt x="700" y="368" on="1"/>
        <pt x="700" y="1447" on="1"/>
        <pt x="284" y="1447" on="1"/>
      </contour>
    </TTGlyph>
    <TTGlyph name="noonmeemisolatedarabic" xMin="142" yMin="226" xMax="842" yMax="1588">
      <contour>
        <pt x="142" y="226" on="1"/>
        <pt x="142" y="1588" on="1"/>
        <pt x="842" y="1588" on="1"/>
        <pt x="842" y="226" on="1"/>
      </contour>
      <contour>
        <pt x="284" y="368" on="1"/>
        <pt x="700" y="368" on="1"/>
        <pt x="700" y="1447" on="1"/>
        <pt x="284" y="1447" on="1"/>
      </contour>
    </TTGlyph>
    <TTGlyph name="noonringfinal" xMin="142" yMin="226" xMax="842" yMax="1588">
      <contour>
        <pt x="142" y="226" on="1"/>
        <pt x="142" y="1588" on="1"/>
        <pt x="842" y="1588" on="1"/>
        <pt x="842" y="226" on="1"/>
      </contour>
      <contour>
        <pt x="284" y="368" on="1"/>
        <pt x="700" y="368" on="1"/>
        <pt x="700" y="1447" on="1"/>
        <pt x="284" y="1447" on="1"/>
      </contour>
    </TTGlyph>
    <TTGlyph name="noonringinitial" xMin="142" yMin="226" xMax="842" yMax="1588">
      <contour>
        <pt x="142" y="226" on="1"/>
        <pt x="142" y="1588" on="1"/>
        <pt x="842" y="1588" on="1"/>
        <pt x="842" y="226" on="1"/>
      </contour>
      <contour>
        <pt x="284" y="368" on="1"/>
        <pt x="700" y="368" on="1"/>
        <pt x="700" y="1447" on="1"/>
        <pt x="284" y="1447" on="1"/>
      </contour>
    </TTGlyph>
    <TTGlyph name="noonringmedial" xMin="142" yMin="226" xMax="842" yMax="1588">
      <contour>
        <pt x="142" y="226" on="1"/>
        <pt x="142" y="1588" on="1"/>
        <pt x="842" y="1588" on="1"/>
        <pt x="842" y="226" on="1"/>
      </contour>
      <contour>
        <pt x="284" y="368" on="1"/>
        <pt x="700" y="368" on="1"/>
        <pt x="700" y="1447" on="1"/>
        <pt x="284" y="1447" on="1"/>
      </contour>
    </TTGlyph>
    <TTGlyph name="numbersign" xMin="142" yMin="226" xMax="842" yMax="1588">
      <contour>
        <pt x="142" y="226" on="1"/>
        <pt x="142" y="1588" on="1"/>
        <pt x="842" y="1588" on="1"/>
        <pt x="842" y="226" on="1"/>
      </contour>
      <contour>
        <pt x="284" y="368" on="1"/>
        <pt x="700" y="368" on="1"/>
        <pt x="700" y="1447" on="1"/>
        <pt x="284" y="1447" on="1"/>
      </contour>
    </TTGlyph>
    <TTGlyph name="parenleft" xMin="142" yMin="226" xMax="842" yMax="1588">
      <contour>
        <pt x="142" y="226" on="1"/>
        <pt x="142" y="1588" on="1"/>
        <pt x="842" y="1588" on="1"/>
        <pt x="842" y="226" on="1"/>
      </contour>
      <contour>
        <pt x="284" y="368" on="1"/>
        <pt x="700" y="368" on="1"/>
        <pt x="700" y="1447" on="1"/>
        <pt x="284" y="1447" on="1"/>
      </contour>
    </TTGlyph>
    <TTGlyph name="parenright" xMin="142" yMin="226" xMax="842" yMax="1588">
      <contour>
        <pt x="142" y="226" on="1"/>
        <pt x="142" y="1588" on="1"/>
        <pt x="842" y="1588" on="1"/>
        <pt x="842" y="226" on="1"/>
      </contour>
      <contour>
        <pt x="284" y="368" on="1"/>
        <pt x="700" y="368" on="1"/>
        <pt x="700" y="1447" on="1"/>
        <pt x="284" y="1447" on="1"/>
      </contour>
    </TTGlyph>
    <TTGlyph name="pashtoefinal" xMin="142" yMin="226" xMax="842" yMax="1588">
      <contour>
        <pt x="142" y="226" on="1"/>
        <pt x="142" y="1588" on="1"/>
        <pt x="842" y="1588" on="1"/>
        <pt x="842" y="226" on="1"/>
      </contour>
      <contour>
        <pt x="284" y="368" on="1"/>
        <pt x="700" y="368" on="1"/>
        <pt x="700" y="1447" on="1"/>
        <pt x="284" y="1447" on="1"/>
      </contour>
    </TTGlyph>
    <TTGlyph name="pashtoeinitial" xMin="142" yMin="226" xMax="842" yMax="1588">
      <contour>
        <pt x="142" y="226" on="1"/>
        <pt x="142" y="1588" on="1"/>
        <pt x="842" y="1588" on="1"/>
        <pt x="842" y="226" on="1"/>
      </contour>
      <contour>
        <pt x="284" y="368" on="1"/>
        <pt x="700" y="368" on="1"/>
        <pt x="700" y="1447" on="1"/>
        <pt x="284" y="1447" on="1"/>
      </contour>
    </TTGlyph>
    <TTGlyph name="pashtoemedial" xMin="142" yMin="226" xMax="842" yMax="1588">
      <contour>
        <pt x="142" y="226" on="1"/>
        <pt x="142" y="1588" on="1"/>
        <pt x="842" y="1588" on="1"/>
        <pt x="842" y="226" on="1"/>
      </contour>
      <contour>
        <pt x="284" y="368" on="1"/>
        <pt x="700" y="368" on="1"/>
        <pt x="700" y="1447" on="1"/>
        <pt x="284" y="1447" on="1"/>
      </contour>
    </TTGlyph>
    <TTGlyph name="pehfinalarabic" xMin="142" yMin="226" xMax="842" yMax="1588">
      <contour>
        <pt x="142" y="226" on="1"/>
        <pt x="142" y="1588" on="1"/>
        <pt x="842" y="1588" on="1"/>
        <pt x="842" y="226" on="1"/>
      </contour>
      <contour>
        <pt x="284" y="368" on="1"/>
        <pt x="700" y="368" on="1"/>
        <pt x="700" y="1447" on="1"/>
        <pt x="284" y="1447" on="1"/>
      </contour>
    </TTGlyph>
    <TTGlyph name="pehinitialarabic" xMin="142" yMin="226" xMax="842" yMax="1588">
      <contour>
        <pt x="142" y="226" on="1"/>
        <pt x="142" y="1588" on="1"/>
        <pt x="842" y="1588" on="1"/>
        <pt x="842" y="226" on="1"/>
      </contour>
      <contour>
        <pt x="284" y="368" on="1"/>
        <pt x="700" y="368" on="1"/>
        <pt x="700" y="1447" on="1"/>
        <pt x="284" y="1447" on="1"/>
      </contour>
    </TTGlyph>
    <TTGlyph name="pehmedialarabic" xMin="142" yMin="226" xMax="842" yMax="1588">
      <contour>
        <pt x="142" y="226" on="1"/>
        <pt x="142" y="1588" on="1"/>
        <pt x="842" y="1588" on="1"/>
        <pt x="842" y="226" on="1"/>
      </contour>
      <contour>
        <pt x="284" y="368" on="1"/>
        <pt x="700" y="368" on="1"/>
        <pt x="700" y="1447" on="1"/>
        <pt x="284" y="1447" on="1"/>
      </contour>
    </TTGlyph>
    <TTGlyph name="percent" xMin="142" yMin="226" xMax="842" yMax="1588">
      <contour>
        <pt x="142" y="226" on="1"/>
        <pt x="142" y="1588" on="1"/>
        <pt x="842" y="1588" on="1"/>
        <pt x="842" y="226" on="1"/>
      </contour>
      <contour>
        <pt x="284" y="368" on="1"/>
        <pt x="700" y="368" on="1"/>
        <pt x="700" y="1447" on="1"/>
        <pt x="284" y="1447" on="1"/>
      </contour>
    </TTGlyph>
    <TTGlyph name="period" xMin="142" yMin="226" xMax="842" yMax="1588">
      <contour>
        <pt x="142" y="226" on="1"/>
        <pt x="142" y="1588" on="1"/>
        <pt x="842" y="1588" on="1"/>
        <pt x="842" y="226" on="1"/>
      </contour>
      <contour>
        <pt x="284" y="368" on="1"/>
        <pt x="700" y="368" on="1"/>
        <pt x="700" y="1447" on="1"/>
        <pt x="284" y="1447" on="1"/>
      </contour>
    </TTGlyph>
    <TTGlyph name="plus" xMin="142" yMin="226" xMax="842" yMax="1588">
      <contour>
        <pt x="142" y="226" on="1"/>
        <pt x="142" y="1588" on="1"/>
        <pt x="842" y="1588" on="1"/>
        <pt x="842" y="226" on="1"/>
      </contour>
      <contour>
        <pt x="284" y="368" on="1"/>
        <pt x="700" y="368" on="1"/>
        <pt x="700" y="1447" on="1"/>
        <pt x="284" y="1447" on="1"/>
      </contour>
    </TTGlyph>
    <TTGlyph name="quotedbl" xMin="142" yMin="226" xMax="842" yMax="1588">
      <contour>
        <pt x="142" y="226" on="1"/>
        <pt x="142" y="1588" on="1"/>
        <pt x="842" y="1588" on="1"/>
        <pt x="842" y="226" on="1"/>
      </contour>
      <contour>
        <pt x="284" y="368" on="1"/>
        <pt x="700" y="368" on="1"/>
        <pt x="700" y="1447" on="1"/>
        <pt x="284" y="1447" on="1"/>
      </contour>
    </TTGlyph>
    <TTGlyph name="quotesingle" xMin="142" yMin="226" xMax="842" yMax="1588">
      <contour>
        <pt x="142" y="226" on="1"/>
        <pt x="142" y="1588" on="1"/>
        <pt x="842" y="1588" on="1"/>
        <pt x="842" y="226" on="1"/>
      </contour>
      <contour>
        <pt x="284" y="368" on="1"/>
        <pt x="700" y="368" on="1"/>
        <pt x="700" y="1447" on="1"/>
        <pt x="284" y="1447" on="1"/>
      </contour>
    </TTGlyph>
    <TTGlyph name="rehdotbelowdotabovefinal" xMin="142" yMin="226" xMax="842" yMax="1588">
      <contour>
        <pt x="142" y="226" on="1"/>
        <pt x="142" y="1588" on="1"/>
        <pt x="842" y="1588" on="1"/>
        <pt x="842" y="226" on="1"/>
      </contour>
      <contour>
        <pt x="284" y="368" on="1"/>
        <pt x="700" y="368" on="1"/>
        <pt x="700" y="1447" on="1"/>
        <pt x="284" y="1447" on="1"/>
      </contour>
    </TTGlyph>
    <TTGlyph name="rehringfinal" xMin="142" yMin="226" xMax="842" yMax="1588">
      <contour>
        <pt x="142" y="226" on="1"/>
        <pt x="142" y="1588" on="1"/>
        <pt x="842" y="1588" on="1"/>
        <pt x="842" y="226" on="1"/>
      </contour>
      <contour>
        <pt x="284" y="368" on="1"/>
        <pt x="700" y="368" on="1"/>
        <pt x="700" y="1447" on="1"/>
        <pt x="284" y="1447" on="1"/>
      </contour>
    </TTGlyph>
    <TTGlyph name="rrehfinalarabic" xMin="142" yMin="226" xMax="842" yMax="1588">
      <contour>
        <pt x="142" y="226" on="1"/>
        <pt x="142" y="1588" on="1"/>
        <pt x="842" y="1588" on="1"/>
        <pt x="842" y="226" on="1"/>
      </contour>
      <contour>
        <pt x="284" y="368" on="1"/>
        <pt x="700" y="368" on="1"/>
        <pt x="700" y="1447" on="1"/>
        <pt x="284" y="1447" on="1"/>
      </contour>
    </TTGlyph>
    <TTGlyph name="seendotbelowdotabovefinal" xMin="142" yMin="226" xMax="842" yMax="1588">
      <contour>
        <pt x="142" y="226" on="1"/>
        <pt x="142" y="1588" on="1"/>
        <pt x="842" y="1588" on="1"/>
        <pt x="842" y="226" on="1"/>
      </contour>
      <contour>
        <pt x="284" y="368" on="1"/>
        <pt x="700" y="368" on="1"/>
        <pt x="700" y="1447" on="1"/>
        <pt x="284" y="1447" on="1"/>
      </contour>
    </TTGlyph>
    <TTGlyph name="seendotbelowdotaboveinitial" xMin="142" yMin="226" xMax="842" yMax="1588">
      <contour>
        <pt x="142" y="226" on="1"/>
        <pt x="142" y="1588" on="1"/>
        <pt x="842" y="1588" on="1"/>
        <pt x="842" y="226" on="1"/>
      </contour>
      <contour>
        <pt x="284" y="368" on="1"/>
        <pt x="700" y="368" on="1"/>
        <pt x="700" y="1447" on="1"/>
        <pt x="284" y="1447" on="1"/>
      </contour>
    </TTGlyph>
    <TTGlyph name="seendotbelowdotabovemedial" xMin="142" yMin="226" xMax="842" yMax="1588">
      <contour>
        <pt x="142" y="226" on="1"/>
        <pt x="142" y="1588" on="1"/>
        <pt x="842" y="1588" on="1"/>
        <pt x="842" y="226" on="1"/>
      </contour>
      <contour>
        <pt x="284" y="368" on="1"/>
        <pt x="700" y="368" on="1"/>
        <pt x="700" y="1447" on="1"/>
        <pt x="284" y="1447" on="1"/>
      </contour>
    </TTGlyph>
    <TTGlyph name="shaddadammaarabic" xMin="142" yMin="226" xMax="842" yMax="1588">
      <contour>
        <pt x="142" y="226" on="1"/>
        <pt x="142" y="1588" on="1"/>
        <pt x="842" y="1588" on="1"/>
        <pt x="842" y="226" on="1"/>
      </contour>
      <contour>
        <pt x="284" y="368" on="1"/>
        <pt x="700" y="368" on="1"/>
        <pt x="700" y="1447" on="1"/>
        <pt x="284" y="1447" on="1"/>
      </contour>
    </TTGlyph>
    <TTGlyph name="shaddadammatanarabic" xMin="142" yMin="226" xMax="842" yMax="1588">
      <contour>
        <pt x="142" y="226" on="1"/>
        <pt x="142" y="1588" on="1"/>
        <pt x="842" y="1588" on="1"/>
        <pt x="842" y="226" on="1"/>
      </contour>
      <contour>
        <pt x="284" y="368" on="1"/>
        <pt x="700" y="368" on="1"/>
        <pt x="700" y="1447" on="1"/>
        <pt x="284" y="1447" on="1"/>
      </contour>
    </TTGlyph>
    <TTGlyph name="shaddafathaarabic" xMin="142" yMin="226" xMax="842" yMax="1588">
      <contour>
        <pt x="142" y="226" on="1"/>
        <pt x="142" y="1588" on="1"/>
        <pt x="842" y="1588" on="1"/>
        <pt x="842" y="226" on="1"/>
      </contour>
      <contour>
        <pt x="284" y="368" on="1"/>
        <pt x="700" y="368" on="1"/>
        <pt x="700" y="1447" on="1"/>
        <pt x="284" y="1447" on="1"/>
      </contour>
    </TTGlyph>
    <TTGlyph name="shaddakasraarabic" xMin="142" yMin="226" xMax="842" yMax="1588">
      <contour>
        <pt x="142" y="226" on="1"/>
        <pt x="142" y="1588" on="1"/>
        <pt x="842" y="1588" on="1"/>
        <pt x="842" y="226" on="1"/>
      </contour>
      <contour>
        <pt x="284" y="368" on="1"/>
        <pt x="700" y="368" on="1"/>
        <pt x="700" y="1447" on="1"/>
        <pt x="284" y="1447" on="1"/>
      </contour>
    </TTGlyph>
    <TTGlyph name="shaddakasratanarabic" xMin="142" yMin="226" xMax="842" yMax="1588">
      <contour>
        <pt x="142" y="226" on="1"/>
        <pt x="142" y="1588" on="1"/>
        <pt x="842" y="1588" on="1"/>
        <pt x="842" y="226" on="1"/>
      </contour>
      <contour>
        <pt x="284" y="368" on="1"/>
        <pt x="700" y="368" on="1"/>
        <pt x="700" y="1447" on="1"/>
        <pt x="284" y="1447" on="1"/>
      </contour>
    </TTGlyph>
    <TTGlyph name="slash" xMin="142" yMin="226" xMax="842" yMax="1588">
      <contour>
        <pt x="142" y="226" on="1"/>
        <pt x="142" y="1588" on="1"/>
        <pt x="842" y="1588" on="1"/>
        <pt x="842" y="226" on="1"/>
      </contour>
      <contour>
        <pt x="284" y="368" on="1"/>
        <pt x="700" y="368" on="1"/>
        <pt x="700" y="1447" on="1"/>
        <pt x="284" y="1447" on="1"/>
      </contour>
    </TTGlyph>
    <TTGlyph name="space" xMin="142" yMin="226" xMax="842" yMax="1588">
      <contour>
        <pt x="142" y="226" on="1"/>
        <pt x="142" y="1588" on="1"/>
        <pt x="842" y="1588" on="1"/>
        <pt x="842" y="226" on="1"/>
      </contour>
      <contour>
        <pt x="284" y="368" on="1"/>
        <pt x="700" y="368" on="1"/>
        <pt x="700" y="1447" on="1"/>
        <pt x="284" y="1447" on="1"/>
      </contour>
    </TTGlyph>
    <TTGlyph name="tchehfinalarabic" xMin="142" yMin="226" xMax="842" yMax="1588">
      <contour>
        <pt x="142" y="226" on="1"/>
        <pt x="142" y="1588" on="1"/>
        <pt x="842" y="1588" on="1"/>
        <pt x="842" y="226" on="1"/>
      </contour>
      <contour>
        <pt x="284" y="368" on="1"/>
        <pt x="700" y="368" on="1"/>
        <pt x="700" y="1447" on="1"/>
        <pt x="284" y="1447" on="1"/>
      </contour>
    </TTGlyph>
    <TTGlyph name="tchehinitialarabic" xMin="142" yMin="226" xMax="842" yMax="1588">
      <contour>
        <pt x="142" y="226" on="1"/>
        <pt x="142" y="1588" on="1"/>
        <pt x="842" y="1588" on="1"/>
        <pt x="842" y="226" on="1"/>
      </contour>
      <contour>
        <pt x="284" y="368" on="1"/>
        <pt x="700" y="368" on="1"/>
        <pt x="700" y="1447" on="1"/>
        <pt x="284" y="1447" on="1"/>
      </contour>
    </TTGlyph>
    <TTGlyph name="tchehmedialarabic" xMin="142" yMin="226" xMax="842" yMax="1588">
      <contour>
        <pt x="142" y="226" on="1"/>
        <pt x="142" y="1588" on="1"/>
        <pt x="842" y="1588" on="1"/>
        <pt x="842" y="226" on="1"/>
      </contour>
      <contour>
        <pt x="284" y="368" on="1"/>
        <pt x="700" y="368" on="1"/>
        <pt x="700" y="1447" on="1"/>
        <pt x="284" y="1447" on="1"/>
      </contour>
    </TTGlyph>
    <TTGlyph name="tehhahisolatedarabic" xMin="142" yMin="226" xMax="842" yMax="1588">
      <contour>
        <pt x="142" y="226" on="1"/>
        <pt x="142" y="1588" on="1"/>
        <pt x="842" y="1588" on="1"/>
        <pt x="842" y="226" on="1"/>
      </contour>
      <contour>
        <pt x="284" y="368" on="1"/>
        <pt x="700" y="368" on="1"/>
        <pt x="700" y="1447" on="1"/>
        <pt x="284" y="1447" on="1"/>
      </contour>
    </TTGlyph>
    <TTGlyph name="tehjeemisolatedarabic" xMin="142" yMin="226" xMax="842" yMax="1588">
      <contour>
        <pt x="142" y="226" on="1"/>
        <pt x="142" y="1588" on="1"/>
        <pt x="842" y="1588" on="1"/>
        <pt x="842" y="226" on="1"/>
      </contour>
      <contour>
        <pt x="284" y="368" on="1"/>
        <pt x="700" y="368" on="1"/>
        <pt x="700" y="1447" on="1"/>
        <pt x="284" y="1447" on="1"/>
      </contour>
    </TTGlyph>
    <TTGlyph name="tehmeemisolatedarabic" xMin="142" yMin="226" xMax="842" yMax="1588">
      <contour>
        <pt x="142" y="226" on="1"/>
        <pt x="142" y="1588" on="1"/>
        <pt x="842" y="1588" on="1"/>
        <pt x="842" y="226" on="1"/>
      </contour>
      <contour>
        <pt x="284" y="368" on="1"/>
        <pt x="700" y="368" on="1"/>
        <pt x="700" y="1447" on="1"/>
        <pt x="284" y="1447" on="1"/>
      </contour>
    </TTGlyph>
    <TTGlyph name="tehnoonfinalarabic" xMin="142" yMin="226" xMax="842" yMax="1588">
      <contour>
        <pt x="142" y="226" on="1"/>
        <pt x="142" y="1588" on="1"/>
        <pt x="842" y="1588" on="1"/>
        <pt x="842" y="226" on="1"/>
      </contour>
      <contour>
        <pt x="284" y="368" on="1"/>
        <pt x="700" y="368" on="1"/>
        <pt x="700" y="1447" on="1"/>
        <pt x="284" y="1447" on="1"/>
      </contour>
    </TTGlyph>
    <TTGlyph name="tehringfinal" xMin="142" yMin="226" xMax="842" yMax="1588">
      <contour>
        <pt x="142" y="226" on="1"/>
        <pt x="142" y="1588" on="1"/>
        <pt x="842" y="1588" on="1"/>
        <pt x="842" y="226" on="1"/>
      </contour>
      <contour>
        <pt x="284" y="368" on="1"/>
        <pt x="700" y="368" on="1"/>
        <pt x="700" y="1447" on="1"/>
        <pt x="284" y="1447" on="1"/>
      </contour>
    </TTGlyph>
    <TTGlyph name="tehringinitial" xMin="142" yMin="226" xMax="842" yMax="1588">
      <contour>
        <pt x="142" y="226" on="1"/>
        <pt x="142" y="1588" on="1"/>
        <pt x="842" y="1588" on="1"/>
        <pt x="842" y="226" on="1"/>
      </contour>
      <contour>
        <pt x="284" y="368" on="1"/>
        <pt x="700" y="368" on="1"/>
        <pt x="700" y="1447" on="1"/>
        <pt x="284" y="1447" on="1"/>
      </contour>
    </TTGlyph>
    <TTGlyph name="tehringmedial" xMin="142" yMin="226" xMax="842" yMax="1588">
      <contour>
        <pt x="142" y="226" on="1"/>
        <pt x="142" y="1588" on="1"/>
        <pt x="842" y="1588" on="1"/>
        <pt x="842" y="226" on="1"/>
      </contour>
      <contour>
        <pt x="284" y="368" on="1"/>
        <pt x="700" y="368" on="1"/>
        <pt x="700" y="1447" on="1"/>
        <pt x="284" y="1447" on="1"/>
      </contour>
    </TTGlyph>
    <TTGlyph name="ttehfinalarabic" xMin="142" yMin="226" xMax="842" yMax="1588">
      <contour>
        <pt x="142" y="226" on="1"/>
        <pt x="142" y="1588" on="1"/>
        <pt x="842" y="1588" on="1"/>
        <pt x="842" y="226" on="1"/>
      </contour>
      <contour>
        <pt x="284" y="368" on="1"/>
        <pt x="700" y="368" on="1"/>
        <pt x="700" y="1447" on="1"/>
        <pt x="284" y="1447" on="1"/>
      </contour>
    </TTGlyph>
    <TTGlyph name="ttehinitialarabic" xMin="142" yMin="226" xMax="842" yMax="1588">
      <contour>
        <pt x="142" y="226" on="1"/>
        <pt x="142" y="1588" on="1"/>
        <pt x="842" y="1588" on="1"/>
        <pt x="842" y="226" on="1"/>
      </contour>
      <contour>
        <pt x="284" y="368" on="1"/>
        <pt x="700" y="368" on="1"/>
        <pt x="700" y="1447" on="1"/>
        <pt x="284" y="1447" on="1"/>
      </contour>
    </TTGlyph>
    <TTGlyph name="ttehmedialarabic" xMin="142" yMin="226" xMax="842" yMax="1588">
      <contour>
        <pt x="142" y="226" on="1"/>
        <pt x="142" y="1588" on="1"/>
        <pt x="842" y="1588" on="1"/>
        <pt x="842" y="226" on="1"/>
      </contour>
      <contour>
        <pt x="284" y="368" on="1"/>
        <pt x="700" y="368" on="1"/>
        <pt x="700" y="1447" on="1"/>
        <pt x="284" y="1447" on="1"/>
      </contour>
    </TTGlyph>
    <TTGlyph name="uni000D" xMin="142" yMin="226" xMax="842" yMax="1588">
      <contour>
        <pt x="142" y="226" on="1"/>
        <pt x="142" y="1588" on="1"/>
        <pt x="842" y="1588" on="1"/>
        <pt x="842" y="226" on="1"/>
      </contour>
      <contour>
        <pt x="284" y="368" on="1"/>
        <pt x="700" y="368" on="1"/>
        <pt x="700" y="1447" on="1"/>
        <pt x="284" y="1447" on="1"/>
      </contour>
    </TTGlyph>
    <TTGlyph name="uni00A0" xMin="142" yMin="226" xMax="842" yMax="1588">
      <contour>
        <pt x="142" y="226" on="1"/>
        <pt x="142" y="1588" on="1"/>
        <pt x="842" y="1588" on="1"/>
        <pt x="842" y="226" on="1"/>
      </contour>
      <contour>
        <pt x="284" y="368" on="1"/>
        <pt x="700" y="368" on="1"/>
        <pt x="700" y="1447" on="1"/>
        <pt x="284" y="1447" on="1"/>
      </contour>
    </TTGlyph>
    <TTGlyph name="uni00AD" xMin="142" yMin="226" xMax="842" yMax="1588">
      <contour>
        <pt x="142" y="226" on="1"/>
        <pt x="142" y="1588" on="1"/>
        <pt x="842" y="1588" on="1"/>
        <pt x="842" y="226" on="1"/>
      </contour>
      <contour>
        <pt x="284" y="368" on="1"/>
        <pt x="700" y="368" on="1"/>
        <pt x="700" y="1447" on="1"/>
        <pt x="284" y="1447" on="1"/>
      </contour>
    </TTGlyph>
    <TTGlyph name="uni0653" xMin="142" yMin="226" xMax="842" yMax="1588">
      <contour>
        <pt x="142" y="226" on="1"/>
        <pt x="142" y="1588" on="1"/>
        <pt x="842" y="1588" on="1"/>
        <pt x="842" y="226" on="1"/>
      </contour>
      <contour>
        <pt x="284" y="368" on="1"/>
        <pt x="700" y="368" on="1"/>
        <pt x="700" y="1447" on="1"/>
        <pt x="284" y="1447" on="1"/>
      </contour>
    </TTGlyph>
    <TTGlyph name="uni0654" xMin="142" yMin="226" xMax="842" yMax="1588">
      <contour>
        <pt x="142" y="226" on="1"/>
        <pt x="142" y="1588" on="1"/>
        <pt x="842" y="1588" on="1"/>
        <pt x="842" y="226" on="1"/>
      </contour>
      <contour>
        <pt x="284" y="368" on="1"/>
        <pt x="700" y="368" on="1"/>
        <pt x="700" y="1447" on="1"/>
        <pt x="284" y="1447" on="1"/>
      </contour>
    </TTGlyph>
    <TTGlyph name="uni0655" xMin="142" yMin="226" xMax="842" yMax="1588">
      <contour>
        <pt x="142" y="226" on="1"/>
        <pt x="142" y="1588" on="1"/>
        <pt x="842" y="1588" on="1"/>
        <pt x="842" y="226" on="1"/>
      </contour>
      <contour>
        <pt x="284" y="368" on="1"/>
        <pt x="700" y="368" on="1"/>
        <pt x="700" y="1447" on="1"/>
        <pt x="284" y="1447" on="1"/>
      </contour>
    </TTGlyph>
    <TTGlyph name="uni066B" xMin="142" yMin="226" xMax="842" yMax="1588">
      <contour>
        <pt x="142" y="226" on="1"/>
        <pt x="142" y="1588" on="1"/>
        <pt x="842" y="1588" on="1"/>
        <pt x="842" y="226" on="1"/>
      </contour>
      <contour>
        <pt x="284" y="368" on="1"/>
        <pt x="700" y="368" on="1"/>
        <pt x="700" y="1447" on="1"/>
        <pt x="284" y="1447" on="1"/>
      </contour>
    </TTGlyph>
    <TTGlyph name="uni066C" xMin="142" yMin="226" xMax="842" yMax="1588">
      <contour>
        <pt x="142" y="226" on="1"/>
        <pt x="142" y="1588" on="1"/>
        <pt x="842" y="1588" on="1"/>
        <pt x="842" y="226" on="1"/>
      </contour>
      <contour>
        <pt x="284" y="368" on="1"/>
        <pt x="700" y="368" on="1"/>
        <pt x="700" y="1447" on="1"/>
        <pt x="284" y="1447" on="1"/>
      </contour>
    </TTGlyph>
    <TTGlyph name="uni0671" xMin="142" yMin="226" xMax="842" yMax="1588">
      <contour>
        <pt x="142" y="226" on="1"/>
        <pt x="142" y="1588" on="1"/>
        <pt x="842" y="1588" on="1"/>
        <pt x="842" y="226" on="1"/>
      </contour>
      <contour>
        <pt x="284" y="368" on="1"/>
        <pt x="700" y="368" on="1"/>
        <pt x="700" y="1447" on="1"/>
        <pt x="284" y="1447" on="1"/>
      </contour>
    </TTGlyph>
    <TTGlyph name="uni067C" xMin="142" yMin="226" xMax="842" yMax="1588">
      <contour>
        <pt x="142" y="226" on="1"/>
        <pt x="142" y="1588" on="1"/>
        <pt x="842" y="1588" on="1"/>
        <pt x="842" y="226" on="1"/>
      </contour>
      <contour>
        <pt x="284" y="368" on="1"/>
        <pt x="700" y="368" on="1"/>
        <pt x="700" y="1447" on="1"/>
        <pt x="284" y="1447" on="1"/>
      </contour>
    </TTGlyph>
    <TTGlyph name="uni0681" xMin="142" yMin="226" xMax="842" yMax="1588">
      <contour>
        <pt x="142" y="226" on="1"/>
        <pt x="142" y="1588" on="1"/>
        <pt x="842" y="1588" on="1"/>
        <pt x="842" y="226" on="1"/>
      </contour>
      <contour>
        <pt x="284" y="368" on="1"/>
        <pt x="700" y="368" on="1"/>
        <pt x="700" y="1447" on="1"/>
        <pt x="284" y="1447" on="1"/>
      </contour>
    </TTGlyph>
    <TTGlyph name="uni0685" xMin="142" yMin="226" xMax="842" yMax="1588">
      <contour>
        <pt x="142" y="226" on="1"/>
        <pt x="142" y="1588" on="1"/>
        <pt x="842" y="1588" on="1"/>
        <pt x="842" y="226" on="1"/>
      </contour>
      <contour>
        <pt x="284" y="368" on="1"/>
        <pt x="700" y="368" on="1"/>
        <pt x="700" y="1447" on="1"/>
        <pt x="284" y="1447" on="1"/>
      </contour>
    </TTGlyph>
    <TTGlyph name="uni0689" xMin="142" yMin="226" xMax="842" yMax="1588">
      <contour>
        <pt x="142" y="226" on="1"/>
        <pt x="142" y="1588" on="1"/>
        <pt x="842" y="1588" on="1"/>
        <pt x="842" y="226" on="1"/>
      </contour>
      <contour>
        <pt x="284" y="368" on="1"/>
        <pt x="700" y="368" on="1"/>
        <pt x="700" y="1447" on="1"/>
        <pt x="284" y="1447" on="1"/>
      </contour>
    </TTGlyph>
    <TTGlyph name="uni0693" xMin="142" yMin="226" xMax="842" yMax="1588">
      <contour>
        <pt x="142" y="226" on="1"/>
        <pt x="142" y="1588" on="1"/>
        <pt x="842" y="1588" on="1"/>
        <pt x="842" y="226" on="1"/>
      </contour>
      <contour>
        <pt x="284" y="368" on="1"/>
        <pt x="700" y="368" on="1"/>
        <pt x="700" y="1447" on="1"/>
        <pt x="284" y="1447" on="1"/>
      </contour>
    </TTGlyph>
    <TTGlyph name="uni0696" xMin="142" yMin="226" xMax="842" yMax="1588">
      <contour>
        <pt x="142" y="226" on="1"/>
        <pt x="142" y="1588" on="1"/>
        <pt x="842" y="1588" on="1"/>
        <pt x="842" y="226" on="1"/>
      </contour>
      <contour>
        <pt x="284" y="368" on="1"/>
        <pt x="700" y="368" on="1"/>
        <pt x="700" y="1447" on="1"/>
        <pt x="284" y="1447" on="1"/>
      </contour>
    </TTGlyph>
    <TTGlyph name="uni069A" xMin="142" yMin="226" xMax="842" yMax="1588">
      <contour>
        <pt x="142" y="226" on="1"/>
        <pt x="142" y="1588" on="1"/>
        <pt x="842" y="1588" on="1"/>
        <pt x="842" y="226" on="1"/>
      </contour>
      <contour>
        <pt x="284" y="368" on="1"/>
        <pt x="700" y="368" on="1"/>
        <pt x="700" y="1447" on="1"/>
        <pt x="284" y="1447" on="1"/>
      </contour>
    </TTGlyph>
    <TTGlyph name="uni06A9" xMin="142" yMin="226" xMax="842" yMax="1588">
      <contour>
        <pt x="142" y="226" on="1"/>
        <pt x="142" y="1588" on="1"/>
        <pt x="842" y="1588" on="1"/>
        <pt x="842" y="226" on="1"/>
      </contour>
      <contour>
        <pt x="284" y="368" on="1"/>
        <pt x="700" y="368" on="1"/>
        <pt x="700" y="1447" on="1"/>
        <pt x="284" y="1447" on="1"/>
      </contour>
    </TTGlyph>
    <TTGlyph name="uni06AB" xMin="142" yMin="226" xMax="842" yMax="1588">
      <contour>
        <pt x="142" y="226" on="1"/>
        <pt x="142" y="1588" on="1"/>
        <pt x="842" y="1588" on="1"/>
        <pt x="842" y="226" on="1"/>
      </contour>
      <contour>
        <pt x="284" y="368" on="1"/>
        <pt x="700" y="368" on="1"/>
        <pt x="700" y="1447" on="1"/>
        <pt x="284" y="1447" on="1"/>
      </contour>
    </TTGlyph>
    <TTGlyph name="uni06B7" xMin="142" yMin="226" xMax="842" yMax="1588">
      <contour>
        <pt x="142" y="226" on="1"/>
        <pt x="142" y="1588" on="1"/>
        <pt x="842" y="1588" on="1"/>
        <pt x="842" y="226" on="1"/>
      </contour>
      <contour>
        <pt x="284" y="368" on="1"/>
        <pt x="700" y="368" on="1"/>
        <pt x="700" y="1447" on="1"/>
        <pt x="284" y="1447" on="1"/>
      </contour>
    </TTGlyph>
    <TTGlyph name="uni06BC" xMin="142" yMin="226" xMax="842" yMax="1588">
      <contour>
        <pt x="142" y="226" on="1"/>
        <pt x="142" y="1588" on="1"/>
        <pt x="842" y="1588" on="1"/>
        <pt x="842" y="226" on="1"/>
      </contour>
      <contour>
        <pt x="284" y="368" on="1"/>
        <pt x="700" y="368" on="1"/>
        <pt x="700" y="1447" on="1"/>
        <pt x="284" y="1447" on="1"/>
      </contour>
    </TTGlyph>
    <TTGlyph name="uni06BE" xMin="142" yMin="226" xMax="842" yMax="1588">
      <contour>
        <pt x="142" y="226" on="1"/>
        <pt x="142" y="1588" on="1"/>
        <pt x="842" y="1588" on="1"/>
        <pt x="842" y="226" on="1"/>
      </contour>
      <contour>
        <pt x="284" y="368" on="1"/>
        <pt x="700" y="368" on="1"/>
        <pt x="700" y="1447" on="1"/>
        <pt x="284" y="1447" on="1"/>
      </contour>
    </TTGlyph>
    <TTGlyph name="uni06C2" xMin="142" yMin="226" xMax="842" yMax="1588">
      <contour>
        <pt x="142" y="226" on="1"/>
        <pt x="142" y="1588" on="1"/>
        <pt x="842" y="1588" on="1"/>
        <pt x="842" y="226" on="1"/>
      </contour>
      <contour>
        <pt x="284" y="368" on="1"/>
        <pt x="700" y="368" on="1"/>
        <pt x="700" y="1447" on="1"/>
        <pt x="284" y="1447" on="1"/>
      </contour>
    </TTGlyph>
    <TTGlyph name="uni06C7" xMin="142" yMin="226" xMax="842" yMax="1588">
      <contour>
        <pt x="142" y="226" on="1"/>
        <pt x="142" y="1588" on="1"/>
        <pt x="842" y="1588" on="1"/>
        <pt x="842" y="226" on="1"/>
      </contour>
      <contour>
        <pt x="284" y="368" on="1"/>
        <pt x="700" y="368" on="1"/>
        <pt x="700" y="1447" on="1"/>
        <pt x="284" y="1447" on="1"/>
      </contour>
    </TTGlyph>
    <TTGlyph name="uni06C9" xMin="142" yMin="226" xMax="842" yMax="1588">
      <contour>
        <pt x="142" y="226" on="1"/>
        <pt x="142" y="1588" on="1"/>
        <pt x="842" y="1588" on="1"/>
        <pt x="842" y="226" on="1"/>
      </contour>
      <contour>
        <pt x="284" y="368" on="1"/>
        <pt x="700" y="368" on="1"/>
        <pt x="700" y="1447" on="1"/>
        <pt x="284" y="1447" on="1"/>
      </contour>
    </TTGlyph>
    <TTGlyph name="uni06CC" xMin="142" yMin="226" xMax="842" yMax="1588">
      <contour>
        <pt x="142" y="226" on="1"/>
        <pt x="142" y="1588" on="1"/>
        <pt x="842" y="1588" on="1"/>
        <pt x="842" y="226" on="1"/>
      </contour>
      <contour>
        <pt x="284" y="368" on="1"/>
        <pt x="700" y="368" on="1"/>
        <pt x="700" y="1447" on="1"/>
        <pt x="284" y="1447" on="1"/>
      </contour>
    </TTGlyph>
    <TTGlyph name="uni06CD" xMin="142" yMin="226" xMax="842" yMax="1588">
      <contour>
        <pt x="142" y="226" on="1"/>
        <pt x="142" y="1588" on="1"/>
        <pt x="842" y="1588" on="1"/>
        <pt x="842" y="226" on="1"/>
      </contour>
      <contour>
        <pt x="284" y="368" on="1"/>
        <pt x="700" y="368" on="1"/>
        <pt x="700" y="1447" on="1"/>
        <pt x="284" y="1447" on="1"/>
      </contour>
    </TTGlyph>
    <TTGlyph name="uni06D0" xMin="142" yMin="226" xMax="842" yMax="1588">
      <contour>
        <pt x="142" y="226" on="1"/>
        <pt x="142" y="1588" on="1"/>
        <pt x="842" y="1588" on="1"/>
        <pt x="842" y="226" on="1"/>
      </contour>
      <contour>
        <pt x="284" y="368" on="1"/>
        <pt x="700" y="368" on="1"/>
        <pt x="700" y="1447" on="1"/>
        <pt x="284" y="1447" on="1"/>
      </contour>
    </TTGlyph>
    <TTGlyph name="uni06D1" xMin="142" yMin="226" xMax="842" yMax="1588">
      <contour>
        <pt x="142" y="226" on="1"/>
        <pt x="142" y="1588" on="1"/>
        <pt x="842" y="1588" on="1"/>
        <pt x="842" y="226" on="1"/>
      </contour>
      <contour>
        <pt x="284" y="368" on="1"/>
        <pt x="700" y="368" on="1"/>
        <pt x="700" y="1447" on="1"/>
        <pt x="284" y="1447" on="1"/>
      </contour>
    </TTGlyph>
    <TTGlyph name="uni06D3" xMin="142" yMin="226" xMax="842" yMax="1588">
      <contour>
        <pt x="142" y="226" on="1"/>
        <pt x="142" y="1588" on="1"/>
        <pt x="842" y="1588" on="1"/>
        <pt x="842" y="226" on="1"/>
      </contour>
      <contour>
        <pt x="284" y="368" on="1"/>
        <pt x="700" y="368" on="1"/>
        <pt x="700" y="1447" on="1"/>
        <pt x="284" y="1447" on="1"/>
      </contour>
    </TTGlyph>
    <TTGlyph name="uni06D4" xMin="142" yMin="226" xMax="842" yMax="1588">
      <contour>
        <pt x="142" y="226" on="1"/>
        <pt x="142" y="1588" on="1"/>
        <pt x="842" y="1588" on="1"/>
        <pt x="842" y="226" on="1"/>
      </contour>
      <contour>
        <pt x="284" y="368" on="1"/>
        <pt x="700" y="368" on="1"/>
        <pt x="700" y="1447" on="1"/>
        <pt x="284" y="1447" on="1"/>
      </contour>
    </TTGlyph>
    <TTGlyph name="uni06F0" xMin="142" yMin="226" xMax="842" yMax="1588">
      <contour>
        <pt x="142" y="226" on="1"/>
        <pt x="142" y="1588" on="1"/>
        <pt x="842" y="1588" on="1"/>
        <pt x="842" y="226" on="1"/>
      </contour>
      <contour>
        <pt x="284" y="368" on="1"/>
        <pt x="700" y="368" on="1"/>
        <pt x="700" y="1447" on="1"/>
        <pt x="284" y="1447" on="1"/>
      </contour>
    </TTGlyph>
    <TTGlyph name="uni06F1" xMin="142" yMin="226" xMax="842" yMax="1588">
      <contour>
        <pt x="142" y="226" on="1"/>
        <pt x="142" y="1588" on="1"/>
        <pt x="842" y="1588" on="1"/>
        <pt x="842" y="226" on="1"/>
      </contour>
      <contour>
        <pt x="284" y="368" on="1"/>
        <pt x="700" y="368" on="1"/>
        <pt x="700" y="1447" on="1"/>
        <pt x="284" y="1447" on="1"/>
      </contour>
    </TTGlyph>
    <TTGlyph name="uni06F2" xMin="142" yMin="226" xMax="842" yMax="1588">
      <contour>
        <pt x="142" y="226" on="1"/>
        <pt x="142" y="1588" on="1"/>
        <pt x="842" y="1588" on="1"/>
        <pt x="842" y="226" on="1"/>
      </contour>
      <contour>
        <pt x="284" y="368" on="1"/>
        <pt x="700" y="368" on="1"/>
        <pt x="700" y="1447" on="1"/>
        <pt x="284" y="1447" on="1"/>
      </contour>
    </TTGlyph>
    <TTGlyph name="uni06F3" xMin="142" yMin="226" xMax="842" yMax="1588">
      <contour>
        <pt x="142" y="226" on="1"/>
        <pt x="142" y="1588" on="1"/>
        <pt x="842" y="1588" on="1"/>
        <pt x="842" y="226" on="1"/>
      </contour>
      <contour>
        <pt x="284" y="368" on="1"/>
        <pt x="700" y="368" on="1"/>
        <pt x="700" y="1447" on="1"/>
        <pt x="284" y="1447" on="1"/>
      </contour>
    </TTGlyph>
    <TTGlyph name="uni06F4" xMin="142" yMin="226" xMax="842" yMax="1588">
      <contour>
        <pt x="142" y="226" on="1"/>
        <pt x="142" y="1588" on="1"/>
        <pt x="842" y="1588" on="1"/>
        <pt x="842" y="226" on="1"/>
      </contour>
      <contour>
        <pt x="284" y="368" on="1"/>
        <pt x="700" y="368" on="1"/>
        <pt x="700" y="1447" on="1"/>
        <pt x="284" y="1447" on="1"/>
      </contour>
    </TTGlyph>
    <TTGlyph name="uni06F5" xMin="142" yMin="226" xMax="842" yMax="1588">
      <contour>
        <pt x="142" y="226" on="1"/>
        <pt x="142" y="1588" on="1"/>
        <pt x="842" y="1588" on="1"/>
        <pt x="842" y="226" on="1"/>
      </contour>
      <contour>
        <pt x="284" y="368" on="1"/>
        <pt x="700" y="368" on="1"/>
        <pt x="700" y="1447" on="1"/>
        <pt x="284" y="1447" on="1"/>
      </contour>
    </TTGlyph>
    <TTGlyph name="uni06F6" xMin="142" yMin="226" xMax="842" yMax="1588">
      <contour>
        <pt x="142" y="226" on="1"/>
        <pt x="142" y="1588" on="1"/>
        <pt x="842" y="1588" on="1"/>
        <pt x="842" y="226" on="1"/>
      </contour>
      <contour>
        <pt x="284" y="368" on="1"/>
        <pt x="700" y="368" on="1"/>
        <pt x="700" y="1447" on="1"/>
        <pt x="284" y="1447" on="1"/>
      </contour>
    </TTGlyph>
    <TTGlyph name="uni06F7" xMin="142" yMin="226" xMax="842" yMax="1588">
      <contour>
        <pt x="142" y="226" on="1"/>
        <pt x="142" y="1588" on="1"/>
        <pt x="842" y="1588" on="1"/>
        <pt x="842" y="226" on="1"/>
      </contour>
      <contour>
        <pt x="284" y="368" on="1"/>
        <pt x="700" y="368" on="1"/>
        <pt x="700" y="1447" on="1"/>
        <pt x="284" y="1447" on="1"/>
      </contour>
    </TTGlyph>
    <TTGlyph name="uni06F8" xMin="142" yMin="226" xMax="842" yMax="1588">
      <contour>
        <pt x="142" y="226" on="1"/>
        <pt x="142" y="1588" on="1"/>
        <pt x="842" y="1588" on="1"/>
        <pt x="842" y="226" on="1"/>
      </contour>
      <contour>
        <pt x="284" y="368" on="1"/>
        <pt x="700" y="368" on="1"/>
        <pt x="700" y="1447" on="1"/>
        <pt x="284" y="1447" on="1"/>
      </contour>
    </TTGlyph>
    <TTGlyph name="uni06F9" xMin="142" yMin="226" xMax="842" yMax="1588">
      <contour>
        <pt x="142" y="226" on="1"/>
        <pt x="142" y="1588" on="1"/>
        <pt x="842" y="1588" on="1"/>
        <pt x="842" y="226" on="1"/>
      </contour>
      <contour>
        <pt x="284" y="368" on="1"/>
        <pt x="700" y="368" on="1"/>
        <pt x="700" y="1447" on="1"/>
        <pt x="284" y="1447" on="1"/>
      </contour>
    </TTGlyph>
    <TTGlyph name="uni2010" xMin="137" yMin="1556" xMax="637" yMax="2108">
      <contour>
        <pt x="637" y="1667" on="1"/>
        <pt x="637" y="1639" on="0"/>
        <pt x="625" y="1631" on="1"/>
        <pt x="610" y="1625" on="0"/>
        <pt x="515" y="1585" on="1"/>
        <pt x="447" y="1556" on="0"/>
        <pt x="429" y="1556" on="1"/>
        <pt x="137" y="1556" on="0"/>
        <pt x="137" y="1792" on="1"/>
        <pt x="137" y="1822" on="0"/>
        <pt x="170" y="1897" on="1"/>
        <pt x="203" y="1969" on="0"/>
        <pt x="200" y="1987" on="1"/>
        <pt x="197" y="1987" on="0"/>
        <pt x="162" y="1966" on="0"/>
        <pt x="150" y="1966" on="1"/>
        <pt x="148" y="1968" on="0"/>
        <pt x="148" y="1969" on="1"/>
        <pt x="137" y="1978" on="0"/>
        <pt x="137" y="1996" on="1"/>
        <pt x="137" y="2025" on="0"/>
        <pt x="191" y="2091" on="0"/>
        <pt x="223" y="2095" on="1"/>
        <pt x="312" y="2096" on="0"/>
        <pt x="545" y="2108" on="1"/>
        <pt x="545" y="2072" on="1"/>
        <pt x="546" y="2059" on="0"/>
        <pt x="498" y="2016" on="0"/>
        <pt x="481" y="2009" on="1"/>
        <pt x="443" y="2004" on="0"/>
        <pt x="369" y="1982" on="1"/>
        <pt x="219" y="1919" on="0"/>
        <pt x="219" y="1802" on="1"/>
        <pt x="219" y="1659" on="0"/>
        <pt x="423" y="1659" on="1"/>
        <pt x="430" y="1659" on="0"/>
        <pt x="595" y="1667" on="0"/>
      </contour>
      <contour>
        <pt x="443" y="1823" on="1"/>
        <pt x="443" y="1797" on="0"/>
        <pt x="410" y="1761" on="1"/>
        <pt x="342" y="1774" on="0"/>
        <pt x="321" y="1828" on="1"/>
        <pt x="333" y="1840" on="0"/>
        <pt x="333" y="1872" on="1"/>
        <pt x="336" y="1872" on="0"/>
        <pt x="362" y="1883" on="0"/>
        <pt x="377" y="1883" on="1"/>
        <pt x="443" y="1883" on="0"/>
      </contour>
    </TTGlyph>
    <TTGlyph name="uni2011" xMin="137" yMin="1556" xMax="637" yMax="2108">
      <contour>
        <pt x="637" y="1667" on="1"/>
        <pt x="637" y="1639" on="0"/>
        <pt x="625" y="1631" on="1"/>
        <pt x="610" y="1625" on="0"/>
        <pt x="515" y="1585" on="1"/>
        <pt x="447" y="1556" on="0"/>
        <pt x="429" y="1556" on="1"/>
        <pt x="137" y="1556" on="0"/>
        <pt x="137" y="1792" on="1"/>
        <pt x="137" y="1822" on="0"/>
        <pt x="170" y="1897" on="1"/>
        <pt x="203" y="1969" on="0"/>
        <pt x="200" y="1987" on="1"/>
        <pt x="197" y="1987" on="0"/>
        <pt x="162" y="1966" on="0"/>
        <pt x="150" y="1966" on="1"/>
        <pt x="148" y="1968" on="0"/>
        <pt x="148" y="1969" on="1"/>
        <pt x="137" y="1978" on="0"/>
        <pt x="137" y="1996" on="1"/>
        <pt x="137" y="2025" on="0"/>
        <pt x="191" y="2091" on="0"/>
        <pt x="223" y="2095" on="1"/>
        <pt x="312" y="2096" on="0"/>
        <pt x="545" y="2108" on="1"/>
        <pt x="545" y="2072" on="1"/>
        <pt x="546" y="2059" on="0"/>
        <pt x="498" y="2016" on="0"/>
        <pt x="481" y="2009" on="1"/>
        <pt x="443" y="2004" on="0"/>
        <pt x="369" y="1982" on="1"/>
        <pt x="219" y="1919" on="0"/>
        <pt x="219" y="1802" on="1"/>
        <pt x="219" y="1659" on="0"/>
        <pt x="423" y="1659" on="1"/>
        <pt x="430" y="1659" on="0"/>
        <pt x="595" y="1667" on="0"/>
      </contour>
      <contour>
        <pt x="443" y="1823" on="1"/>
        <pt x="443" y="1797" on="0"/>
        <pt x="410" y="1761" on="1"/>
        <pt x="342" y="1774" on="0"/>
        <pt x="321" y="1828" on="1"/>
        <pt x="333" y="1840" on="0"/>
        <pt x="333" y="1872" on="1"/>
        <pt x="336" y="1872" on="0"/>
        <pt x="362" y="1883" on="0"/>
        <pt x="377" y="1883" on="1"/>
        <pt x="443" y="1883" on="0"/>
      </contour>
    </TTGlyph>
    <TTGlyph name="uniE000" xMin="0" yMin="0" xMax="2290" yMax="2290">
      <contour>
        <pt x="0" y="2290" on="1"/>
        <pt x="2290" y="2290" on="1"/>
        <pt x="2290" y="0" on="1"/>
        <pt x="0" y="0" on="1"/>
      </contour>
    </TTGlyph>
    <TTGlyph name="uniFB51" xMin="100" yMin="-171" xMax="1594" yMax="1620">
      <contour>
        <pt x="1594" y="754" on="1"/>
        <pt x="1516" y="671" on="0"/>
        <pt x="1350" y="516" on="1"/>
        <pt x="1351" y="522" on="0"/>
        <pt x="1365" y="469" on="1"/>
        <pt x="1362" y="418" on="0"/>
        <pt x="1361" y="316" on="1"/>
        <pt x="1379" y="292" on="0"/>
        <pt x="1379" y="285" on="1"/>
        <pt x="1379" y="249" on="1"/>
        <pt x="1371" y="238" on="0"/>
        <pt x="1355" y="220" on="1"/>
        <pt x="1262" y="224" on="0"/>
        <pt x="1079" y="240" on="1"/>
        <pt x="979" y="100" on="0"/>
        <pt x="886" y="-171" on="1"/>
        <pt x="849" y="-171" on="1"/>
        <pt x="787" y="-33" on="0"/>
        <pt x="645" y="248" on="1"/>
        <pt x="569" y="238" on="0"/>
        <pt x="492" y="228" on="1"/>
        <pt x="418" y="215" on="0"/>
        <pt x="372" y="187" on="1"/>
        <pt x="336" y="187" on="1"/>
        <pt x="330" y="193" on="0"/>
        <pt x="317" y="211" on="1"/>
        <pt x="321" y="313" on="0"/>
        <pt x="335" y="528" on="1"/>
        <pt x="203" y="656" on="0"/>
        <pt x="100" y="699" on="1"/>
        <pt x="100" y="738" on="1"/>
        <pt x="176" y="804" on="0"/>
        <pt x="331" y="931" on="1"/>
        <pt x="325" y="1019" on="0"/>
        <pt x="325" y="1228" on="1"/>
        <pt x="334" y="1233" on="0"/>
        <pt x="411" y="1233" on="1"/>
        <pt x="540" y="1233" on="0"/>
        <pt x="633" y="1223" on="1"/>
        <pt x="649" y="1232" on="0"/>
        <pt x="659" y="1248" on="1"/>
        <pt x="716" y="1357" on="0"/>
        <pt x="798" y="1575" on="1"/>
        <pt x="804" y="1602" on="0"/>
        <pt x="841" y="1620" on="1"/>
        <pt x="846" y="1620" on="0"/>
        <pt x="872" y="1604" on="1"/>
        <pt x="878" y="1592" on="0"/>
        <pt x="981" y="1369" on="1"/>
        <pt x="1049" y="1221" on="0"/>
        <pt x="1076" y="1221" on="1"/>
        <pt x="1090" y="1221" on="0"/>
        <pt x="1301" y="1261" on="0"/>
        <pt x="1313" y="1261" on="1"/>
        <pt x="1346" y="1261" on="1"/>
        <pt x="1369" y="1244" on="0"/>
        <pt x="1368" y="1226" on="1"/>
        <pt x="1365" y="1205" on="0"/>
        <pt x="1361" y="1184" on="1"/>
        <pt x="1348" y="1054" on="0"/>
        <pt x="1348" y="969" on="1"/>
        <pt x="1348" y="946" on="0"/>
        <pt x="1445" y="868" on="1"/>
        <pt x="1520" y="812" on="0"/>
      </contour>
      <contour>
        <pt x="1267" y="1041" on="1"/>
        <pt x="1267" y="1149" on="0"/>
        <pt x="1185" y="1149" on="1"/>
        <pt x="1149" y="1149" on="0"/>
        <pt x="1098" y="1129" on="1"/>
        <pt x="1031" y="1103" on="0"/>
        <pt x="1031" y="1064" on="1"/>
        <pt x="1031" y="1056" on="0"/>
        <pt x="1033" y="1047" on="1"/>
        <pt x="1063" y="1053" on="0"/>
        <pt x="1072" y="1078" on="1"/>
        <pt x="1081" y="1098" on="0"/>
        <pt x="1144" y="1098" on="1"/>
        <pt x="1177" y="1098" on="0"/>
        <pt x="1216" y="1081" on="1"/>
        <pt x="1218" y="1005" on="0"/>
        <pt x="1202" y="972" on="1"/>
        <pt x="1176" y="931" on="0"/>
        <pt x="1176" y="925" on="1"/>
        <pt x="1212" y="929" on="0"/>
        <pt x="1267" y="1001" on="0"/>
      </contour>
      <contour>
        <pt x="969" y="1153" on="1"/>
        <pt x="969" y="1173" on="0"/>
        <pt x="890" y="1344" on="0"/>
        <pt x="852" y="1405" on="1"/>
        <pt x="734" y="1257" on="0"/>
        <pt x="734" y="1159" on="1"/>
        <pt x="734" y="1150" on="0"/>
        <pt x="760" y="1098" on="1"/>
        <pt x="778" y="1216" on="0"/>
        <pt x="851" y="1271" on="1"/>
        <pt x="882" y="1244" on="0"/>
        <pt x="942" y="1137" on="0"/>
        <pt x="942" y="1108" on="1"/>
        <pt x="969" y="1135" on="0"/>
      </contour>
      <contour>
        <pt x="1420" y="739" on="1"/>
        <pt x="1420" y="760" on="0"/>
        <pt x="1375" y="809" on="1"/>
        <pt x="1326" y="862" on="0"/>
        <pt x="1287" y="862" on="1"/>
        <pt x="1272" y="862" on="0"/>
        <pt x="1249" y="849" on="1"/>
        <pt x="1221" y="833" on="0"/>
        <pt x="1215" y="831" on="1"/>
        <pt x="1348" y="798" on="0"/>
        <pt x="1348" y="750" on="1"/>
        <pt x="1348" y="714" on="0"/>
        <pt x="1299" y="678" on="1"/>
        <pt x="1254" y="647" on="0"/>
        <pt x="1216" y="644" on="1"/>
        <pt x="1253" y="606" on="0"/>
        <pt x="1281" y="606" on="1"/>
        <pt x="1313" y="606" on="0"/>
        <pt x="1365" y="650" on="1"/>
        <pt x="1420" y="697" on="0"/>
      </contour>
      <contour>
        <pt x="1267" y="406" on="1"/>
        <pt x="1267" y="464" on="0"/>
        <pt x="1241" y="511" on="1"/>
        <pt x="1239" y="516" on="0"/>
        <pt x="1165" y="553" on="1"/>
        <pt x="1215" y="487" on="0"/>
        <pt x="1215" y="422" on="1"/>
        <pt x="1215" y="401" on="0"/>
        <pt x="1181" y="360" on="0"/>
        <pt x="1164" y="360" on="1"/>
        <pt x="1151" y="360" on="0"/>
        <pt x="1051" y="402" on="0"/>
        <pt x="1031" y="404" on="1"/>
        <pt x="1066" y="319" on="0"/>
        <pt x="1149" y="319" on="1"/>
        <pt x="1161" y="319" on="0"/>
        <pt x="1229" y="330" on="0"/>
        <pt x="1244" y="330" on="1"/>
        <pt x="1267" y="386" on="0"/>
      </contour>
      <contour>
        <pt x="1072" y="734" on="1"/>
        <pt x="1072" y="818" on="0"/>
        <pt x="925" y="954" on="0"/>
        <pt x="841" y="954" on="1"/>
        <pt x="764" y="954" on="0"/>
        <pt x="696" y="877" on="1"/>
        <pt x="632" y="804" on="0"/>
        <pt x="632" y="734" on="1"/>
        <pt x="632" y="655" on="0"/>
        <pt x="776" y="504" on="0"/>
        <pt x="857" y="504" on="1"/>
        <pt x="941" y="504" on="0"/>
        <pt x="1008" y="582" on="1"/>
        <pt x="1072" y="655" on="0"/>
      </contour>
      <contour>
        <pt x="671" y="1048" on="1"/>
        <pt x="646" y="1149" on="0"/>
        <pt x="534" y="1149" on="1"/>
        <pt x="496" y="1149" on="0"/>
        <pt x="428" y="1126" on="1"/>
        <pt x="428" y="1110" on="0"/>
        <pt x="416" y="1038" on="0"/>
        <pt x="416" y="1026" on="1"/>
        <pt x="416" y="981" on="0"/>
        <pt x="448" y="938" on="1"/>
        <pt x="478" y="927" on="0"/>
        <pt x="528" y="904" on="1"/>
        <pt x="488" y="958" on="0"/>
        <pt x="488" y="1021" on="1"/>
        <pt x="488" y="1087" on="0"/>
        <pt x="545" y="1087" on="1"/>
        <pt x="552" y="1087" on="0"/>
      </contour>
      <contour>
        <pt x="478" y="632" on="1"/>
        <pt x="427" y="636" on="0"/>
        <pt x="388" y="668" on="1"/>
        <pt x="355" y="697" on="0"/>
        <pt x="355" y="723" on="1"/>
        <pt x="355" y="752" on="0"/>
        <pt x="448" y="827" on="0"/>
        <pt x="478" y="825" on="1"/>
        <pt x="460" y="836" on="0"/>
        <pt x="444" y="847" on="1"/>
        <pt x="422" y="862" on="0"/>
        <pt x="406" y="862" on="1"/>
        <pt x="366" y="862" on="0"/>
        <pt x="318" y="809" on="1"/>
        <pt x="273" y="761" on="0"/>
        <pt x="273" y="734" on="1"/>
        <pt x="273" y="705" on="0"/>
        <pt x="315" y="659" on="1"/>
        <pt x="361" y="606" on="0"/>
        <pt x="411" y="606" on="1"/>
        <pt x="430" y="606" on="0"/>
      </contour>
      <contour>
        <pt x="955" y="340" on="1"/>
        <pt x="937" y="298" on="0"/>
        <pt x="919" y="257" on="1"/>
        <pt x="891" y="197" on="0"/>
        <pt x="862" y="197" on="1"/>
        <pt x="838" y="197" on="0"/>
        <pt x="844" y="198" on="1"/>
        <pt x="812" y="238" on="0"/>
        <pt x="777" y="316" on="1"/>
        <pt x="767" y="338" on="0"/>
        <pt x="771" y="401" on="1"/>
        <pt x="769" y="397" on="0"/>
        <pt x="743" y="360" on="1"/>
        <pt x="723" y="331" on="0"/>
        <pt x="723" y="319" on="1"/>
        <pt x="821" y="93" on="0"/>
        <pt x="863" y="63" on="1"/>
        <pt x="963" y="254" on="0"/>
      </contour>
      <contour>
        <pt x="676" y="431" on="1"/>
        <pt x="655" y="423" on="0"/>
        <pt x="632" y="396" on="1"/>
        <pt x="618" y="381" on="0"/>
        <pt x="555" y="381" on="1"/>
        <pt x="506" y="381" on="0"/>
        <pt x="506" y="381" on="1"/>
        <pt x="478" y="390" on="0"/>
        <pt x="478" y="442" on="1"/>
        <pt x="478" y="491" on="0"/>
        <pt x="528" y="541" on="1"/>
        <pt x="473" y="532" on="0"/>
        <pt x="438" y="494" on="1"/>
        <pt x="406" y="461" on="0"/>
        <pt x="406" y="427" on="1"/>
        <pt x="406" y="388" on="0"/>
        <pt x="428" y="320" on="1"/>
        <pt x="446" y="320" on="0"/>
        <pt x="524" y="309" on="0"/>
        <pt x="534" y="309" on="1"/>
        <pt x="583" y="309" on="0"/>
        <pt x="626" y="347" on="1"/>
        <pt x="667" y="384" on="0"/>
      </contour>
      <contour>
        <pt x="969" y="729" on="1"/>
        <pt x="969" y="682" on="0"/>
        <pt x="905" y="616" on="0"/>
        <pt x="857" y="616" on="1"/>
        <pt x="734" y="616" on="0"/>
        <pt x="734" y="739" on="1"/>
        <pt x="734" y="786" on="0"/>
        <pt x="777" y="816" on="1"/>
        <pt x="814" y="841" on="0"/>
        <pt x="851" y="841" on="1"/>
        <pt x="899" y="841" on="0"/>
        <pt x="969" y="775" on="0"/>
      </contour>
    </TTGlyph>
    <TTGlyph name="uniFB52" xMin="224" yMin="-724" xMax="2712" yMax="1240">
      <contour>
        <pt x="2630" y="1210" on="1"/>
        <pt x="2630" y="1153" on="0"/>
        <pt x="2451" y="1053" on="1"/>
        <pt x="2344" y="999" on="0"/>
        <pt x="2237" y="944" on="1"/>
        <pt x="2201" y="956" on="0"/>
        <pt x="2201" y="995" on="1"/>
        <pt x="2201" y="1046" on="0"/>
        <pt x="2234" y="1063" on="1"/>
        <pt x="2436" y="1160" on="0"/>
        <pt x="2562" y="1240" on="1"/>
        <pt x="2617" y="1240" on="1"/>
        <pt x="2630" y="1227" on="0"/>
      </contour>
      <contour>
        <pt x="1903" y="1164" on="1"/>
        <pt x="1903" y="1108" on="0"/>
        <pt x="1673" y="965" on="1"/>
        <pt x="1501" y="859" on="0"/>
        <pt x="1416" y="821" on="1"/>
        <pt x="1402" y="836" on="0"/>
        <pt x="1402" y="852" on="1"/>
        <pt x="1402" y="913" on="0"/>
        <pt x="1427" y="932" on="1"/>
        <pt x="1528" y="1013" on="0"/>
        <pt x="1879" y="1199" on="1"/>
        <pt x="1903" y="1175" on="0"/>
      </contour>
      <contour>
        <pt x="2190" y="427" on="1"/>
        <pt x="2190" y="427" on="0"/>
        <pt x="2157" y="361" on="1"/>
        <pt x="2120" y="361" on="1"/>
        <pt x="2111" y="381" on="0"/>
        <pt x="2084" y="497" on="1"/>
        <pt x="2083" y="503" on="0"/>
        <pt x="2028" y="573" on="1"/>
        <pt x="1975" y="641" on="0"/>
        <pt x="1975" y="662" on="1"/>
        <pt x="1975" y="691" on="0"/>
        <pt x="2014" y="739" on="0"/>
        <pt x="2042" y="739" on="1"/>
        <pt x="2105" y="739" on="0"/>
        <pt x="2153" y="595" on="1"/>
        <pt x="2190" y="483" on="0"/>
      </contour>
      <contour>
        <pt x="2712" y="-330" on="1"/>
        <pt x="2712" y="-367" on="0"/>
        <pt x="2668" y="-404" on="1"/>
        <pt x="2630" y="-438" on="0"/>
        <pt x="2610" y="-438" on="1"/>
        <pt x="2596" y="-438" on="0"/>
        <pt x="2525" y="-407" on="0"/>
        <pt x="2513" y="-407" on="1"/>
        <pt x="2500" y="-407" on="0"/>
        <pt x="2433" y="-469" on="0"/>
        <pt x="2420" y="-469" on="1"/>
        <pt x="2383" y="-469" on="0"/>
        <pt x="2336" y="-422" on="1"/>
        <pt x="2292" y="-380" on="0"/>
        <pt x="2292" y="-356" on="1"/>
        <pt x="2292" y="-326" on="0"/>
        <pt x="2337" y="-288" on="1"/>
        <pt x="2377" y="-253" on="0"/>
        <pt x="2395" y="-253" on="1"/>
        <pt x="2406" y="-253" on="0"/>
        <pt x="2481" y="-294" on="0"/>
        <pt x="2492" y="-294" on="1"/>
        <pt x="2505" y="-294" on="0"/>
        <pt x="2577" y="-233" on="0"/>
        <pt x="2589" y="-233" on="1"/>
        <pt x="2622" y="-233" on="0"/>
        <pt x="2668" y="-275" on="1"/>
        <pt x="2712" y="-314" on="0"/>
      </contour>
      <contour>
        <pt x="1156" y="575" on="1"/>
        <pt x="1156" y="532" on="0"/>
        <pt x="1123" y="496" on="1"/>
        <pt x="1092" y="463" on="0"/>
        <pt x="1064" y="463" on="1"/>
        <pt x="1026" y="463" on="0"/>
        <pt x="987" y="508" on="1"/>
        <pt x="951" y="548" on="0"/>
        <pt x="951" y="570" on="1"/>
        <pt x="951" y="596" on="0"/>
        <pt x="1025" y="668" on="0"/>
        <pt x="1049" y="668" on="1"/>
        <pt x="1083" y="668" on="0"/>
        <pt x="1156" y="604" on="0"/>
      </contour>
      <contour>
        <pt x="2579" y="227" on="1"/>
        <pt x="2579" y="188" on="0"/>
        <pt x="2541" y="119" on="1"/>
        <pt x="2505" y="53" on="0"/>
        <pt x="2483" y="46" on="1"/>
        <pt x="2378" y="8" on="0"/>
        <pt x="2298" y="-5" on="1"/>
        <pt x="2171" y="-28" on="0"/>
        <pt x="1990" y="-28" on="1"/>
        <pt x="1853" y="-28" on="0"/>
        <pt x="1794" y="5" on="1"/>
        <pt x="1782" y="11" on="0"/>
        <pt x="1741" y="51" on="1"/>
        <pt x="1708" y="84" on="0"/>
        <pt x="1694" y="84" on="1"/>
        <pt x="1683" y="84" on="0"/>
        <pt x="1626" y="43" on="1"/>
        <pt x="1565" y="0" on="0"/>
        <pt x="1541" y="-5" on="1"/>
        <pt x="1449" y="-28" on="0"/>
        <pt x="1391" y="-28" on="1"/>
        <pt x="1297" y="-28" on="0"/>
        <pt x="1232" y="11" on="1"/>
        <pt x="1203" y="29" on="0"/>
        <pt x="1151" y="85" on="1"/>
        <pt x="1114" y="125" on="0"/>
        <pt x="1084" y="125" on="1"/>
        <pt x="1063" y="125" on="0"/>
        <pt x="1006" y="76" on="1"/>
        <pt x="953" y="30" on="0"/>
        <pt x="941" y="7" on="1"/>
        <pt x="970" y="-48" on="0"/>
        <pt x="1072" y="-54" on="1"/>
        <pt x="1232" y="-63" on="0"/>
        <pt x="1238" y="-63" on="1"/>
        <pt x="1320" y="-86" on="0"/>
        <pt x="1320" y="-182" on="1"/>
        <pt x="1320" y="-373" on="0"/>
        <pt x="917" y="-486" on="1"/>
        <pt x="871" y="-499" on="0"/>
        <pt x="747" y="-499" on="1"/>
        <pt x="578" y="-499" on="0"/>
        <pt x="460" y="-425" on="1"/>
        <pt x="317" y="-335" on="0"/>
        <pt x="317" y="-162" on="1"/>
        <pt x="317" y="-78" on="0"/>
        <pt x="377" y="26" on="1"/>
        <pt x="440" y="136" on="0"/>
        <pt x="507" y="156" on="1"/>
        <pt x="521" y="141" on="0"/>
        <pt x="521" y="125" on="1"/>
        <pt x="521" y="120" on="0"/>
        <pt x="441" y="-46" on="1"/>
        <pt x="439" y="-50" on="0"/>
        <pt x="439" y="-90" on="1"/>
        <pt x="439" y="-215" on="0"/>
        <pt x="566" y="-286" on="1"/>
        <pt x="670" y="-346" on="0"/>
        <pt x="803" y="-346" on="1"/>
        <pt x="856" y="-346" on="0"/>
        <pt x="1078" y="-271" on="1"/>
        <pt x="1100" y="-264" on="0"/>
        <pt x="1156" y="-227" on="1"/>
        <pt x="1142" y="-203" on="0"/>
        <pt x="1110" y="-203" on="1"/>
        <pt x="1097" y="-203" on="0"/>
        <pt x="1036" y="-212" on="0"/>
        <pt x="1023" y="-212" on="1"/>
        <pt x="961" y="-212" on="0"/>
        <pt x="884" y="-173" on="1"/>
        <pt x="797" y="-128" on="0"/>
        <pt x="797" y="-74" on="1"/>
        <pt x="797" y="-2" on="0"/>
        <pt x="1070" y="288" on="0"/>
        <pt x="1141" y="288" on="1"/>
        <pt x="1174" y="288" on="0"/>
        <pt x="1214" y="247" on="1"/>
        <pt x="1273" y="187" on="0"/>
        <pt x="1287" y="178" on="1"/>
        <pt x="1351" y="135" on="0"/>
        <pt x="1448" y="135" on="1"/>
        <pt x="1549" y="135" on="0"/>
        <pt x="1640" y="188" on="1"/>
        <pt x="1647" y="192" on="0"/>
        <pt x="1692" y="237" on="1"/>
        <pt x="1729" y="274" on="0"/>
        <pt x="1757" y="278" on="1"/>
        <pt x="1789" y="242" on="0"/>
        <pt x="1821" y="205" on="1"/>
        <pt x="1856" y="166" on="0"/>
        <pt x="1889" y="158" on="1"/>
        <pt x="1980" y="135" on="0"/>
        <pt x="2031" y="135" on="1"/>
        <pt x="2127" y="135" on="0"/>
        <pt x="2264" y="156" on="1"/>
        <pt x="2425" y="179" on="0"/>
        <pt x="2467" y="212" on="1"/>
        <pt x="2460" y="222" on="0"/>
        <pt x="2406" y="286" on="1"/>
        <pt x="2365" y="335" on="0"/>
        <pt x="2365" y="350" on="1"/>
        <pt x="2365" y="379" on="0"/>
        <pt x="2387" y="419" on="1"/>
        <pt x="2412" y="463" on="0"/>
        <pt x="2436" y="463" on="1"/>
        <pt x="2495" y="463" on="0"/>
        <pt x="2542" y="357" on="1"/>
        <pt x="2579" y="273" on="0"/>
      </contour>
      <contour>
        <pt x="1883" y="-381" on="1"/>
        <pt x="1883" y="-413" on="0"/>
        <pt x="1800" y="-489" on="0"/>
        <pt x="1780" y="-489" on="1"/>
        <pt x="1756" y="-489" on="0"/>
        <pt x="1668" y="-417" on="0"/>
        <pt x="1668" y="-397" on="1"/>
        <pt x="1668" y="-368" on="0"/>
        <pt x="1702" y="-328" on="1"/>
        <pt x="1738" y="-285" on="0"/>
        <pt x="1771" y="-285" on="1"/>
        <pt x="1800" y="-285" on="0"/>
        <pt x="1883" y="-356" on="0"/>
      </contour>
      <contour>
        <pt x="807" y="487" on="1"/>
        <pt x="807" y="478" on="0"/>
        <pt x="772" y="434" on="1"/>
        <pt x="715" y="361" on="0"/>
        <pt x="548" y="322" on="1"/>
        <pt x="537" y="319" on="0"/>
        <pt x="475" y="319" on="1"/>
        <pt x="462" y="319" on="0"/>
        <pt x="350" y="340" on="0"/>
        <pt x="337" y="340" on="1"/>
        <pt x="324" y="340" on="0"/>
        <pt x="294" y="322" on="1"/>
        <pt x="258" y="302" on="0"/>
        <pt x="249" y="299" on="1"/>
        <pt x="240" y="304" on="0"/>
        <pt x="224" y="314" on="0"/>
        <pt x="224" y="329" on="1"/>
        <pt x="224" y="364" on="0"/>
        <pt x="276" y="419" on="1"/>
        <pt x="326" y="473" on="0"/>
        <pt x="353" y="473" on="1"/>
        <pt x="363" y="473" on="0"/>
        <pt x="472" y="432" on="0"/>
        <pt x="485" y="432" on="1"/>
        <pt x="588" y="432" on="0"/>
        <pt x="761" y="533" on="1"/>
        <pt x="807" y="533" on="1"/>
      </contour>
      <contour>
        <pt x="1432" y="-484" on="1"/>
        <pt x="1432" y="-541" on="0"/>
        <pt x="1351" y="-583" on="1"/>
        <pt x="1299" y="-604" on="0"/>
        <pt x="1246" y="-625" on="1"/>
        <pt x="1232" y="-633" on="0"/>
        <pt x="986" y="-724" on="1"/>
        <pt x="972" y="-711" on="0"/>
        <pt x="972" y="-684" on="1"/>
        <pt x="972" y="-598" on="0"/>
        <pt x="1418" y="-448" on="1"/>
        <pt x="1432" y="-462" on="0"/>
      </contour>
    </TTGlyph>
    <TTGlyph name="uniFB53" xMin="228" yMin="-679" xMax="2511" yMax="1162">
      <contour>
        <pt x="2460" y="1025" on="1"/>
        <pt x="2451" y="990" on="0"/>
        <pt x="2413" y="938" on="1"/>
        <pt x="2278" y="860" on="0"/>
        <pt x="2004" y="733" on="1"/>
        <pt x="1989" y="747" on="0"/>
        <pt x="1989" y="774" on="1"/>
        <pt x="1989" y="837" on="0"/>
        <pt x="2169" y="934" on="1"/>
        <pt x="2286" y="992" on="0"/>
        <pt x="2402" y="1050" on="1"/>
        <pt x="2437" y="1050" on="1"/>
      </contour>
      <contour>
        <pt x="2511" y="124" on="1"/>
        <pt x="2511" y="107" on="0"/>
        <pt x="2451" y="43" on="0"/>
        <pt x="2427" y="29" on="1"/>
        <pt x="2401" y="31" on="0"/>
        <pt x="2355" y="23" on="1"/>
        <pt x="2319" y="7" on="0"/>
        <pt x="2283" y="-8" on="1"/>
        <pt x="2236" y="-35" on="0"/>
        <pt x="2181" y="-95" on="1"/>
        <pt x="2138" y="-95" on="1"/>
        <pt x="2128" y="-96" on="0"/>
        <pt x="2125" y="-82" on="1"/>
        <pt x="2123" y="-72" on="0"/>
        <pt x="2125" y="-54" on="1"/>
        <pt x="2127" y="-42" on="0"/>
        <pt x="2129" y="-31" on="1"/>
        <pt x="2117" y="-18" on="0"/>
        <pt x="2049" y="37" on="1"/>
        <pt x="2020" y="61" on="0"/>
        <pt x="2020" y="98" on="1"/>
        <pt x="2020" y="156" on="0"/>
        <pt x="2227" y="365" on="0"/>
        <pt x="2292" y="365" on="1"/>
        <pt x="2329" y="365" on="0"/>
        <pt x="2355" y="331" on="1"/>
        <pt x="2378" y="301" on="0"/>
        <pt x="2378" y="272" on="1"/>
        <pt x="2378" y="242" on="0"/>
        <pt x="2313" y="160" on="0"/>
        <pt x="2292" y="160" on="1"/>
        <pt x="2278" y="160" on="0"/>
        <pt x="2247" y="177" on="1"/>
        <pt x="2210" y="197" on="0"/>
        <pt x="2201" y="201" on="1"/>
        <pt x="2183" y="184" on="1"/>
        <pt x="2208" y="129" on="0"/>
        <pt x="2286" y="129" on="1"/>
        <pt x="2299" y="129" on="0"/>
        <pt x="2392" y="160" on="0"/>
        <pt x="2405" y="159" on="1"/>
        <pt x="2488" y="159" on="1"/>
        <pt x="2511" y="135" on="0"/>
      </contour>
      <contour>
        <pt x="1887" y="174" on="1"/>
        <pt x="1887" y="106" on="0"/>
        <pt x="1833" y="17" on="1"/>
        <pt x="1786" y="17" on="1"/>
        <pt x="1682" y="927" on="1"/>
        <pt x="1682" y="950" on="0"/>
        <pt x="1730" y="1067" on="0"/>
        <pt x="1747" y="1080" on="1"/>
        <pt x="1793" y="1080" on="1"/>
      </contour>
      <contour>
        <pt x="1406" y="1132" on="1"/>
        <pt x="1406" y="1081" on="0"/>
        <pt x="1379" y="1062" on="1"/>
        <pt x="1316" y="1014" on="0"/>
        <pt x="1195" y="955" on="1"/>
        <pt x="1039" y="877" on="0"/>
        <pt x="1003" y="856" on="1"/>
        <pt x="968" y="856" on="1"/>
        <pt x="955" y="858" on="0"/>
        <pt x="955" y="881" on="1"/>
        <pt x="955" y="959" on="0"/>
        <pt x="1133" y="1053" on="1"/>
        <pt x="1245" y="1108" on="0"/>
        <pt x="1358" y="1162" on="1"/>
        <pt x="1393" y="1162" on="1"/>
        <pt x="1406" y="1149" on="0"/>
      </contour>
      <contour>
        <pt x="1539" y="226" on="1"/>
        <pt x="1539" y="185" on="0"/>
        <pt x="1504" y="71" on="1"/>
        <pt x="1494" y="39" on="0"/>
        <pt x="1453" y="29" on="1"/>
        <pt x="1237" y="-24" on="0"/>
        <pt x="1124" y="-24" on="1"/>
        <pt x="1027" y="-24" on="0"/>
        <pt x="1027" y="42" on="1"/>
        <pt x="1027" y="82" on="0"/>
        <pt x="1049" y="147" on="1"/>
        <pt x="1067" y="154" on="0"/>
        <pt x="1106" y="147" on="1"/>
        <pt x="1155" y="139" on="0"/>
        <pt x="1160" y="139" on="1"/>
        <pt x="1177" y="139" on="0"/>
        <pt x="1379" y="183" on="1"/>
        <pt x="1416" y="190" on="0"/>
        <pt x="1416" y="226" on="1"/>
        <pt x="1416" y="288" on="0"/>
        <pt x="1215" y="407" on="1"/>
        <pt x="1211" y="415" on="0"/>
        <pt x="1211" y="461" on="1"/>
        <pt x="1211" y="569" on="0"/>
        <pt x="1272" y="569" on="1"/>
        <pt x="1330" y="569" on="0"/>
        <pt x="1422" y="477" on="1"/>
        <pt x="1498" y="401" on="0"/>
        <pt x="1504" y="381" on="1"/>
        <pt x="1539" y="270" on="0"/>
      </contour>
      <contour>
        <pt x="699" y="1102" on="1"/>
        <pt x="699" y="1046" on="0"/>
        <pt x="520" y="947" on="1"/>
        <pt x="403" y="886" on="0"/>
        <pt x="286" y="826" on="1"/>
        <pt x="239" y="826" on="1"/>
        <pt x="239" y="830" on="0"/>
        <pt x="228" y="851" on="0"/>
        <pt x="228" y="866" on="1"/>
        <pt x="228" y="918" on="0"/>
        <pt x="314" y="966" on="1"/>
        <pt x="375" y="994" on="0"/>
        <pt x="436" y="1022" on="1"/>
        <pt x="515" y="1067" on="0"/>
        <pt x="674" y="1142" on="1"/>
        <pt x="699" y="1117" on="0"/>
      </contour>
      <contour>
        <pt x="833" y="256" on="1"/>
        <pt x="833" y="236" on="0"/>
        <pt x="789" y="138" on="0"/>
        <pt x="778" y="132" on="1"/>
        <pt x="771" y="131" on="0"/>
        <pt x="735" y="133" on="1"/>
        <pt x="692" y="135" on="0"/>
        <pt x="663" y="135" on="1"/>
        <pt x="433" y="135" on="0"/>
        <pt x="433" y="21" on="1"/>
        <pt x="484" y="-526" on="1"/>
        <pt x="484" y="-627" on="0"/>
        <pt x="440" y="-679" on="1"/>
        <pt x="415" y="-679" on="0"/>
        <pt x="405" y="-666" on="1"/>
        <pt x="384" y="-580" on="0"/>
        <pt x="368" y="-265" on="1"/>
        <pt x="357" y="-251" on="0"/>
        <pt x="344" y="-214" on="1"/>
        <pt x="321" y="-27" on="0"/>
        <pt x="321" y="-9" on="1"/>
        <pt x="321" y="75" on="0"/>
        <pt x="409" y="215" on="1"/>
        <pt x="387" y="235" on="0"/>
        <pt x="387" y="271" on="1"/>
        <pt x="387" y="333" on="0"/>
        <pt x="497" y="477" on="0"/>
        <pt x="541" y="477" on="1"/>
        <pt x="584" y="477" on="0"/>
        <pt x="605" y="462" on="1"/>
        <pt x="677" y="407" on="0"/>
        <pt x="817" y="301" on="1"/>
        <pt x="833" y="261" on="0"/>
      </contour>
      <contour>
        <pt x="556" y="264" on="1"/>
        <pt x="556" y="280" on="0"/>
        <pt x="534" y="302" on="1"/>
        <pt x="499" y="302" on="1"/>
        <pt x="460" y="262" on="0"/>
        <pt x="447" y="233" on="1"/>
        <pt x="461" y="238" on="0"/>
        <pt x="542" y="259" on="0"/>
      </contour>
    </TTGlyph>
    <TTGlyph name="uniFB54" xMin="249" yMin="-262" xMax="2902" yMax="1720">
      <contour>
        <pt x="2594" y="1268" on="1"/>
        <pt x="2594" y="1244" on="0"/>
        <pt x="2555" y="1192" on="0"/>
        <pt x="2543" y="1192" on="1"/>
        <pt x="2530" y="1192" on="0"/>
        <pt x="2484" y="1222" on="0"/>
        <pt x="2471" y="1222" on="1"/>
        <pt x="2476" y="1222" on="0"/>
        <pt x="2340" y="1133" on="1"/>
        <pt x="2192" y="1035" on="0"/>
        <pt x="2076" y="997" on="1"/>
        <pt x="2062" y="1012" on="0"/>
        <pt x="2062" y="1028" on="1"/>
        <pt x="2062" y="1058" on="0"/>
        <pt x="2094" y="1085" on="1"/>
        <pt x="2169" y="1144" on="0"/>
        <pt x="2358" y="1270" on="1"/>
        <pt x="2354" y="1280" on="0"/>
        <pt x="2321" y="1336" on="1"/>
        <pt x="2297" y="1376" on="0"/>
        <pt x="2297" y="1391" on="1"/>
        <pt x="2297" y="1437" on="0"/>
        <pt x="2406" y="1591" on="0"/>
        <pt x="2445" y="1591" on="1"/>
        <pt x="2517" y="1591" on="0"/>
        <pt x="2537" y="1470" on="1"/>
        <pt x="2540" y="1407" on="0"/>
        <pt x="2544" y="1343" on="1"/>
        <pt x="2559" y="1325" on="0"/>
        <pt x="2575" y="1307" on="1"/>
        <pt x="2594" y="1282" on="0"/>
      </contour>
      <contour>
        <pt x="2389" y="791" on="1"/>
        <pt x="2390" y="741" on="0"/>
        <pt x="2363" y="696" on="1"/>
        <pt x="2334" y="649" on="0"/>
        <pt x="2297" y="649" on="1"/>
        <pt x="2262" y="649" on="0"/>
        <pt x="2195" y="705" on="0"/>
        <pt x="2195" y="731" on="1"/>
        <pt x="2195" y="758" on="0"/>
        <pt x="2268" y="844" on="0"/>
        <pt x="2286" y="844" on="1"/>
        <pt x="2304" y="844" on="0"/>
      </contour>
      <contour>
        <pt x="1765" y="1386" on="1"/>
        <pt x="1765" y="1362" on="0"/>
        <pt x="1742" y="1315" on="1"/>
        <pt x="1689" y="1315" on="1"/>
        <pt x="1676" y="1315" on="0"/>
        <pt x="1624" y="1356" on="0"/>
        <pt x="1611" y="1356" on="1"/>
        <pt x="1615" y="1356" on="0"/>
        <pt x="1477" y="1248" on="1"/>
        <pt x="1329" y="1133" on="0"/>
        <pt x="1195" y="1099" on="1"/>
        <pt x="1181" y="1112" on="1"/>
        <pt x="1181" y="1149" on="1"/>
        <pt x="1269" y="1211" on="0"/>
        <pt x="1356" y="1272" on="1"/>
        <pt x="1509" y="1384" on="0"/>
        <pt x="1509" y="1411" on="1"/>
        <pt x="1509" y="1429" on="0"/>
        <pt x="1509" y="1425" on="1"/>
        <pt x="1509" y="1425" on="0"/>
        <pt x="1507" y="1424" on="1"/>
        <pt x="1505" y="1421" on="0"/>
        <pt x="1501" y="1425" on="1"/>
        <pt x="1447" y="1467" on="0"/>
        <pt x="1447" y="1534" on="1"/>
        <pt x="1447" y="1588" on="0"/>
        <pt x="1504" y="1652" on="1"/>
        <pt x="1565" y="1720" on="0"/>
        <pt x="1629" y="1714" on="1"/>
        <pt x="1702" y="1664" on="0"/>
        <pt x="1689" y="1565" on="1"/>
        <pt x="1689" y="1564" on="0"/>
        <pt x="1680" y="1530" on="1"/>
        <pt x="1673" y="1504" on="0"/>
        <pt x="1674" y="1485" on="1"/>
        <pt x="1699" y="1471" on="0"/>
        <pt x="1739" y="1443" on="1"/>
        <pt x="1765" y="1416" on="0"/>
      </contour>
      <contour>
        <pt x="1703" y="981" on="1"/>
        <pt x="1703" y="954" on="0"/>
        <pt x="1676" y="916" on="1"/>
        <pt x="1647" y="874" on="0"/>
        <pt x="1616" y="874" on="1"/>
        <pt x="1588" y="874" on="0"/>
        <pt x="1498" y="940" on="0"/>
        <pt x="1498" y="967" on="1"/>
        <pt x="1498" y="987" on="0"/>
        <pt x="1571" y="1090" on="0"/>
        <pt x="1591" y="1090" on="1"/>
        <pt x="1615" y="1090" on="0"/>
        <pt x="1703" y="1003" on="0"/>
      </contour>
      <contour>
        <pt x="2901" y="212" on="1"/>
        <pt x="2902" y="175" on="0"/>
        <pt x="2827" y="130" on="1"/>
        <pt x="2804" y="116" on="0"/>
        <pt x="2752" y="116" on="1"/>
        <pt x="2740" y="116" on="0"/>
        <pt x="2653" y="127" on="0"/>
        <pt x="2640" y="127" on="1"/>
        <pt x="2627" y="127" on="0"/>
        <pt x="2592" y="116" on="1"/>
        <pt x="2549" y="101" on="0"/>
        <pt x="2539" y="99" on="1"/>
        <pt x="2490" y="88" on="0"/>
        <pt x="2335" y="17" on="1"/>
        <pt x="2240" y="-27" on="0"/>
        <pt x="2072" y="-27" on="1"/>
        <pt x="1969" y="-27" on="0"/>
        <pt x="1917" y="-4" on="1"/>
        <pt x="1828" y="32" on="0"/>
        <pt x="1759" y="147" on="1"/>
        <pt x="1702" y="95" on="0"/>
        <pt x="1588" y="17" on="1"/>
        <pt x="1466" y="-36" on="0"/>
        <pt x="1366" y="-36" on="1"/>
        <pt x="1322" y="-36" on="0"/>
        <pt x="1269" y="-13" on="1"/>
        <pt x="1202" y="16" on="0"/>
        <pt x="1202" y="61" on="1"/>
        <pt x="1202" y="90" on="0"/>
        <pt x="1245" y="178" on="1"/>
        <pt x="1401" y="147" on="0"/>
        <pt x="1380" y="147" on="1"/>
        <pt x="1442" y="147" on="0"/>
        <pt x="1574" y="180" on="1"/>
        <pt x="1595" y="186" on="0"/>
        <pt x="1649" y="224" on="1"/>
        <pt x="1714" y="270" on="0"/>
        <pt x="1714" y="296" on="1"/>
        <pt x="1714" y="309" on="0"/>
        <pt x="1642" y="626" on="0"/>
        <pt x="1642" y="639" on="1"/>
        <pt x="1642" y="653" on="0"/>
        <pt x="1655" y="727" on="1"/>
        <pt x="1662" y="768" on="0"/>
        <pt x="1709" y="792" on="1"/>
        <pt x="1721" y="781" on="0"/>
        <pt x="1740" y="759" on="1"/>
        <pt x="1767" y="621" on="0"/>
        <pt x="1795" y="483" on="1"/>
        <pt x="1831" y="310" on="0"/>
        <pt x="1889" y="216" on="1"/>
        <pt x="1901" y="198" on="0"/>
        <pt x="1932" y="184" on="1"/>
        <pt x="1981" y="159" on="0"/>
        <pt x="1984" y="157" on="1"/>
        <pt x="2037" y="238" on="0"/>
        <pt x="2091" y="319" on="1"/>
        <pt x="2159" y="403" on="0"/>
        <pt x="2245" y="403" on="1"/>
        <pt x="2284" y="403" on="0"/>
        <pt x="2397" y="363" on="1"/>
        <pt x="2533" y="314" on="0"/>
        <pt x="2580" y="303" on="1"/>
        <pt x="2689" y="291" on="0"/>
        <pt x="2901" y="258" on="1"/>
      </contour>
      <contour>
        <pt x="515" y="1468" on="1"/>
        <pt x="515" y="1392" on="0"/>
        <pt x="409" y="1263" on="0"/>
        <pt x="346" y="1263" on="1"/>
        <pt x="303" y="1263" on="0"/>
        <pt x="275" y="1293" on="1"/>
        <pt x="249" y="1320" on="0"/>
        <pt x="249" y="1356" on="1"/>
        <pt x="249" y="1417" on="0"/>
        <pt x="286" y="1495" on="1"/>
        <pt x="332" y="1591" on="0"/>
        <pt x="398" y="1591" on="1"/>
        <pt x="515" y="1591" on="0"/>
      </contour>
      <contour>
        <pt x="495" y="291" on="1"/>
        <pt x="495" y="149" on="0"/>
        <pt x="451" y="77" on="1"/>
        <pt x="414" y="77" on="1"/>
        <pt x="290" y="1037" on="1"/>
        <pt x="287" y="1050" on="0"/>
        <pt x="287" y="1065" on="1"/>
        <pt x="287" y="1093" on="0"/>
        <pt x="306" y="1134" on="1"/>
        <pt x="329" y="1186" on="0"/>
        <pt x="333" y="1201" on="1"/>
        <pt x="381" y="1201" on="1"/>
      </contour>
      <contour>
        <pt x="1089" y="260" on="1"/>
        <pt x="1089" y="158" on="0"/>
        <pt x="1011" y="7" on="1"/>
        <pt x="939" y="-133" on="0"/>
        <pt x="872" y="-186" on="1"/>
        <pt x="829" y="-221" on="0"/>
        <pt x="799" y="-228" on="1"/>
        <pt x="664" y="-262" on="0"/>
        <pt x="608" y="-262" on="1"/>
        <pt x="454" y="-262" on="0"/>
        <pt x="363" y="-218" on="1"/>
        <pt x="363" y="-172" on="1"/>
        <pt x="386" y="-149" on="0"/>
        <pt x="403" y="-149" on="1"/>
        <pt x="414" y="-149" on="0"/>
        <pt x="484" y="-159" on="0"/>
        <pt x="500" y="-159" on="1"/>
        <pt x="646" y="-159" on="0"/>
        <pt x="777" y="-63" on="1"/>
        <pt x="913" y="35" on="0"/>
        <pt x="977" y="201" on="1"/>
        <pt x="965" y="201" on="0"/>
        <pt x="888" y="178" on="0"/>
        <pt x="874" y="178" on="1"/>
        <pt x="804" y="178" on="0"/>
        <pt x="763" y="233" on="1"/>
        <pt x="731" y="277" on="0"/>
        <pt x="731" y="332" on="1"/>
        <pt x="731" y="398" on="0"/>
        <pt x="760" y="470" on="1"/>
        <pt x="800" y="567" on="0"/>
        <pt x="868" y="567" on="1"/>
        <pt x="944" y="567" on="0"/>
        <pt x="1000" y="490" on="1"/>
        <pt x="1054" y="418" on="0"/>
        <pt x="1071" y="306" on="1"/>
        <pt x="1071" y="306" on="0"/>
        <pt x="1089" y="275" on="0"/>
      </contour>
      <contour>
        <pt x="2338" y="188" on="1"/>
        <pt x="2203" y="239" on="0"/>
        <pt x="2204" y="239" on="1"/>
        <pt x="2171" y="239" on="0"/>
        <pt x="2134" y="205" on="1"/>
        <pt x="2103" y="172" on="0"/>
        <pt x="2072" y="138" on="1"/>
        <pt x="2188" y="138" on="1"/>
        <pt x="2254" y="134" on="0"/>
      </contour>
      <contour>
        <pt x="423" y="1434" on="1"/>
        <pt x="389" y="1468" on="0"/>
        <pt x="366" y="1468" on="1"/>
        <pt x="342" y="1455" on="1"/>
        <pt x="342" y="1398" on="1"/>
        <pt x="400" y="1398" on="1"/>
        <pt x="423" y="1419" on="0"/>
      </contour>
      <contour>
        <pt x="893" y="354" on="1"/>
        <pt x="893" y="389" on="0"/>
        <pt x="868" y="414" on="1"/>
        <pt x="843" y="388" on="1"/>
        <pt x="861" y="354" on="0"/>
      </contour>
      <contour>
        <pt x="1595" y="1552" on="1"/>
        <pt x="1595" y="1562" on="0"/>
        <pt x="1584" y="1581" on="1"/>
        <pt x="1574" y="1581" on="0"/>
        <pt x="1556" y="1567" on="1"/>
        <pt x="1570" y="1552" on="0"/>
      </contour>
      <contour>
        <pt x="2444" y="1403" on="1"/>
        <pt x="2444" y="1432" on="0"/>
        <pt x="2433" y="1443" on="1"/>
        <pt x="2417" y="1443" on="0"/>
        <pt x="2417" y="1414" on="1"/>
        <pt x="2427" y="1414" on="0"/>
      </contour>
    </TTGlyph>
    <TTGlyph name="uniFB55" xMin="64" yMin="-708" xMax="3718" yMax="1666">
      <contour>
        <pt x="3504" y="796" on="1"/>
        <pt x="3504" y="779" on="0"/>
        <pt x="3430" y="684" on="0"/>
        <pt x="3411" y="684" on="1"/>
        <pt x="3392" y="684" on="0"/>
        <pt x="3343" y="714" on="1"/>
        <pt x="3288" y="748" on="0"/>
        <pt x="3288" y="771" on="1"/>
        <pt x="3288" y="791" on="0"/>
        <pt x="3315" y="836" on="1"/>
        <pt x="3346" y="889" on="0"/>
        <pt x="3376" y="889" on="1"/>
        <pt x="3413" y="889" on="0"/>
        <pt x="3504" y="822" on="0"/>
      </contour>
      <contour>
        <pt x="2561" y="1322" on="1"/>
        <pt x="2562" y="1286" on="0"/>
        <pt x="2350" y="1158" on="1"/>
        <pt x="2223" y="1085" on="0"/>
        <pt x="2097" y="1013" on="1"/>
        <pt x="2060" y="1013" on="1"/>
        <pt x="2060" y="1076" on="1"/>
        <pt x="2060" y="1114" on="0"/>
        <pt x="2104" y="1140" on="1"/>
        <pt x="2495" y="1370" on="0"/>
        <pt x="2521" y="1370" on="1"/>
        <pt x="2536" y="1370" on="0"/>
        <pt x="2558" y="1358" on="0"/>
        <pt x="2561" y="1358" on="1"/>
      </contour>
      <contour>
        <pt x="3718" y="156" on="1"/>
        <pt x="3718" y="70" on="0"/>
        <pt x="3641" y="-69" on="1"/>
        <pt x="3556" y="-220" on="0"/>
        <pt x="3469" y="-255" on="1"/>
        <pt x="3386" y="-289" on="0"/>
        <pt x="3238" y="-289" on="1"/>
        <pt x="3141" y="-289" on="0"/>
        <pt x="3024" y="-256" on="1"/>
        <pt x="3024" y="-234" on="0"/>
        <pt x="3012" y="-222" on="1"/>
        <pt x="3026" y="-195" on="0"/>
        <pt x="3132" y="-185" on="1"/>
        <pt x="3274" y="-172" on="0"/>
        <pt x="3302" y="-163" on="1"/>
        <pt x="3391" y="-138" on="0"/>
        <pt x="3501" y="-35" on="1"/>
        <pt x="3616" y="72" on="0"/>
        <pt x="3616" y="141" on="1"/>
        <pt x="3616" y="203" on="0"/>
        <pt x="3569" y="234" on="1"/>
        <pt x="3510" y="272" on="0"/>
        <pt x="3496" y="308" on="1"/>
        <pt x="3493" y="316" on="0"/>
        <pt x="3493" y="356" on="1"/>
        <pt x="3493" y="448" on="0"/>
        <pt x="3550" y="448" on="1"/>
        <pt x="3568" y="448" on="0"/>
        <pt x="3617" y="404" on="1"/>
        <pt x="3669" y="356" on="0"/>
        <pt x="3684" y="322" on="1"/>
        <pt x="3718" y="239" on="0"/>
      </contour>
      <contour>
        <pt x="2316" y="760" on="1"/>
        <pt x="2316" y="719" on="0"/>
        <pt x="2283" y="685" on="1"/>
        <pt x="2254" y="653" on="0"/>
        <pt x="2224" y="653" on="1"/>
        <pt x="2198" y="653" on="0"/>
        <pt x="2132" y="711" on="0"/>
        <pt x="2132" y="730" on="1"/>
        <pt x="2132" y="757" on="0"/>
        <pt x="2204" y="848" on="0"/>
        <pt x="2229" y="848" on="1"/>
        <pt x="2241" y="848" on="0"/>
        <pt x="2311" y="795" on="1"/>
        <pt x="2316" y="782" on="0"/>
      </contour>
      <contour>
        <pt x="3697" y="-403" on="1"/>
        <pt x="3697" y="-460" on="0"/>
        <pt x="3673" y="-482" on="1"/>
        <pt x="3619" y="-530" on="0"/>
        <pt x="3401" y="-624" on="1"/>
        <pt x="3206" y="-708" on="0"/>
        <pt x="3192" y="-708" on="1"/>
        <pt x="3177" y="-708" on="0"/>
        <pt x="3161" y="-697" on="0"/>
        <pt x="3157" y="-697" on="1"/>
        <pt x="3157" y="-693" on="0"/>
        <pt x="3145" y="-672" on="0"/>
        <pt x="3145" y="-657" on="1"/>
        <pt x="3145" y="-609" on="0"/>
        <pt x="3329" y="-531" on="1"/>
        <pt x="3443" y="-485" on="0"/>
        <pt x="3558" y="-440" on="1"/>
        <pt x="3652" y="-391" on="0"/>
        <pt x="3657" y="-391" on="1"/>
        <pt x="3672" y="-391" on="0"/>
        <pt x="3694" y="-403" on="0"/>
      </contour>
      <contour>
        <pt x="1856" y="1155" on="1"/>
        <pt x="1856" y="1103" on="0"/>
        <pt x="1812" y="1076" on="1"/>
        <pt x="1668" y="993" on="0"/>
        <pt x="1380" y="818" on="1"/>
        <pt x="1344" y="818" on="1"/>
        <pt x="1344" y="822" on="0"/>
        <pt x="1333" y="833" on="0"/>
        <pt x="1333" y="848" on="1"/>
        <pt x="1333" y="915" on="0"/>
        <pt x="1369" y="939" on="1"/>
        <pt x="1427" y="978" on="0"/>
        <pt x="1808" y="1195" on="1"/>
        <pt x="1842" y="1195" on="1"/>
        <pt x="1856" y="1182" on="0"/>
      </contour>
      <contour>
        <pt x="2962" y="-319" on="1"/>
        <pt x="2962" y="-353" on="0"/>
        <pt x="2917" y="-394" on="1"/>
        <pt x="2877" y="-432" on="0"/>
        <pt x="2859" y="-432" on="1"/>
        <pt x="2848" y="-432" on="0"/>
        <pt x="2798" y="-412" on="0"/>
        <pt x="2787" y="-412" on="1"/>
        <pt x="2774" y="-412" on="0"/>
        <pt x="2703" y="-462" on="0"/>
        <pt x="2690" y="-462" on="1"/>
        <pt x="2658" y="-462" on="0"/>
        <pt x="2594" y="-400" on="1"/>
        <pt x="2591" y="-395" on="0"/>
        <pt x="2591" y="-389" on="1"/>
        <pt x="2591" y="-357" on="0"/>
        <pt x="2667" y="-268" on="0"/>
        <pt x="2695" y="-268" on="1"/>
        <pt x="2708" y="-268" on="0"/>
        <pt x="2734" y="-285" on="1"/>
        <pt x="2771" y="-308" on="0"/>
        <pt x="2771" y="-309" on="1"/>
        <pt x="2795" y="-289" on="0"/>
        <pt x="2820" y="-271" on="1"/>
        <pt x="2848" y="-248" on="0"/>
        <pt x="2864" y="-248" on="1"/>
        <pt x="2896" y="-248" on="0"/>
        <pt x="2962" y="-295" on="0"/>
      </contour>
      <contour>
        <pt x="1927" y="530" on="1"/>
        <pt x="1927" y="510" on="0"/>
        <pt x="1854" y="428" on="0"/>
        <pt x="1835" y="428" on="1"/>
        <pt x="1824" y="428" on="0"/>
        <pt x="1766" y="459" on="0"/>
        <pt x="1753" y="459" on="1"/>
        <pt x="1740" y="459" on="0"/>
        <pt x="1674" y="397" on="0"/>
        <pt x="1661" y="397" on="1"/>
        <pt x="1630" y="397" on="0"/>
        <pt x="1548" y="463" on="0"/>
        <pt x="1548" y="479" on="1"/>
        <pt x="1548" y="506" on="0"/>
        <pt x="1619" y="591" on="0"/>
        <pt x="1640" y="591" on="1"/>
        <pt x="1651" y="591" on="0"/>
        <pt x="1704" y="561" on="0"/>
        <pt x="1717" y="561" on="1"/>
        <pt x="1730" y="561" on="0"/>
        <pt x="1806" y="623" on="0"/>
        <pt x="1820" y="623" on="1"/>
        <pt x="1842" y="623" on="0"/>
        <pt x="1927" y="554" on="0"/>
      </contour>
      <contour>
        <pt x="1067" y="1339" on="1"/>
        <pt x="1067" y="1307" on="0"/>
        <pt x="1021" y="1267" on="1"/>
        <pt x="971" y="1303" on="0"/>
        <pt x="920" y="1319" on="1"/>
        <pt x="748" y="1122" on="0"/>
        <pt x="498" y="1042" on="1"/>
        <pt x="483" y="1054" on="0"/>
        <pt x="474" y="1054" on="1"/>
        <pt x="489" y="1111" on="0"/>
        <pt x="623" y="1197" on="1"/>
        <pt x="772" y="1292" on="0"/>
        <pt x="811" y="1355" on="1"/>
        <pt x="801" y="1382" on="0"/>
        <pt x="767" y="1405" on="1"/>
        <pt x="739" y="1423" on="0"/>
        <pt x="739" y="1467" on="1"/>
        <pt x="739" y="1513" on="0"/>
        <pt x="847" y="1666" on="0"/>
        <pt x="888" y="1666" on="1"/>
        <pt x="977" y="1666" on="0"/>
        <pt x="977" y="1438" on="1"/>
        <pt x="1004" y="1418" on="0"/>
        <pt x="1031" y="1398" on="1"/>
        <pt x="1067" y="1371" on="0"/>
      </contour>
      <contour>
        <pt x="2971" y="223" on="1"/>
        <pt x="2971" y="149" on="0"/>
        <pt x="2925" y="72" on="1"/>
        <pt x="2900" y="29" on="0"/>
        <pt x="2772" y="15" on="1"/>
        <pt x="2729" y="10" on="0"/>
        <pt x="2630" y="-7" on="1"/>
        <pt x="2543" y="-22" on="0"/>
        <pt x="2531" y="-22" on="1"/>
        <pt x="2484" y="-22" on="0"/>
        <pt x="2409" y="6" on="1"/>
        <pt x="2319" y="39" on="0"/>
        <pt x="2299" y="80" on="1"/>
        <pt x="2259" y="50" on="0"/>
        <pt x="2180" y="1" on="1"/>
        <pt x="2129" y="-22" on="0"/>
        <pt x="2060" y="-22" on="1"/>
        <pt x="2001" y="-22" on="0"/>
        <pt x="1928" y="39" on="0"/>
        <pt x="1922" y="39" on="1"/>
        <pt x="1910" y="39" on="0"/>
        <pt x="1887" y="22" on="1"/>
        <pt x="1860" y="3" on="0"/>
        <pt x="1851" y="1" on="1"/>
        <pt x="1804" y="-21" on="0"/>
        <pt x="1718" y="-50" on="1"/>
        <pt x="1655" y="-63" on="0"/>
        <pt x="1548" y="-63" on="1"/>
        <pt x="1430" y="-63" on="0"/>
        <pt x="1298" y="25" on="1"/>
        <pt x="1244" y="62" on="0"/>
        <pt x="1030" y="244" on="1"/>
        <pt x="991" y="242" on="0"/>
        <pt x="982" y="184" on="1"/>
        <pt x="977" y="143" on="0"/>
        <pt x="971" y="103" on="1"/>
        <pt x="938" y="69" on="0"/>
        <pt x="885" y="-9" on="1"/>
        <pt x="882" y="-16" on="0"/>
        <pt x="880" y="-64" on="1"/>
        <pt x="880" y="-74" on="0"/>
        <pt x="879" y="-80" on="1"/>
        <pt x="850" y="-217" on="0"/>
        <pt x="745" y="-217" on="1"/>
        <pt x="733" y="-217" on="0"/>
        <pt x="623" y="-186" on="0"/>
        <pt x="611" y="-186" on="1"/>
        <pt x="600" y="-186" on="0"/>
        <pt x="560" y="-229" on="1"/>
        <pt x="513" y="-280" on="0"/>
        <pt x="492" y="-295" on="1"/>
        <pt x="440" y="-333" on="0"/>
        <pt x="316" y="-398" on="1"/>
        <pt x="252" y="-422" on="0"/>
        <pt x="149" y="-421" on="1"/>
        <pt x="87" y="-421" on="1"/>
        <pt x="64" y="-398" on="1"/>
        <pt x="64" y="-372" on="0"/>
        <pt x="76" y="-365" on="1"/>
        <pt x="444" y="-197" on="0"/>
        <pt x="510" y="-108" on="1"/>
        <pt x="500" y="-69" on="0"/>
        <pt x="497" y="4" on="1"/>
        <pt x="509" y="69" on="0"/>
        <pt x="572" y="121" on="1"/>
        <pt x="633" y="172" on="0"/>
        <pt x="693" y="172" on="1"/>
        <pt x="704" y="172" on="0"/>
        <pt x="796" y="141" on="0"/>
        <pt x="811" y="141" on="1"/>
        <pt x="837" y="141" on="0"/>
        <pt x="893" y="179" on="0"/>
        <pt x="893" y="193" on="1"/>
        <pt x="893" y="260" on="0"/>
        <pt x="753" y="425" on="1"/>
        <pt x="609" y="595" on="0"/>
        <pt x="609" y="596" on="1"/>
        <pt x="608" y="600" on="0"/>
        <pt x="596" y="642" on="1"/>
        <pt x="586" y="679" on="0"/>
        <pt x="586" y="694" on="1"/>
        <pt x="586" y="859" on="0"/>
        <pt x="796" y="999" on="1"/>
        <pt x="885" y="1058" on="0"/>
        <pt x="1131" y="1167" on="1"/>
        <pt x="1331" y="1268" on="0"/>
        <pt x="1706" y="1441" on="1"/>
        <pt x="1740" y="1441" on="1"/>
        <pt x="1747" y="1436" on="0"/>
        <pt x="1763" y="1426" on="0"/>
        <pt x="1763" y="1411" on="1"/>
        <pt x="1763" y="1390" on="0"/>
        <pt x="1679" y="1270" on="0"/>
        <pt x="1658" y="1260" on="1"/>
        <pt x="1389" y="1137" on="0"/>
        <pt x="1122" y="1014" on="1"/>
        <pt x="827" y="872" on="0"/>
        <pt x="688" y="759" on="1"/>
        <pt x="708" y="720" on="0"/>
        <pt x="748" y="685" on="1"/>
        <pt x="896" y="555" on="0"/>
        <pt x="1184" y="310" on="1"/>
        <pt x="1238" y="256" on="0"/>
        <pt x="1341" y="174" on="1"/>
        <pt x="1470" y="100" on="0"/>
        <pt x="1630" y="100" on="1"/>
        <pt x="1751" y="100" on="0"/>
        <pt x="1911" y="182" on="0"/>
        <pt x="1958" y="182" on="1"/>
        <pt x="1969" y="182" on="0"/>
        <pt x="2088" y="141" on="0"/>
        <pt x="2101" y="141" on="1"/>
        <pt x="2128" y="141" on="0"/>
        <pt x="2178" y="161" on="1"/>
        <pt x="2232" y="181" on="0"/>
        <pt x="2241" y="199" on="1"/>
        <pt x="2242" y="213" on="0"/>
        <pt x="2242" y="230" on="1"/>
        <pt x="2242" y="259" on="0"/>
        <pt x="2228" y="392" on="0"/>
        <pt x="2228" y="425" on="1"/>
        <pt x="2228" y="514" on="0"/>
        <pt x="2270" y="561" on="1"/>
        <pt x="2282" y="555" on="0"/>
        <pt x="2301" y="538" on="1"/>
        <pt x="2323" y="496" on="0"/>
        <pt x="2345" y="379" on="1"/>
        <pt x="2365" y="267" on="0"/>
        <pt x="2395" y="222" on="1"/>
        <pt x="2440" y="152" on="0"/>
        <pt x="2541" y="152" on="1"/>
        <pt x="2649" y="152" on="1"/>
        <pt x="2664" y="152" on="0"/>
        <pt x="2829" y="201" on="0"/>
        <pt x="2839" y="209" on="1"/>
        <pt x="2834" y="220" on="0"/>
        <pt x="2797" y="284" on="1"/>
        <pt x="2767" y="337" on="0"/>
        <pt x="2767" y="351" on="1"/>
        <pt x="2767" y="358" on="0"/>
        <pt x="2786" y="405" on="1"/>
        <pt x="2808" y="455" on="0"/>
        <pt x="2822" y="469" on="1"/>
        <pt x="2887" y="440" on="0"/>
        <pt x="2931" y="360" on="1"/>
        <pt x="2971" y="289" on="0"/>
      </contour>
      <contour>
        <pt x="555" y="1326" on="1"/>
        <pt x="552" y="1284" on="0"/>
        <pt x="473" y="1214" on="1"/>
        <pt x="400" y="1149" on="0"/>
        <pt x="356" y="1137" on="1"/>
        <pt x="311" y="1126" on="0"/>
        <pt x="212" y="1094" on="1"/>
        <pt x="167" y="1104" on="1"/>
        <pt x="167" y="1144" on="1"/>
        <pt x="264" y="1197" on="0"/>
        <pt x="330" y="1262" on="1"/>
        <pt x="315" y="1278" on="0"/>
        <pt x="299" y="1278" on="1"/>
        <pt x="283" y="1278" on="0"/>
        <pt x="183" y="1207" on="1"/>
        <pt x="146" y="1207" on="1"/>
        <pt x="146" y="1261" on="1"/>
        <pt x="146" y="1283" on="0"/>
        <pt x="211" y="1333" on="1"/>
        <pt x="264" y="1373" on="0"/>
        <pt x="292" y="1386" on="1"/>
        <pt x="301" y="1390" on="0"/>
        <pt x="340" y="1390" on="1"/>
        <pt x="350" y="1390" on="0"/>
        <pt x="469" y="1376" on="1"/>
        <pt x="482" y="1375" on="0"/>
      </contour>
      <contour>
        <pt x="878" y="1485" on="1"/>
        <pt x="878" y="1514" on="0"/>
        <pt x="867" y="1525" on="1"/>
        <pt x="851" y="1525" on="0"/>
        <pt x="851" y="1496" on="1"/>
        <pt x="861" y="1496" on="0"/>
      </contour>
      <contour>
        <pt x="747" y="-48" on="1"/>
        <pt x="738" y="-38" on="0"/>
        <pt x="736" y="-24" on="1"/>
        <pt x="657" y="28" on="0"/>
        <pt x="649" y="28" on="1"/>
        <pt x="615" y="28" on="1"/>
        <pt x="615" y="-9" on="1"/>
        <pt x="669" y="-63" on="0"/>
        <pt x="712" y="-63" on="1"/>
        <pt x="732" y="-63" on="0"/>
      </contour>
    </TTGlyph>
    <TTGlyph name="uniFB56" xMin="206" yMin="-337" xMax="2202" yMax="1248">
      <contour>
        <pt x="1250" y="747" on="1"/>
        <pt x="1250" y="720" on="0"/>
        <pt x="1177" y="635" on="0"/>
        <pt x="1158" y="635" on="1"/>
        <pt x="1125" y="635" on="0"/>
        <pt x="1088" y="678" on="1"/>
        <pt x="1056" y="717" on="0"/>
        <pt x="1056" y="737" on="1"/>
        <pt x="1056" y="781" on="0"/>
        <pt x="1088" y="812" on="1"/>
        <pt x="1118" y="840" on="0"/>
        <pt x="1148" y="840" on="1"/>
        <pt x="1180" y="840" on="0"/>
        <pt x="1217" y="802" on="1"/>
        <pt x="1250" y="768" on="0"/>
      </contour>
      <contour>
        <pt x="2181" y="-32" on="1"/>
        <pt x="2172" y="-59" on="0"/>
        <pt x="2163" y="-86" on="1"/>
        <pt x="2151" y="-119" on="0"/>
        <pt x="2134" y="-130" on="1"/>
        <pt x="2071" y="-170" on="0"/>
        <pt x="1935" y="-231" on="1"/>
        <pt x="1784" y="-299" on="0"/>
        <pt x="1717" y="-337" on="1"/>
        <pt x="1683" y="-337" on="1"/>
        <pt x="1670" y="-324" on="0"/>
        <pt x="1670" y="-291" on="1"/>
        <pt x="1670" y="-235" on="0"/>
        <pt x="1773" y="-183" on="1"/>
        <pt x="1851" y="-152" on="0"/>
        <pt x="1929" y="-120" on="1"/>
        <pt x="1996" y="-86" on="0"/>
        <pt x="2125" y="-20" on="1"/>
        <pt x="2148" y="-20" on="0"/>
        <pt x="2179" y="-32" on="0"/>
      </contour>
      <contour>
        <pt x="841" y="1213" on="1"/>
        <pt x="841" y="1160" on="0"/>
        <pt x="624" y="1012" on="1"/>
        <pt x="505" y="936" on="0"/>
        <pt x="387" y="860" on="1"/>
        <pt x="376" y="859" on="0"/>
        <pt x="339" y="890" on="0"/>
        <pt x="339" y="906" on="1"/>
        <pt x="339" y="947" on="0"/>
        <pt x="403" y="999" on="1"/>
        <pt x="413" y="1001" on="0"/>
        <pt x="434" y="1005" on="1"/>
        <pt x="639" y="1165" on="0"/>
        <pt x="826" y="1248" on="1"/>
        <pt x="841" y="1235" on="0"/>
      </contour>
      <contour>
        <pt x="2202" y="287" on="1"/>
        <pt x="2202" y="215" on="0"/>
        <pt x="2080" y="161" on="1"/>
        <pt x="2017" y="140" on="0"/>
        <pt x="1953" y="120" on="1"/>
        <pt x="1726" y="20" on="0"/>
        <pt x="1495" y="20" on="1"/>
        <pt x="1401" y="20" on="0"/>
        <pt x="1372" y="36" on="1"/>
        <pt x="1345" y="59" on="0"/>
        <pt x="1317" y="82" on="1"/>
        <pt x="1262" y="35" on="0"/>
        <pt x="1207" y="-11" on="1"/>
        <pt x="1164" y="-40" on="0"/>
        <pt x="1101" y="-40" on="1"/>
        <pt x="1046" y="-40" on="1"/>
        <pt x="874" y="-40" on="0"/>
        <pt x="806" y="125" on="1"/>
        <pt x="801" y="139" on="0"/>
        <pt x="784" y="164" on="1"/>
        <pt x="716" y="68" on="0"/>
        <pt x="664" y="44" on="1"/>
        <pt x="607" y="17" on="0"/>
        <pt x="491" y="-9" on="1"/>
        <pt x="393" y="-31" on="0"/>
        <pt x="364" y="-31" on="1"/>
        <pt x="308" y="-31" on="0"/>
        <pt x="260" y="0" on="1"/>
        <pt x="206" y="33" on="0"/>
        <pt x="206" y="82" on="1"/>
        <pt x="206" y="113" on="0"/>
        <pt x="261" y="194" on="1"/>
        <pt x="362" y="143" on="0"/>
        <pt x="405" y="143" on="1"/>
        <pt x="511" y="143" on="0"/>
        <pt x="619" y="186" on="1"/>
        <pt x="752" y="240" on="0"/>
        <pt x="748" y="322" on="1"/>
        <pt x="666" y="650" on="1"/>
        <pt x="677" y="682" on="0"/>
        <pt x="688" y="713" on="1"/>
        <pt x="705" y="750" on="0"/>
        <pt x="744" y="768" on="1"/>
        <pt x="761" y="756" on="0"/>
        <pt x="785" y="734" on="1"/>
        <pt x="811" y="608" on="0"/>
        <pt x="835" y="482" on="1"/>
        <pt x="870" y="327" on="0"/>
        <pt x="915" y="222" on="1"/>
        <pt x="932" y="182" on="0"/>
        <pt x="991" y="156" on="1"/>
        <pt x="1043" y="133" on="0"/>
        <pt x="1096" y="133" on="1"/>
        <pt x="1164" y="133" on="0"/>
        <pt x="1207" y="161" on="1"/>
        <pt x="1255" y="203" on="0"/>
        <pt x="1305" y="245" on="1"/>
        <pt x="1340" y="245" on="1"/>
        <pt x="1360" y="213" on="0"/>
        <pt x="1374" y="197" on="1"/>
        <pt x="1404" y="164" on="0"/>
        <pt x="1431" y="163" on="1"/>
        <pt x="1529" y="163" on="1"/>
        <pt x="1535" y="181" on="0"/>
        <pt x="1527" y="216" on="1"/>
        <pt x="1516" y="260" on="0"/>
        <pt x="1516" y="266" on="1"/>
        <pt x="1516" y="278" on="0"/>
        <pt x="1537" y="318" on="1"/>
        <pt x="1560" y="363" on="0"/>
        <pt x="1564" y="375" on="1"/>
        <pt x="1577" y="422" on="0"/>
        <pt x="1612" y="488" on="1"/>
        <pt x="1626" y="516" on="0"/>
        <pt x="1781" y="614" on="0"/>
        <pt x="1818" y="614" on="1"/>
        <pt x="1854" y="614" on="0"/>
        <pt x="1954" y="559" on="1"/>
        <pt x="1977" y="546" on="0"/>
        <pt x="2034" y="474" on="0"/>
        <pt x="2039" y="454" on="1"/>
        <pt x="2030" y="443" on="0"/>
        <pt x="2023" y="433" on="1"/>
        <pt x="2012" y="419" on="0"/>
        <pt x="1998" y="419" on="1"/>
        <pt x="1984" y="419" on="0"/>
        <pt x="1966" y="435" on="1"/>
        <pt x="1945" y="455" on="0"/>
        <pt x="1939" y="457" on="1"/>
        <pt x="1910" y="471" on="0"/>
        <pt x="1870" y="471" on="1"/>
        <pt x="1839" y="471" on="0"/>
        <pt x="1749" y="429" on="1"/>
        <pt x="1649" y="383" on="0"/>
        <pt x="1649" y="348" on="1"/>
        <pt x="1649" y="309" on="0"/>
        <pt x="1717" y="254" on="1"/>
        <pt x="1778" y="205" on="0"/>
        <pt x="1798" y="205" on="1"/>
        <pt x="1907" y="205" on="0"/>
        <pt x="2167" y="328" on="1"/>
        <pt x="2178" y="320" on="0"/>
        <pt x="2188" y="314" on="1"/>
        <pt x="2202" y="304" on="0"/>
      </contour>
    </TTGlyph>
    <TTGlyph name="uniFB57" xMin="308" yMin="-696" xMax="1915" yMax="1842">
      <contour>
        <pt x="1547" y="1500" on="1"/>
        <pt x="1547" y="1457" on="0"/>
        <pt x="1500" y="1434" on="1"/>
        <pt x="1424" y="1484" on="0"/>
        <pt x="1408" y="1484" on="1"/>
        <pt x="1394" y="1484" on="0"/>
        <pt x="1357" y="1448" on="1"/>
        <pt x="1326" y="1416" on="0"/>
        <pt x="1295" y="1386" on="1"/>
        <pt x="1242" y="1339" on="0"/>
        <pt x="1103" y="1270" on="1"/>
        <pt x="1068" y="1270" on="1"/>
        <pt x="1055" y="1283" on="0"/>
        <pt x="1055" y="1300" on="1"/>
        <pt x="1055" y="1316" on="0"/>
        <pt x="1301" y="1532" on="1"/>
        <pt x="1278" y="1554" on="0"/>
        <pt x="1233" y="1598" on="1"/>
        <pt x="1219" y="1613" on="0"/>
        <pt x="1219" y="1664" on="1"/>
        <pt x="1219" y="1702" on="0"/>
        <pt x="1268" y="1769" on="1"/>
        <pt x="1324" y="1842" on="0"/>
        <pt x="1378" y="1842" on="1"/>
        <pt x="1462" y="1842" on="0"/>
        <pt x="1462" y="1703" on="1"/>
        <pt x="1462" y="1679" on="0"/>
        <pt x="1457" y="1623" on="0"/>
        <pt x="1457" y="1624" on="1"/>
        <pt x="1461" y="1616" on="0"/>
        <pt x="1508" y="1566" on="1"/>
        <pt x="1547" y="1527" on="0"/>
      </contour>
      <contour>
        <pt x="963" y="1510" on="1"/>
        <pt x="963" y="1440" on="0"/>
        <pt x="914" y="1384" on="1"/>
        <pt x="862" y="1324" on="0"/>
        <pt x="775" y="1307" on="1"/>
        <pt x="760" y="1304" on="0"/>
        <pt x="726" y="1286" on="1"/>
        <pt x="695" y="1270" on="0"/>
        <pt x="682" y="1270" on="1"/>
        <pt x="605" y="1270" on="0"/>
        <pt x="605" y="1362" on="1"/>
        <pt x="605" y="1391" on="0"/>
        <pt x="626" y="1437" on="1"/>
        <pt x="653" y="1496" on="0"/>
        <pt x="692" y="1505" on="1"/>
        <pt x="715" y="1492" on="0"/>
        <pt x="715" y="1458" on="1"/>
        <pt x="714" y="1407" on="0"/>
        <pt x="715" y="1402" on="1"/>
        <pt x="750" y="1409" on="0"/>
        <pt x="759" y="1448" on="1"/>
        <pt x="775" y="1511" on="0"/>
        <pt x="791" y="1535" on="1"/>
        <pt x="827" y="1535" on="1"/>
        <pt x="832" y="1515" on="0"/>
        <pt x="848" y="1474" on="1"/>
        <pt x="872" y="1478" on="0"/>
        <pt x="881" y="1527" on="1"/>
        <pt x="893" y="1584" on="0"/>
        <pt x="927" y="1607" on="1"/>
        <pt x="963" y="1578" on="0"/>
      </contour>
      <contour>
        <pt x="1914" y="1304" on="1"/>
        <pt x="1915" y="1263" on="0"/>
        <pt x="1816" y="1192" on="1"/>
        <pt x="1762" y="1158" on="0"/>
        <pt x="1708" y="1123" on="1"/>
        <pt x="1585" y="1043" on="0"/>
        <pt x="1361" y="884" on="1"/>
        <pt x="1281" y="831" on="0"/>
        <pt x="1202" y="777" on="1"/>
        <pt x="1098" y="701" on="0"/>
        <pt x="1065" y="631" on="1"/>
        <pt x="1210" y="555" on="0"/>
        <pt x="1356" y="480" on="1"/>
        <pt x="1506" y="383" on="0"/>
        <pt x="1506" y="251" on="1"/>
        <pt x="1506" y="170" on="0"/>
        <pt x="1449" y="97" on="1"/>
        <pt x="1387" y="16" on="0"/>
        <pt x="1286" y="-4" on="1"/>
        <pt x="1281" y="-4" on="0"/>
        <pt x="1261" y="-13" on="1"/>
        <pt x="1244" y="-20" on="0"/>
        <pt x="1229" y="-20" on="1"/>
        <pt x="1196" y="-20" on="0"/>
        <pt x="1093" y="31" on="1"/>
        <pt x="1076" y="-6" on="0"/>
        <pt x="1059" y="-111" on="1"/>
        <pt x="1044" y="-199" on="0"/>
        <pt x="1009" y="-251" on="1"/>
        <pt x="966" y="-315" on="0"/>
        <pt x="835" y="-370" on="1"/>
        <pt x="717" y="-420" on="0"/>
        <pt x="646" y="-420" on="1"/>
        <pt x="589" y="-420" on="1"/>
        <pt x="516" y="-420" on="0"/>
        <pt x="415" y="-339" on="1"/>
        <pt x="310" y="-254" on="0"/>
        <pt x="310" y="-179" on="1"/>
        <pt x="310" y="-170" on="0"/>
        <pt x="308" y="-131" on="0"/>
        <pt x="308" y="-117" on="1"/>
        <pt x="308" y="36" on="0"/>
        <pt x="424" y="143" on="1"/>
        <pt x="471" y="143" on="1"/>
        <pt x="471" y="85" on="1"/>
        <pt x="471" y="73" on="0"/>
        <pt x="431" y="-38" on="0"/>
        <pt x="431" y="-51" on="1"/>
        <pt x="431" y="-160" on="0"/>
        <pt x="531" y="-211" on="1"/>
        <pt x="600" y="-245" on="0"/>
        <pt x="697" y="-245" on="1"/>
        <pt x="736" y="-245" on="0"/>
        <pt x="884" y="-182" on="1"/>
        <pt x="929" y="-163" on="0"/>
        <pt x="973" y="-96" on="1"/>
        <pt x="840" y="864" on="1"/>
        <pt x="834" y="985" on="0"/>
        <pt x="873" y="1085" on="1"/>
        <pt x="920" y="1085" on="1"/>
        <pt x="945" y="1040" on="0"/>
        <pt x="956" y="913" on="1"/>
        <pt x="967" y="775" on="0"/>
        <pt x="981" y="736" on="1"/>
        <pt x="986" y="736" on="0"/>
        <pt x="996" y="739" on="1"/>
        <pt x="1130" y="921" on="0"/>
        <pt x="1416" y="1105" on="1"/>
        <pt x="1652" y="1248" on="0"/>
        <pt x="1889" y="1393" on="1"/>
        <pt x="1904" y="1380" on="0"/>
        <pt x="1914" y="1380" on="1"/>
      </contour>
      <contour>
        <pt x="1127" y="-425" on="1"/>
        <pt x="1127" y="-489" on="0"/>
        <pt x="1039" y="-537" on="1"/>
        <pt x="968" y="-567" on="0"/>
        <pt x="899" y="-597" on="1"/>
        <pt x="804" y="-638" on="0"/>
        <pt x="670" y="-696" on="1"/>
        <pt x="665" y="-691" on="0"/>
        <pt x="641" y="-678" on="0"/>
        <pt x="636" y="-672" on="1"/>
        <pt x="632" y="-612" on="0"/>
        <pt x="661" y="-594" on="1"/>
        <pt x="735" y="-548" on="0"/>
        <pt x="863" y="-489" on="1"/>
        <pt x="1056" y="-401" on="0"/>
        <pt x="1080" y="-389" on="1"/>
        <pt x="1114" y="-389" on="1"/>
        <pt x="1127" y="-403" on="0"/>
      </contour>
      <contour>
        <pt x="1393" y="252" on="1"/>
        <pt x="1321" y="309" on="0"/>
        <pt x="1226" y="368" on="1"/>
        <pt x="1129" y="429" on="0"/>
        <pt x="1110" y="429" on="1"/>
        <pt x="1056" y="429" on="1"/>
        <pt x="1056" y="355" on="1"/>
        <pt x="1055" y="289" on="0"/>
        <pt x="1113" y="228" on="1"/>
        <pt x="1173" y="164" on="0"/>
        <pt x="1244" y="164" on="1"/>
        <pt x="1288" y="164" on="0"/>
        <pt x="1321" y="183" on="1"/>
        <pt x="1354" y="206" on="0"/>
        <pt x="1388" y="229" on="1"/>
        <pt x="1392" y="237" on="0"/>
      </contour>
      <contour>
        <pt x="1354" y="1665" on="1"/>
        <pt x="1354" y="1694" on="0"/>
        <pt x="1343" y="1706" on="1"/>
        <pt x="1327" y="1706" on="0"/>
        <pt x="1327" y="1676" on="1"/>
        <pt x="1337" y="1676" on="0"/>
      </contour>
    </TTGlyph>
    <TTGlyph name="uniFB58" xMin="173" yMin="-678" xMax="3562" yMax="1482">
      <contour>
        <pt x="3562" y="1447" on="1"/>
        <pt x="3562" y="1375" on="0"/>
        <pt x="3323" y="1240" on="1"/>
        <pt x="3143" y="1138" on="0"/>
        <pt x="3046" y="1103" on="1"/>
        <pt x="3012" y="1103" on="1"/>
        <pt x="2999" y="1117" on="0"/>
        <pt x="2999" y="1140" on="1"/>
        <pt x="2999" y="1184" on="0"/>
        <pt x="3211" y="1308" on="1"/>
        <pt x="3363" y="1395" on="0"/>
        <pt x="3515" y="1482" on="1"/>
        <pt x="3549" y="1482" on="1"/>
        <pt x="3562" y="1469" on="0"/>
      </contour>
      <contour>
        <pt x="2753" y="1239" on="1"/>
        <pt x="2695" y="1182" on="0"/>
        <pt x="2601" y="1120" on="1"/>
        <pt x="2483" y="1042" on="0"/>
        <pt x="2419" y="1042" on="1"/>
        <pt x="2377" y="1042" on="1"/>
        <pt x="2364" y="1055" on="1"/>
        <pt x="2364" y="1103" on="1"/>
        <pt x="2458" y="1153" on="0"/>
        <pt x="2518" y="1201" on="1"/>
        <pt x="2494" y="1226" on="0"/>
        <pt x="2456" y="1226" on="1"/>
        <pt x="2416" y="1226" on="0"/>
        <pt x="2373" y="1188" on="1"/>
        <pt x="2332" y="1152" on="0"/>
        <pt x="2304" y="1157" on="1"/>
        <pt x="2304" y="1160" on="0"/>
        <pt x="2292" y="1176" on="0"/>
        <pt x="2292" y="1190" on="1"/>
        <pt x="2292" y="1251" on="0"/>
        <pt x="2386" y="1304" on="1"/>
        <pt x="2464" y="1349" on="0"/>
        <pt x="2508" y="1349" on="1"/>
        <pt x="2491" y="1349" on="0"/>
        <pt x="2753" y="1316" on="1"/>
      </contour>
      <contour>
        <pt x="3551" y="177" on="1"/>
        <pt x="3551" y="18" on="0"/>
        <pt x="3460" y="18" on="1"/>
        <pt x="3447" y="18" on="0"/>
        <pt x="3227" y="90" on="0"/>
        <pt x="3214" y="90" on="1"/>
        <pt x="3202" y="90" on="0"/>
        <pt x="3171" y="52" on="1"/>
        <pt x="3136" y="10" on="0"/>
        <pt x="3119" y="1" on="1"/>
        <pt x="3051" y="-32" on="0"/>
        <pt x="2958" y="-32" on="1"/>
        <pt x="2827" y="-32" on="0"/>
        <pt x="2758" y="39" on="1"/>
        <pt x="2694" y="-27" on="0"/>
        <pt x="2648" y="-49" on="1"/>
        <pt x="2621" y="-63" on="0"/>
        <pt x="2574" y="-63" on="1"/>
        <pt x="2561" y="-63" on="0"/>
        <pt x="2479" y="-43" on="0"/>
        <pt x="2467" y="-43" on="1"/>
        <pt x="2454" y="-43" on="0"/>
        <pt x="2300" y="-73" on="0"/>
        <pt x="2287" y="-73" on="1"/>
        <pt x="2276" y="-73" on="0"/>
        <pt x="2151" y="-43" on="0"/>
        <pt x="2139" y="-43" on="1"/>
        <pt x="2128" y="-43" on="0"/>
        <pt x="2047" y="-69" on="0"/>
        <pt x="2032" y="-71" on="1"/>
        <pt x="1885" y="-84" on="0"/>
        <pt x="1816" y="-84" on="1"/>
        <pt x="1723" y="-84" on="0"/>
        <pt x="1685" y="-72" on="1"/>
        <pt x="1612" y="-48" on="0"/>
        <pt x="1579" y="32" on="1"/>
        <pt x="1573" y="45" on="0"/>
        <pt x="1579" y="79" on="1"/>
        <pt x="1586" y="124" on="0"/>
        <pt x="1586" y="127" on="1"/>
        <pt x="1586" y="165" on="1"/>
        <pt x="1580" y="172" on="0"/>
        <pt x="1566" y="172" on="1"/>
        <pt x="1548" y="172" on="0"/>
        <pt x="1452" y="134" on="0"/>
        <pt x="1430" y="118" on="1"/>
        <pt x="1252" y="-22" on="0"/>
        <pt x="1095" y="-22" on="1"/>
        <pt x="994" y="-22" on="0"/>
        <pt x="930" y="25" on="1"/>
        <pt x="882" y="60" on="0"/>
        <pt x="801" y="172" on="1"/>
        <pt x="788" y="172" on="0"/>
        <pt x="764" y="143" on="1"/>
        <pt x="733" y="102" on="0"/>
        <pt x="724" y="93" on="1"/>
        <pt x="674" y="50" on="0"/>
        <pt x="559" y="15" on="1"/>
        <pt x="543" y="5" on="0"/>
        <pt x="507" y="-9" on="1"/>
        <pt x="495" y="-12" on="0"/>
        <pt x="414" y="-12" on="1"/>
        <pt x="255" y="-12" on="0"/>
        <pt x="255" y="75" on="1"/>
        <pt x="255" y="84" on="0"/>
        <pt x="276" y="169" on="0"/>
        <pt x="276" y="189" on="1"/>
        <pt x="278" y="191" on="0"/>
        <pt x="279" y="192" on="1"/>
        <pt x="290" y="202" on="0"/>
        <pt x="316" y="202" on="1"/>
        <pt x="329" y="202" on="0"/>
        <pt x="352" y="186" on="1"/>
        <pt x="378" y="166" on="0"/>
        <pt x="384" y="164" on="1"/>
        <pt x="419" y="152" on="0"/>
        <pt x="496" y="152" on="1"/>
        <pt x="534" y="152" on="0"/>
        <pt x="637" y="206" on="1"/>
        <pt x="756" y="270" on="0"/>
        <pt x="756" y="325" on="1"/>
        <pt x="756" y="335" on="0"/>
        <pt x="727" y="431" on="1"/>
        <pt x="695" y="536" on="0"/>
        <pt x="687" y="575" on="1"/>
        <pt x="685" y="590" on="0"/>
        <pt x="685" y="648" on="1"/>
        <pt x="685" y="736" on="0"/>
        <pt x="729" y="806" on="1"/>
        <pt x="768" y="796" on="0"/>
        <pt x="785" y="711" on="1"/>
        <pt x="797" y="645" on="0"/>
        <pt x="810" y="578" on="1"/>
        <pt x="843" y="460" on="0"/>
        <pt x="877" y="343" on="1"/>
        <pt x="916" y="224" on="0"/>
        <pt x="996" y="182" on="1"/>
        <pt x="1049" y="257" on="0"/>
        <pt x="1100" y="333" on="1"/>
        <pt x="1182" y="448" on="0"/>
        <pt x="1263" y="448" on="1"/>
        <pt x="1258" y="448" on="0"/>
        <pt x="1610" y="356" on="0"/>
        <pt x="1714" y="356" on="1"/>
        <pt x="1710" y="356" on="0"/>
        <pt x="1788" y="364" on="1"/>
        <pt x="1851" y="370" on="0"/>
        <pt x="1882" y="365" on="1"/>
        <pt x="1882" y="361" on="0"/>
        <pt x="1893" y="340" on="0"/>
        <pt x="1893" y="325" on="1"/>
        <pt x="1893" y="251" on="0"/>
        <pt x="1793" y="221" on="1"/>
        <pt x="1683" y="188" on="0"/>
        <pt x="1678" y="177" on="1"/>
        <pt x="1719" y="90" on="0"/>
        <pt x="1842" y="90" on="1"/>
        <pt x="2014" y="90" on="0"/>
        <pt x="2101" y="113" on="1"/>
        <pt x="2150" y="125" on="0"/>
        <pt x="2203" y="202" on="1"/>
        <pt x="2208" y="202" on="0"/>
        <pt x="2245" y="191" on="0"/>
        <pt x="2250" y="191" on="1"/>
        <pt x="2252" y="157" on="0"/>
        <pt x="2241" y="86" on="1"/>
        <pt x="2248" y="79" on="0"/>
        <pt x="2287" y="79" on="1"/>
        <pt x="2318" y="79" on="0"/>
        <pt x="2375" y="93" on="1"/>
        <pt x="2441" y="110" on="0"/>
        <pt x="2453" y="129" on="1"/>
        <pt x="2529" y="249" on="0"/>
        <pt x="2577" y="242" on="1"/>
        <pt x="2590" y="202" on="0"/>
        <pt x="2568" y="138" on="1"/>
        <pt x="2586" y="120" on="0"/>
        <pt x="2625" y="120" on="1"/>
        <pt x="2678" y="120" on="0"/>
        <pt x="2704" y="159" on="1"/>
        <pt x="2751" y="232" on="0"/>
        <pt x="2787" y="263" on="1"/>
        <pt x="2823" y="263" on="1"/>
        <pt x="2830" y="247" on="0"/>
        <pt x="2837" y="190" on="1"/>
        <pt x="2898" y="141" on="0"/>
        <pt x="2999" y="141" on="1"/>
        <pt x="3102" y="141" on="0"/>
        <pt x="3144" y="174" on="1"/>
        <pt x="3199" y="251" on="0"/>
        <pt x="3254" y="328" on="1"/>
        <pt x="3360" y="469" on="0"/>
        <pt x="3414" y="469" on="1"/>
        <pt x="3430" y="469" on="0"/>
        <pt x="3490" y="417" on="0"/>
        <pt x="3496" y="393" on="1"/>
        <pt x="3551" y="202" on="0"/>
      </contour>
      <contour>
        <pt x="1402" y="-258" on="1"/>
        <pt x="1402" y="-289" on="0"/>
        <pt x="1365" y="-326" on="1"/>
        <pt x="1333" y="-360" on="0"/>
        <pt x="1320" y="-360" on="1"/>
        <pt x="1308" y="-360" on="0"/>
        <pt x="1208" y="-298" on="1"/>
        <pt x="1208" y="-253" on="0"/>
        <pt x="1223" y="-211" on="1"/>
        <pt x="1244" y="-155" on="0"/>
        <pt x="1279" y="-155" on="1"/>
        <pt x="1315" y="-155" on="0"/>
        <pt x="1402" y="-228" on="0"/>
      </contour>
      <contour>
        <pt x="1689" y="-350" on="1"/>
        <pt x="1689" y="-427" on="0"/>
        <pt x="1450" y="-527" on="1"/>
        <pt x="1367" y="-566" on="0"/>
        <pt x="1201" y="-636" on="1"/>
        <pt x="1177" y="-612" on="0"/>
        <pt x="1177" y="-596" on="1"/>
        <pt x="1177" y="-549" on="0"/>
        <pt x="1264" y="-502" on="1"/>
        <pt x="1275" y="-497" on="0"/>
        <pt x="1385" y="-450" on="1"/>
        <pt x="1467" y="-405" on="0"/>
        <pt x="1631" y="-320" on="1"/>
        <pt x="1677" y="-320" on="1"/>
        <pt x="1677" y="-324" on="0"/>
        <pt x="1689" y="-335" on="0"/>
      </contour>
      <contour>
        <pt x="828" y="-140" on="1"/>
        <pt x="828" y="-193" on="0"/>
        <pt x="781" y="-224" on="1"/>
        <pt x="675" y="-281" on="0"/>
        <pt x="466" y="-411" on="1"/>
        <pt x="451" y="-411" on="0"/>
        <pt x="409" y="-380" on="0"/>
        <pt x="409" y="-365" on="1"/>
        <pt x="409" y="-307" on="0"/>
        <pt x="583" y="-203" on="1"/>
        <pt x="677" y="-154" on="0"/>
        <pt x="771" y="-104" on="1"/>
        <pt x="815" y="-104" on="1"/>
        <pt x="828" y="-117" on="0"/>
      </contour>
      <contour>
        <pt x="674" y="-417" on="1"/>
        <pt x="674" y="-445" on="0"/>
        <pt x="456" y="-563" on="1"/>
        <pt x="247" y="-678" on="0"/>
        <pt x="228" y="-677" on="1"/>
        <pt x="186" y="-677" on="1"/>
        <pt x="173" y="-664" on="0"/>
        <pt x="173" y="-647" on="1"/>
        <pt x="173" y="-585" on="0"/>
        <pt x="216" y="-559" on="1"/>
        <pt x="350" y="-490" on="0"/>
        <pt x="607" y="-351" on="1"/>
        <pt x="674" y="-351" on="1"/>
      </contour>
      <contour>
        <pt x="3388" y="237" on="1"/>
        <pt x="3369" y="274" on="0"/>
        <pt x="3350" y="274" on="1"/>
        <pt x="3328" y="251" on="0"/>
        <pt x="3328" y="235" on="1"/>
        <pt x="3383" y="235" on="0"/>
      </contour>
      <contour>
        <pt x="1340" y="239" on="1"/>
        <pt x="1236" y="274" on="0"/>
        <pt x="1243" y="274" on="1"/>
        <pt x="1206" y="274" on="0"/>
        <pt x="1162" y="240" on="1"/>
        <pt x="1115" y="204" on="0"/>
        <pt x="1106" y="162" on="1"/>
        <pt x="1222" y="162" on="1"/>
        <pt x="1262" y="161" on="0"/>
      </contour>
    </TTGlyph>
    <TTGlyph name="uniFB59" xMin="190" yMin="-420" xMax="4429" yMax="1566">
      <contour>
        <pt x="4337" y="1275" on="1"/>
        <pt x="4337" y="1212" on="0"/>
        <pt x="4216" y="1140" on="1"/>
        <pt x="4143" y="1101" on="0"/>
        <pt x="4068" y="1062" on="1"/>
        <pt x="3976" y="1009" on="0"/>
        <pt x="3801" y="901" on="1"/>
        <pt x="3766" y="901" on="1"/>
        <pt x="3753" y="914" on="0"/>
        <pt x="3753" y="936" on="1"/>
        <pt x="3753" y="984" on="0"/>
        <pt x="3798" y="1020" on="0"/>
        <pt x="4053" y="1169" on="1"/>
        <pt x="4190" y="1249" on="0"/>
        <pt x="4312" y="1310" on="1"/>
        <pt x="4337" y="1285" on="0"/>
      </contour>
      <contour>
        <pt x="4429" y="205" on="1"/>
        <pt x="4429" y="19" on="0"/>
        <pt x="4293" y="-140" on="1"/>
        <pt x="4152" y="-307" on="0"/>
        <pt x="3973" y="-307" on="1"/>
        <pt x="3770" y="-307" on="0"/>
        <pt x="3672" y="-241" on="1"/>
        <pt x="3697" y="-194" on="0"/>
        <pt x="3722" y="-194" on="1"/>
        <pt x="3735" y="-194" on="0"/>
        <pt x="3848" y="-215" on="0"/>
        <pt x="3861" y="-215" on="1"/>
        <pt x="3992" y="-215" on="0"/>
        <pt x="4147" y="-86" on="1"/>
        <pt x="4296" y="36" on="0"/>
        <pt x="4306" y="136" on="1"/>
        <pt x="4315" y="143" on="0"/>
        <pt x="4291" y="143" on="1"/>
        <pt x="4280" y="143" on="0"/>
        <pt x="4232" y="112" on="0"/>
        <pt x="4219" y="112" on="1"/>
        <pt x="4141" y="112" on="0"/>
        <pt x="4100" y="187" on="1"/>
        <pt x="4071" y="241" on="0"/>
        <pt x="4071" y="301" on="1"/>
        <pt x="4071" y="376" on="0"/>
        <pt x="4111" y="450" on="1"/>
        <pt x="4160" y="542" on="0"/>
        <pt x="4239" y="542" on="1"/>
        <pt x="4288" y="542" on="0"/>
        <pt x="4349" y="459" on="1"/>
        <pt x="4402" y="387" on="0"/>
        <pt x="4415" y="333" on="1"/>
        <pt x="4429" y="276" on="0"/>
      </contour>
      <contour>
        <pt x="2095" y="1167" on="1"/>
        <pt x="2095" y="1129" on="0"/>
        <pt x="2082" y="1106" on="1"/>
        <pt x="2078" y="1106" on="0"/>
        <pt x="2064" y="1095" on="0"/>
        <pt x="2049" y="1095" on="1"/>
        <pt x="2036" y="1095" on="0"/>
        <pt x="1969" y="1147" on="0"/>
        <pt x="1956" y="1147" on="1"/>
        <pt x="1943" y="1147" on="0"/>
        <pt x="1909" y="1107" on="1"/>
        <pt x="1861" y="1053" on="0"/>
        <pt x="1843" y="1038" on="1"/>
        <pt x="1769" y="976" on="0"/>
        <pt x="1579" y="870" on="1"/>
        <pt x="1532" y="881" on="1"/>
        <pt x="1532" y="920" on="1"/>
        <pt x="1593" y="963" on="0"/>
        <pt x="1838" y="1183" on="1"/>
        <pt x="1819" y="1208" on="0"/>
        <pt x="1768" y="1251" on="1"/>
        <pt x="1746" y="1270" on="0"/>
        <pt x="1746" y="1305" on="1"/>
        <pt x="1746" y="1354" on="0"/>
        <pt x="1790" y="1420" on="1"/>
        <pt x="1839" y="1494" on="0"/>
        <pt x="1890" y="1494" on="1"/>
        <pt x="1928" y="1494" on="0"/>
        <pt x="1946" y="1472" on="1"/>
        <pt x="1991" y="1415" on="0"/>
        <pt x="1995" y="1286" on="1"/>
        <pt x="2003" y="1275" on="0"/>
        <pt x="2059" y="1240" on="1"/>
        <pt x="2095" y="1219" on="0"/>
      </contour>
      <contour>
        <pt x="3763" y="276" on="1"/>
        <pt x="3763" y="219" on="0"/>
        <pt x="3740" y="163" on="1"/>
        <pt x="3713" y="95" on="0"/>
        <pt x="3668" y="84" on="1"/>
        <pt x="3496" y="45" on="0"/>
        <pt x="2838" y="-28" on="1"/>
        <pt x="2643" y="-49" on="0"/>
        <pt x="2366" y="-65" on="1"/>
        <pt x="2064" y="-81" on="0"/>
        <pt x="1777" y="-81" on="1"/>
        <pt x="1559" y="-81" on="0"/>
        <pt x="1372" y="-58" on="1"/>
        <pt x="1303" y="-50" on="0"/>
        <pt x="1257" y="-27" on="1"/>
        <pt x="1228" y="-13" on="0"/>
        <pt x="1136" y="102" on="1"/>
        <pt x="1049" y="71" on="0"/>
        <pt x="1009" y="-20" on="1"/>
        <pt x="976" y="-100" on="0"/>
        <pt x="943" y="-181" on="1"/>
        <pt x="930" y="-192" on="0"/>
        <pt x="908" y="-212" on="1"/>
        <pt x="833" y="-345" on="0"/>
        <pt x="708" y="-392" on="1"/>
        <pt x="632" y="-420" on="0"/>
        <pt x="508" y="-420" on="1"/>
        <pt x="362" y="-420" on="0"/>
        <pt x="314" y="-376" on="1"/>
        <pt x="314" y="-340" on="1"/>
        <pt x="347" y="-307" on="0"/>
        <pt x="379" y="-307" on="1"/>
        <pt x="392" y="-307" on="0"/>
        <pt x="443" y="-317" on="0"/>
        <pt x="456" y="-317" on="1"/>
        <pt x="565" y="-317" on="0"/>
        <pt x="678" y="-242" on="1"/>
        <pt x="799" y="-161" on="0"/>
        <pt x="886" y="-16" on="1"/>
        <pt x="871" y="0" on="0"/>
        <pt x="861" y="0" on="1"/>
        <pt x="848" y="0" on="0"/>
        <pt x="838" y="-10" on="0"/>
        <pt x="825" y="-10" on="1"/>
        <pt x="806" y="-10" on="0"/>
        <pt x="737" y="12" on="1"/>
        <pt x="662" y="38" on="0"/>
        <pt x="654" y="54" on="1"/>
        <pt x="631" y="101" on="0"/>
        <pt x="631" y="143" on="1"/>
        <pt x="631" y="224" on="0"/>
        <pt x="691" y="305" on="1"/>
        <pt x="754" y="389" on="0"/>
        <pt x="830" y="389" on="1"/>
        <pt x="870" y="389" on="0"/>
        <pt x="891" y="363" on="1"/>
        <pt x="919" y="316" on="0"/>
        <pt x="946" y="270" on="1"/>
        <pt x="997" y="184" on="0"/>
        <pt x="1014" y="184" on="1"/>
        <pt x="1049" y="184" on="0"/>
        <pt x="1099" y="233" on="1"/>
        <pt x="1112" y="247" on="0"/>
        <pt x="1112" y="301" on="1"/>
        <pt x="1040" y="850" on="1"/>
        <pt x="1035" y="951" on="0"/>
        <pt x="1106" y="1004" on="1"/>
        <pt x="1163" y="969" on="0"/>
        <pt x="1169" y="906" on="1"/>
        <pt x="1177" y="727" on="0"/>
        <pt x="1216" y="374" on="1"/>
        <pt x="1223" y="311" on="0"/>
        <pt x="1257" y="202" on="1"/>
        <pt x="1293" y="139" on="0"/>
        <pt x="1343" y="125" on="1"/>
        <pt x="1493" y="82" on="0"/>
        <pt x="1972" y="82" on="1"/>
        <pt x="1984" y="82" on="0"/>
        <pt x="2476" y="92" on="0"/>
        <pt x="2489" y="92" on="1"/>
        <pt x="3582" y="224" on="1"/>
        <pt x="3600" y="241" on="1"/>
        <pt x="3549" y="307" on="0"/>
        <pt x="3481" y="324" on="1"/>
        <pt x="3424" y="338" on="0"/>
        <pt x="3323" y="338" on="1"/>
        <pt x="3315" y="338" on="0"/>
        <pt x="3077" y="301" on="1"/>
        <pt x="2812" y="261" on="0"/>
        <pt x="2694" y="248" on="1"/>
        <pt x="2302" y="205" on="0"/>
        <pt x="1956" y="205" on="1"/>
        <pt x="1822" y="205" on="0"/>
        <pt x="1659" y="228" on="1"/>
        <pt x="1606" y="235" on="0"/>
        <pt x="1532" y="288" on="1"/>
        <pt x="1532" y="301" on="0"/>
        <pt x="1559" y="375" on="1"/>
        <pt x="1577" y="428" on="0"/>
        <pt x="1647" y="510" on="1"/>
        <pt x="1711" y="585" on="0"/>
        <pt x="1759" y="619" on="1"/>
        <pt x="1916" y="735" on="0"/>
        <pt x="2015" y="784" on="1"/>
        <pt x="2293" y="922" on="0"/>
        <pt x="2347" y="921" on="1"/>
        <pt x="2399" y="921" on="1"/>
        <pt x="2412" y="919" on="0"/>
        <pt x="2412" y="895" on="1"/>
        <pt x="2412" y="870" on="0"/>
        <pt x="2390" y="827" on="1"/>
        <pt x="2363" y="776" on="0"/>
        <pt x="2326" y="760" on="1"/>
        <pt x="2277" y="749" on="0"/>
        <pt x="2194" y="723" on="1"/>
        <pt x="1789" y="557" on="0"/>
        <pt x="1695" y="406" on="1"/>
        <pt x="1766" y="358" on="0"/>
        <pt x="1803" y="358" on="1"/>
        <pt x="1815" y="358" on="0"/>
        <pt x="2199" y="348" on="0"/>
        <pt x="2213" y="348" on="1"/>
        <pt x="3426" y="481" on="1"/>
        <pt x="3545" y="481" on="0"/>
        <pt x="3639" y="440" on="1"/>
        <pt x="3763" y="385" on="0"/>
      </contour>
      <contour>
        <pt x="1234" y="1234" on="1"/>
        <pt x="1234" y="1201" on="0"/>
        <pt x="1211" y="1177" on="1"/>
        <pt x="1180" y="1177" on="1"/>
        <pt x="1164" y="1177" on="0"/>
        <pt x="1142" y="1194" on="1"/>
        <pt x="1111" y="1217" on="0"/>
        <pt x="1108" y="1218" on="1"/>
        <pt x="1035" y="1106" on="0"/>
        <pt x="902" y="1018" on="1"/>
        <pt x="844" y="980" on="0"/>
        <pt x="687" y="901" on="1"/>
        <pt x="632" y="913" on="1"/>
        <pt x="632" y="944" on="0"/>
        <pt x="653" y="958" on="1"/>
        <pt x="726" y="1004" on="0"/>
        <pt x="846" y="1100" on="1"/>
        <pt x="999" y="1222" on="0"/>
        <pt x="999" y="1254" on="1"/>
        <pt x="999" y="1259" on="0"/>
        <pt x="927" y="1343" on="0"/>
        <pt x="927" y="1377" on="1"/>
        <pt x="927" y="1408" on="0"/>
        <pt x="972" y="1481" on="1"/>
        <pt x="1022" y="1566" on="0"/>
        <pt x="1071" y="1566" on="1"/>
        <pt x="1160" y="1566" on="0"/>
        <pt x="1160" y="1399" on="1"/>
        <pt x="1160" y="1368" on="0"/>
        <pt x="1155" y="1357" on="1"/>
        <pt x="1168" y="1331" on="0"/>
        <pt x="1207" y="1295" on="1"/>
        <pt x="1234" y="1271" on="0"/>
      </contour>
      <contour>
        <pt x="467" y="1325" on="1"/>
        <pt x="467" y="1270" on="0"/>
        <pt x="419" y="1194" on="1"/>
        <pt x="363" y="1106" on="0"/>
        <pt x="292" y="1106" on="1"/>
        <pt x="249" y="1106" on="0"/>
        <pt x="216" y="1170" on="1"/>
        <pt x="190" y="1220" on="0"/>
        <pt x="190" y="1249" on="1"/>
        <pt x="190" y="1294" on="0"/>
        <pt x="240" y="1377" on="1"/>
        <pt x="298" y="1474" on="0"/>
        <pt x="359" y="1474" on="1"/>
        <pt x="410" y="1474" on="0"/>
        <pt x="442" y="1411" on="1"/>
        <pt x="467" y="1364" on="0"/>
      </contour>
      <contour>
        <pt x="436" y="256" on="1"/>
        <pt x="436" y="126" on="0"/>
        <pt x="371" y="31" on="1"/>
        <pt x="331" y="47" on="0"/>
        <pt x="326" y="97" on="1"/>
        <pt x="242" y="922" on="1"/>
        <pt x="242" y="997" on="0"/>
        <pt x="308" y="1075" on="1"/>
        <pt x="320" y="1068" on="0"/>
        <pt x="339" y="1051" on="1"/>
        <pt x="360" y="976" on="0"/>
        <pt x="370" y="886" on="1"/>
        <pt x="436" y="321" on="0"/>
      </contour>
      <contour>
        <pt x="4233" y="367" on="1"/>
        <pt x="4221" y="367" on="0"/>
        <pt x="4189" y="357" on="0"/>
        <pt x="4184" y="357" on="1"/>
        <pt x="4184" y="320" on="1"/>
        <pt x="4206" y="297" on="0"/>
        <pt x="4231" y="297" on="1"/>
        <pt x="4233" y="299" on="0"/>
      </contour>
      <contour>
        <pt x="1887" y="1321" on="1"/>
        <pt x="1887" y="1350" on="0"/>
        <pt x="1876" y="1362" on="1"/>
        <pt x="1860" y="1362" on="0"/>
        <pt x="1860" y="1332" on="1"/>
        <pt x="1870" y="1332" on="0"/>
      </contour>
      <contour>
        <pt x="1069" y="1393" on="1"/>
        <pt x="1069" y="1403" on="0"/>
        <pt x="1058" y="1422" on="1"/>
        <pt x="1049" y="1422" on="0"/>
        <pt x="1030" y="1408" on="1"/>
        <pt x="1044" y="1393" on="0"/>
      </contour>
      <contour>
        <pt x="363" y="1261" on="1"/>
        <pt x="363" y="1317" on="1"/>
        <pt x="342" y="1340" on="0"/>
        <pt x="315" y="1340" on="1"/>
        <pt x="293" y="1274" on="0"/>
        <pt x="306" y="1249" on="1"/>
        <pt x="323" y="1249" on="0"/>
        <pt x="360" y="1261" on="0"/>
      </contour>
      <contour>
        <pt x="824" y="176" on="1"/>
        <pt x="809" y="205" on="0"/>
        <pt x="789" y="225" on="1"/>
        <pt x="764" y="201" on="0"/>
        <pt x="764" y="186" on="1"/>
      </contour>
    </TTGlyph>
    <TTGlyph name="uniFB5A" xMin="59" yMin="-485" xMax="3601" yMax="1419">
      <contour>
        <pt x="3550" y="1357" on="1"/>
        <pt x="3550" y="1284" on="0"/>
        <pt x="3092" y="999" on="1"/>
        <pt x="3092" y="1003" on="0"/>
        <pt x="3079" y="1020" on="0"/>
        <pt x="3079" y="1035" on="1"/>
        <pt x="3079" y="1090" on="0"/>
        <pt x="3103" y="1120" on="1"/>
        <pt x="3120" y="1140" on="0"/>
        <pt x="3159" y="1164" on="1"/>
        <pt x="3213" y="1197" on="0"/>
        <pt x="3224" y="1205" on="1"/>
        <pt x="3388" y="1330" on="0"/>
        <pt x="3525" y="1398" on="1"/>
        <pt x="3550" y="1374" on="0"/>
      </contour>
      <contour>
        <pt x="3089" y="1312" on="1"/>
        <pt x="3089" y="1235" on="0"/>
        <pt x="2997" y="1155" on="1"/>
        <pt x="2911" y="1081" on="0"/>
        <pt x="2848" y="1081" on="1"/>
        <pt x="2837" y="1081" on="0"/>
        <pt x="2793" y="1091" on="0"/>
        <pt x="2782" y="1091" on="1"/>
        <pt x="2758" y="1091" on="0"/>
        <pt x="2717" y="1051" on="1"/>
        <pt x="2683" y="1051" on="1"/>
        <pt x="2670" y="1064" on="0"/>
        <pt x="2670" y="1081" on="1"/>
        <pt x="2670" y="1137" on="0"/>
        <pt x="2715" y="1182" on="1"/>
        <pt x="2737" y="1204" on="0"/>
        <pt x="2782" y="1219" on="1"/>
        <pt x="2821" y="1231" on="0"/>
        <pt x="2851" y="1273" on="1"/>
        <pt x="2956" y="1419" on="0"/>
        <pt x="3007" y="1419" on="1"/>
        <pt x="3059" y="1419" on="0"/>
      </contour>
      <contour>
        <pt x="2536" y="1230" on="1"/>
        <pt x="2536" y="1196" on="0"/>
        <pt x="2430" y="1121" on="1"/>
        <pt x="2327" y="1050" on="0"/>
        <pt x="2295" y="1050" on="1"/>
        <pt x="2202" y="1050" on="1"/>
        <pt x="2195" y="1063" on="0"/>
        <pt x="2178" y="1085" on="1"/>
        <pt x="2186" y="1097" on="0"/>
        <pt x="2311" y="1185" on="1"/>
        <pt x="2305" y="1194" on="0"/>
        <pt x="2276" y="1194" on="1"/>
        <pt x="2263" y="1194" on="0"/>
        <pt x="2223" y="1176" on="1"/>
        <pt x="2178" y="1157" on="0"/>
        <pt x="2161" y="1153" on="1"/>
        <pt x="2147" y="1167" on="0"/>
        <pt x="2147" y="1184" on="1"/>
        <pt x="2147" y="1235" on="0"/>
        <pt x="2222" y="1280" on="1"/>
        <pt x="2281" y="1316" on="0"/>
        <pt x="2311" y="1316" on="1"/>
        <pt x="2362" y="1316" on="0"/>
        <pt x="2440" y="1294" on="1"/>
        <pt x="2536" y="1266" on="0"/>
      </contour>
      <contour>
        <pt x="3007" y="149" on="1"/>
        <pt x="3007" y="124" on="0"/>
        <pt x="2961" y="-37" on="0"/>
        <pt x="2953" y="-45" on="1"/>
        <pt x="2925" y="-45" on="0"/>
        <pt x="2908" y="-21" on="1"/>
        <pt x="2897" y="131" on="0"/>
        <pt x="2853" y="496" on="1"/>
        <pt x="2813" y="835" on="0"/>
        <pt x="2813" y="840" on="1"/>
        <pt x="2813" y="894" on="0"/>
        <pt x="2818" y="911" on="1"/>
        <pt x="2825" y="938" on="0"/>
        <pt x="2866" y="1008" on="1"/>
        <pt x="2902" y="1008" on="1"/>
        <pt x="2924" y="977" on="0"/>
        <pt x="2932" y="903" on="1"/>
        <pt x="3007" y="200" on="0"/>
      </contour>
      <contour>
        <pt x="3601" y="88" on="1"/>
        <pt x="3601" y="-13" on="0"/>
        <pt x="3521" y="-165" on="1"/>
        <pt x="3436" y="-328" on="0"/>
        <pt x="3343" y="-386" on="1"/>
        <pt x="3266" y="-434" on="0"/>
        <pt x="3130" y="-434" on="1"/>
        <pt x="2978" y="-434" on="0"/>
        <pt x="2876" y="-391" on="1"/>
        <pt x="2875" y="-385" on="0"/>
        <pt x="2864" y="-367" on="1"/>
        <pt x="2900" y="-331" on="0"/>
        <pt x="2925" y="-331" on="1"/>
        <pt x="2938" y="-331" on="0"/>
        <pt x="3020" y="-342" on="0"/>
        <pt x="3033" y="-342" on="1"/>
        <pt x="3151" y="-342" on="0"/>
        <pt x="3285" y="-235" on="1"/>
        <pt x="3414" y="-134" on="0"/>
        <pt x="3469" y="-8" on="1"/>
        <pt x="3469" y="-5" on="0"/>
        <pt x="3471" y="3" on="1"/>
        <pt x="3473" y="10" on="0"/>
        <pt x="3472" y="12" on="1"/>
        <pt x="3469" y="16" on="0"/>
        <pt x="3458" y="16" on="1"/>
        <pt x="3446" y="16" on="0"/>
        <pt x="3414" y="6" on="0"/>
        <pt x="3401" y="6" on="1"/>
        <pt x="3350" y="6" on="0"/>
        <pt x="3301" y="39" on="1"/>
        <pt x="3243" y="79" on="0"/>
        <pt x="3243" y="139" on="1"/>
        <pt x="3243" y="209" on="0"/>
        <pt x="3283" y="296" on="1"/>
        <pt x="3333" y="406" on="0"/>
        <pt x="3407" y="406" on="1"/>
        <pt x="3501" y="406" on="0"/>
        <pt x="3559" y="277" on="1"/>
        <pt x="3601" y="179" on="0"/>
      </contour>
      <contour>
        <pt x="2567" y="579" on="1"/>
        <pt x="2567" y="551" on="0"/>
        <pt x="2525" y="512" on="1"/>
        <pt x="2485" y="477" on="0"/>
        <pt x="2465" y="477" on="1"/>
        <pt x="2453" y="477" on="0"/>
        <pt x="2408" y="497" on="0"/>
        <pt x="2399" y="497" on="1"/>
        <pt x="2386" y="497" on="0"/>
        <pt x="2319" y="436" on="0"/>
        <pt x="2306" y="436" on="1"/>
        <pt x="2288" y="436" on="0"/>
        <pt x="2188" y="509" on="0"/>
        <pt x="2188" y="528" on="1"/>
        <pt x="2188" y="575" on="0"/>
        <pt x="2291" y="657" on="1"/>
        <pt x="2240" y="719" on="0"/>
        <pt x="2240" y="743" on="1"/>
        <pt x="2240" y="760" on="0"/>
        <pt x="2263" y="802" on="1"/>
        <pt x="2292" y="856" on="0"/>
        <pt x="2327" y="856" on="1"/>
        <pt x="2354" y="856" on="0"/>
        <pt x="2445" y="772" on="0"/>
        <pt x="2445" y="748" on="1"/>
        <pt x="2445" y="730" on="0"/>
        <pt x="2364" y="651" on="0"/>
        <pt x="2331" y="635" on="1"/>
        <pt x="2333" y="634" on="0"/>
        <pt x="2339" y="618" on="1"/>
        <pt x="2342" y="610" on="0"/>
        <pt x="2358" y="610" on="1"/>
        <pt x="2370" y="610" on="0"/>
        <pt x="2447" y="682" on="0"/>
        <pt x="2460" y="682" on="1"/>
        <pt x="2477" y="682" on="0"/>
        <pt x="2567" y="596" on="0"/>
      </contour>
      <contour>
        <pt x="1870" y="1198" on="1"/>
        <pt x="1871" y="1162" on="0"/>
        <pt x="1771" y="1102" on="1"/>
        <pt x="1712" y="1069" on="0"/>
        <pt x="1654" y="1037" on="1"/>
        <pt x="1524" y="951" on="0"/>
        <pt x="1353" y="866" on="1"/>
        <pt x="1339" y="881" on="0"/>
        <pt x="1339" y="918" on="1"/>
        <pt x="1339" y="964" on="0"/>
        <pt x="1354" y="974" on="1"/>
        <pt x="1803" y="1255" on="0"/>
        <pt x="1816" y="1254" on="1"/>
        <pt x="1870" y="1254" on="1"/>
      </contour>
      <contour>
        <pt x="1154" y="1076" on="1"/>
        <pt x="1154" y="1034" on="0"/>
        <pt x="1120" y="999" on="1"/>
        <pt x="1117" y="1000" on="0"/>
        <pt x="1061" y="1023" on="1"/>
        <pt x="1021" y="1040" on="0"/>
        <pt x="1006" y="1040" on="1"/>
        <pt x="931" y="976" on="0"/>
        <pt x="867" y="927" on="1"/>
        <pt x="713" y="807" on="0"/>
        <pt x="638" y="774" on="1"/>
        <pt x="604" y="774" on="1"/>
        <pt x="591" y="776" on="0"/>
        <pt x="591" y="800" on="1"/>
        <pt x="591" y="818" on="0"/>
        <pt x="899" y="1085" on="0"/>
        <pt x="899" y="1102" on="1"/>
        <pt x="899" y="1110" on="0"/>
        <pt x="827" y="1193" on="0"/>
        <pt x="827" y="1214" on="1"/>
        <pt x="827" y="1253" on="0"/>
        <pt x="883" y="1331" on="1"/>
        <pt x="947" y="1419" on="0"/>
        <pt x="1001" y="1419" on="1"/>
        <pt x="1076" y="1419" on="0"/>
        <pt x="1076" y="1276" on="1"/>
        <pt x="1076" y="1257" on="0"/>
        <pt x="1073" y="1198" on="0"/>
        <pt x="1073" y="1191" on="1"/>
        <pt x="1073" y="1183" on="0"/>
        <pt x="1074" y="1180" on="1"/>
        <pt x="1079" y="1172" on="0"/>
        <pt x="1119" y="1128" on="1"/>
        <pt x="1154" y="1090" on="0"/>
      </contour>
      <contour>
        <pt x="2741" y="170" on="1"/>
        <pt x="2741" y="90" on="0"/>
        <pt x="2700" y="29" on="1"/>
        <pt x="2658" y="-35" on="0"/>
        <pt x="2598" y="-35" on="1"/>
        <pt x="2586" y="-35" on="0"/>
        <pt x="2456" y="6" on="0"/>
        <pt x="2445" y="6" on="1"/>
        <pt x="2429" y="6" on="0"/>
        <pt x="2417" y="-9" on="1"/>
        <pt x="2408" y="-20" on="0"/>
        <pt x="2401" y="-31" on="1"/>
        <pt x="2323" y="-65" on="0"/>
        <pt x="2270" y="-65" on="1"/>
        <pt x="2209" y="-65" on="0"/>
        <pt x="2028" y="16" on="0"/>
        <pt x="1989" y="16" on="1"/>
        <pt x="1960" y="16" on="0"/>
        <pt x="1786" y="-18" on="1"/>
        <pt x="1777" y="-30" on="0"/>
        <pt x="1760" y="-52" on="1"/>
        <pt x="1751" y="-107" on="0"/>
        <pt x="1724" y="-205" on="1"/>
        <pt x="1605" y="-485" on="0"/>
        <pt x="1354" y="-485" on="1"/>
        <pt x="1307" y="-485" on="0"/>
        <pt x="1205" y="-461" on="1"/>
        <pt x="1091" y="-434" on="0"/>
        <pt x="1083" y="-409" on="1"/>
        <pt x="1083" y="-376" on="1"/>
        <pt x="1107" y="-352" on="0"/>
        <pt x="1134" y="-352" on="1"/>
        <pt x="1147" y="-352" on="0"/>
        <pt x="1218" y="-372" on="0"/>
        <pt x="1231" y="-372" on="1"/>
        <pt x="1353" y="-372" on="0"/>
        <pt x="1468" y="-301" on="1"/>
        <pt x="1591" y="-224" on="0"/>
        <pt x="1643" y="-99" on="1"/>
        <pt x="1647" y="-86" on="0"/>
        <pt x="1654" y="-3" on="1"/>
        <pt x="1660" y="70" on="0"/>
        <pt x="1680" y="93" on="1"/>
        <pt x="1719" y="136" on="0"/>
        <pt x="1814" y="156" on="1"/>
        <pt x="2125" y="221" on="0"/>
        <pt x="2112" y="221" on="1"/>
        <pt x="2143" y="221" on="0"/>
        <pt x="2143" y="196" on="1"/>
        <pt x="2143" y="190" on="0"/>
        <pt x="2138" y="159" on="0"/>
        <pt x="2138" y="151" on="1"/>
        <pt x="2138" y="98" on="0"/>
        <pt x="2235" y="98" on="1"/>
        <pt x="2373" y="98" on="0"/>
        <pt x="2411" y="157" on="1"/>
        <pt x="2426" y="190" on="0"/>
        <pt x="2440" y="224" on="1"/>
        <pt x="2467" y="276" on="0"/>
        <pt x="2492" y="283" on="1"/>
        <pt x="2522" y="251" on="0"/>
        <pt x="2522" y="206" on="1"/>
        <pt x="2522" y="202" on="0"/>
        <pt x="2522" y="192" on="1"/>
        <pt x="2522" y="182" on="0"/>
        <pt x="2522" y="178" on="1"/>
        <pt x="2522" y="139" on="0"/>
        <pt x="2582" y="139" on="1"/>
        <pt x="2611" y="139" on="0"/>
        <pt x="2620" y="156" on="0"/>
        <pt x="2627" y="242" on="1"/>
        <pt x="2634" y="313" on="0"/>
        <pt x="2673" y="354" on="1"/>
        <pt x="2702" y="354" on="0"/>
        <pt x="2716" y="330" on="1"/>
        <pt x="2718" y="310" on="0"/>
        <pt x="2730" y="245" on="1"/>
        <pt x="2741" y="185" on="0"/>
      </contour>
      <contour>
        <pt x="325" y="1266" on="1"/>
        <pt x="325" y="1212" on="0"/>
        <pt x="276" y="1137" on="1"/>
        <pt x="220" y="1050" on="0"/>
        <pt x="156" y="1050" on="1"/>
        <pt x="59" y="1050" on="0"/>
        <pt x="59" y="1153" on="1"/>
        <pt x="59" y="1203" on="0"/>
        <pt x="106" y="1294" on="1"/>
        <pt x="161" y="1398" on="0"/>
        <pt x="217" y="1398" on="1"/>
        <pt x="265" y="1398" on="0"/>
        <pt x="297" y="1355" on="1"/>
        <pt x="325" y="1316" on="0"/>
      </contour>
      <contour>
        <pt x="1328" y="-163" on="1"/>
        <pt x="1328" y="-200" on="0"/>
        <pt x="1274" y="-260" on="0"/>
        <pt x="1236" y="-260" on="1"/>
        <pt x="1197" y="-260" on="0"/>
        <pt x="1159" y="-230" on="1"/>
        <pt x="1124" y="-202" on="0"/>
        <pt x="1124" y="-178" on="1"/>
        <pt x="1124" y="-149" on="0"/>
        <pt x="1158" y="-108" on="1"/>
        <pt x="1195" y="-65" on="0"/>
        <pt x="1231" y="-65" on="1"/>
        <pt x="1260" y="-65" on="0"/>
        <pt x="1328" y="-131" on="0"/>
      </contour>
      <contour>
        <pt x="1257" y="190" on="1"/>
        <pt x="1257" y="144" on="0"/>
        <pt x="1221" y="70" on="1"/>
        <pt x="1206" y="38" on="0"/>
        <pt x="1162" y="19" on="1"/>
        <pt x="1143" y="11" on="0"/>
        <pt x="1076" y="1" on="1"/>
        <pt x="1021" y="-7" on="0"/>
        <pt x="999" y="-27" on="1"/>
        <pt x="981" y="-44" on="0"/>
        <pt x="958" y="-106" on="1"/>
        <pt x="930" y="-181" on="0"/>
        <pt x="914" y="-206" on="1"/>
        <pt x="872" y="-275" on="0"/>
        <pt x="796" y="-346" on="1"/>
        <pt x="708" y="-431" on="0"/>
        <pt x="639" y="-452" on="1"/>
        <pt x="595" y="-465" on="0"/>
        <pt x="530" y="-465" on="1"/>
        <pt x="418" y="-465" on="0"/>
        <pt x="288" y="-441" on="1"/>
        <pt x="266" y="-438" on="0"/>
        <pt x="192" y="-389" on="1"/>
        <pt x="217" y="-342" on="0"/>
        <pt x="248" y="-342" on="1"/>
        <pt x="261" y="-342" on="0"/>
        <pt x="369" y="-362" on="0"/>
        <pt x="381" y="-362" on="1"/>
        <pt x="516" y="-362" on="0"/>
        <pt x="672" y="-256" on="1"/>
        <pt x="818" y="-156" on="0"/>
        <pt x="847" y="-62" on="1"/>
        <pt x="827" y="-45" on="0"/>
        <pt x="754" y="-31" on="1"/>
        <pt x="675" y="-18" on="0"/>
        <pt x="644" y="0" on="1"/>
        <pt x="591" y="31" on="0"/>
        <pt x="591" y="98" on="1"/>
        <pt x="591" y="168" on="0"/>
        <pt x="641" y="260" on="1"/>
        <pt x="699" y="365" on="0"/>
        <pt x="765" y="365" on="1"/>
        <pt x="832" y="365" on="0"/>
        <pt x="956" y="149" on="0"/>
        <pt x="1006" y="149" on="1"/>
        <pt x="1061" y="149" on="0"/>
        <pt x="1124" y="197" on="1"/>
        <pt x="1111" y="223" on="0"/>
        <pt x="1056" y="304" on="1"/>
        <pt x="1011" y="371" on="0"/>
        <pt x="1011" y="385" on="1"/>
        <pt x="1011" y="410" on="0"/>
        <pt x="1024" y="444" on="1"/>
        <pt x="1040" y="487" on="0"/>
        <pt x="1067" y="487" on="1"/>
        <pt x="1139" y="487" on="0"/>
        <pt x="1203" y="354" on="1"/>
        <pt x="1257" y="243" on="0"/>
      </contour>
      <contour>
        <pt x="346" y="134" on="1"/>
        <pt x="346" y="103" on="0"/>
        <pt x="315" y="19" on="1"/>
        <pt x="291" y="-46" on="0"/>
        <pt x="282" y="-64" on="1"/>
        <pt x="244" y="-64" on="1"/>
        <pt x="130" y="877" on="1"/>
        <pt x="130" y="908" on="0"/>
        <pt x="161" y="964" on="1"/>
        <pt x="189" y="1017" on="0"/>
        <pt x="207" y="1030" on="1"/>
        <pt x="220" y="1018" on="0"/>
        <pt x="239" y="995" on="1"/>
      </contour>
      <contour>
        <pt x="2979" y="1266" on="1"/>
        <pt x="2970" y="1280" on="1"/>
        <pt x="2923" y="1245" on="1"/>
        <pt x="2932" y="1231" on="1"/>
      </contour>
      <contour>
        <pt x="3417" y="218" on="1"/>
        <pt x="3404" y="230" on="0"/>
        <pt x="3378" y="230" on="1"/>
        <pt x="3367" y="193" on="1"/>
        <pt x="3372" y="193" on="0"/>
        <pt x="3398" y="180" on="0"/>
        <pt x="3404" y="180" on="1"/>
        <pt x="3417" y="193" on="0"/>
      </contour>
      <contour>
        <pt x="990" y="1226" on="1"/>
        <pt x="990" y="1262" on="1"/>
        <pt x="979" y="1273" on="0"/>
        <pt x="940" y="1273" on="1"/>
        <pt x="956" y="1226" on="0"/>
      </contour>
      <contour>
        <pt x="233" y="1240" on="1"/>
        <pt x="209" y="1265" on="0"/>
        <pt x="184" y="1265" on="1"/>
        <pt x="170" y="1235" on="0"/>
        <pt x="141" y="1209" on="1"/>
        <pt x="163" y="1187" on="0"/>
        <pt x="163" y="1185" on="1"/>
        <pt x="212" y="1196" on="0"/>
      </contour>
      <contour>
        <pt x="785" y="141" on="1"/>
        <pt x="785" y="156" on="0"/>
        <pt x="750" y="190" on="1"/>
        <pt x="724" y="164" on="1"/>
        <pt x="773" y="139" on="0"/>
      </contour>
    </TTGlyph>
</ttFont>
